<svg width="16" height="16" viewBox="0 0 16 16" fill="none" xmlns="http://www.w3.org/2000/svg">
<path d="M3.9026 11.4026C4.46927 10.9693 5.1026 10.6276 5.8026 10.3776C6.5026 10.1276 7.23594 10.0026 8.0026 10.0026C8.76927 10.0026 9.5026 10.1276 10.2026 10.3776C10.9026 10.6276 11.5359 10.9693 12.1026 11.4026C12.4915 10.947 12.7943 10.4304 13.0109 9.8526C13.2276 9.27483 13.3359 8.65816 13.3359 8.0026C13.3359 6.52483 12.8165 5.26649 11.7776 4.2276C10.7387 3.18872 9.48038 2.66927 8.0026 2.66927C6.52483 2.66927 5.26649 3.18872 4.2276 4.2276C3.18872 5.26649 2.66927 6.52483 2.66927 8.0026C2.66927 8.65816 2.7776 9.27483 2.99427 9.8526C3.21094 10.4304 3.51372 10.947 3.9026 11.4026ZM8.0026 8.66927C7.34705 8.66927 6.79427 8.44427 6.34427 7.99427C5.89427 7.54427 5.66927 6.99149 5.66927 6.33594C5.66927 5.68038 5.89427 5.1276 6.34427 4.6776C6.79427 4.2276 7.34705 4.0026 8.0026 4.0026C8.65816 4.0026 9.21094 4.2276 9.66094 4.6776C10.1109 5.1276 10.3359 5.68038 10.3359 6.33594C10.3359 6.99149 10.1109 7.54427 9.66094 7.99427C9.21094 8.44427 8.65816 8.66927 8.0026 8.66927ZM8.0026 14.6693C7.08038 14.6693 6.21372 14.4943 5.4026 14.1443C4.59149 13.7943 3.88594 13.3193 3.28594 12.7193C2.68594 12.1193 2.21094 11.4137 1.86094 10.6026C1.51094 9.79149 1.33594 8.92483 1.33594 8.0026C1.33594 7.08038 1.51094 6.21372 1.86094 5.4026C2.21094 4.59149 2.68594 3.88594 3.28594 3.28594C3.88594 2.68594 4.59149 2.21094 5.4026 1.86094C6.21372 1.51094 7.08038 1.33594 8.0026 1.33594C8.92483 1.33594 9.79149 1.51094 10.6026 1.86094C11.4137 2.21094 12.1193 2.68594 12.7193 3.28594C13.3193 3.88594 13.7943 4.59149 14.1443 5.4026C14.4943 6.21372 14.6693 7.08038 14.6693 8.0026C14.6693 8.92483 14.4943 9.79149 14.1443 10.6026C13.7943 11.4137 13.3193 12.1193 12.7193 12.7193C12.1193 13.3193 11.4137 13.7943 10.6026 14.1443C9.79149 14.4943 8.92483 14.6693 8.0026 14.6693ZM8.0026 13.3359C8.59149 13.3359 9.14705 13.2498 9.66927 13.0776C10.1915 12.9054 10.6693 12.6582 11.1026 12.3359C10.6693 12.0137 10.1915 11.7665 9.66927 11.5943C9.14705 11.422 8.59149 11.3359 8.0026 11.3359C7.41371 11.3359 6.85816 11.422 6.33594 11.5943C5.81371 11.7665 5.33594 12.0137 4.9026 12.3359C5.33594 12.6582 5.81371 12.9054 6.33594 13.0776C6.85816 13.2498 7.41371 13.3359 8.0026 13.3359ZM8.0026 7.33594C8.29149 7.33594 8.53038 7.24149 8.71927 7.0526C8.90816 6.86372 9.0026 6.62483 9.0026 6.33594C9.0026 6.04705 8.90816 5.80816 8.71927 5.61927C8.53038 5.43038 8.29149 5.33594 8.0026 5.33594C7.71372 5.33594 7.47483 5.43038 7.28594 5.61927C7.09705 5.80816 7.0026 6.04705 7.0026 6.33594C7.0026 6.62483 7.09705 6.86372 7.28594 7.0526C7.47483 7.24149 7.71372 7.33594 8.0026 7.33594Z" fill="#FBEFD9"/>
</svg>
