<svg width="16" height="16" viewBox="0 0 16 16" fill="none" xmlns="http://www.w3.org/2000/svg">
<path d="M5.6026 11.3359L8.0026 8.93594L10.4026 11.3359L11.3359 10.4026L8.93594 8.0026L11.3359 5.6026L10.4026 4.66927L8.0026 7.06927L5.6026 4.66927L4.66927 5.6026L7.06927 8.0026L4.66927 10.4026L5.6026 11.3359ZM8.0026 14.6693C7.08038 14.6693 6.21372 14.4943 5.4026 14.1443C4.59149 13.7943 3.88594 13.3193 3.28594 12.7193C2.68594 12.1193 2.21094 11.4137 1.86094 10.6026C1.51094 9.79149 1.33594 8.92483 1.33594 8.0026C1.33594 7.08038 1.51094 6.21372 1.86094 5.4026C2.21094 4.59149 2.68594 3.88594 3.28594 3.28594C3.88594 2.68594 4.59149 2.21094 5.4026 1.86094C6.21372 1.51094 7.08038 1.33594 8.0026 1.33594C8.92483 1.33594 9.79149 1.51094 10.6026 1.86094C11.4137 2.21094 12.1193 2.68594 12.7193 3.28594C13.3193 3.88594 13.7943 4.59149 14.1443 5.4026C14.4943 6.21372 14.6693 7.08038 14.6693 8.0026C14.6693 8.92483 14.4943 9.79149 14.1443 10.6026C13.7943 11.4137 13.3193 12.1193 12.7193 12.7193C12.1193 13.3193 11.4137 13.7943 10.6026 14.1443C9.79149 14.4943 8.92483 14.6693 8.0026 14.6693ZM8.0026 13.3359C9.49149 13.3359 10.7526 12.8193 11.7859 11.7859C12.8193 10.7526 13.3359 9.49149 13.3359 8.0026C13.3359 6.51371 12.8193 5.2526 11.7859 4.21927C10.7526 3.18594 9.49149 2.66927 8.0026 2.66927C6.51371 2.66927 5.2526 3.18594 4.21927 4.21927C3.18594 5.2526 2.66927 6.51371 2.66927 8.0026C2.66927 9.49149 3.18594 10.7526 4.21927 11.7859C5.2526 12.8193 6.51371 13.3359 8.0026 13.3359Z" fill="#FBEFD9"/>
</svg>
