<svg width="20" height="20" viewBox="0 0 20 20" fill="none" xmlns="http://www.w3.org/2000/svg">
<path d="M8.83073 13.8307L14.7057 7.95573L13.5391 6.78906L8.83073 11.4974L6.45573 9.1224L5.28906 10.2891L8.83073 13.8307ZM9.9974 18.3307C8.84462 18.3307 7.76129 18.112 6.7474 17.6745C5.73351 17.237 4.85156 16.6432 4.10156 15.8932C3.35156 15.1432 2.75781 14.2613 2.32031 13.2474C1.88281 12.2335 1.66406 11.1502 1.66406 9.9974C1.66406 8.84462 1.88281 7.76129 2.32031 6.7474C2.75781 5.73351 3.35156 4.85156 4.10156 4.10156C4.85156 3.35156 5.73351 2.75781 6.7474 2.32031C7.76129 1.88281 8.84462 1.66406 9.9974 1.66406C11.1502 1.66406 12.2335 1.88281 13.2474 2.32031C14.2613 2.75781 15.1432 3.35156 15.8932 4.10156C16.6432 4.85156 17.237 5.73351 17.6745 6.7474C18.112 7.76129 18.3307 8.84462 18.3307 9.9974C18.3307 11.1502 18.112 12.2335 17.6745 13.2474C17.237 14.2613 16.6432 15.1432 15.8932 15.8932C15.1432 16.6432 14.2613 17.237 13.2474 17.6745C12.2335 18.112 11.1502 18.3307 9.9974 18.3307ZM9.9974 16.6641C11.8585 16.6641 13.4349 16.0182 14.7266 14.7266C16.0182 13.4349 16.6641 11.8585 16.6641 9.9974C16.6641 8.13629 16.0182 6.5599 14.7266 5.26823C13.4349 3.97656 11.8585 3.33073 9.9974 3.33073C8.13629 3.33073 6.5599 3.97656 5.26823 5.26823C3.97656 6.5599 3.33073 8.13629 3.33073 9.9974C3.33073 11.8585 3.97656 13.4349 5.26823 14.7266C6.5599 16.0182 8.13629 16.6641 9.9974 16.6641Z" fill="white"/>
</svg>
