<svg width="16" height="16" viewBox="0 0 16 16" fill="none" xmlns="http://www.w3.org/2000/svg">
<path d="M5.33073 8.66927H10.6641V7.33594H5.33073V8.66927ZM5.33073 10.6693H10.6641V9.33594H5.33073V10.6693ZM5.33073 12.6693H8.66406V11.3359H5.33073V12.6693ZM3.9974 14.6693C3.63073 14.6693 3.31684 14.5387 3.05573 14.2776C2.79462 14.0165 2.66406 13.7026 2.66406 13.3359V2.66927C2.66406 2.3026 2.79462 1.98872 3.05573 1.7276C3.31684 1.46649 3.63073 1.33594 3.9974 1.33594H9.33073L13.3307 5.33594V13.3359C13.3307 13.7026 13.2002 14.0165 12.9391 14.2776C12.678 14.5387 12.3641 14.6693 11.9974 14.6693H3.9974ZM8.66406 6.0026V2.66927H3.9974V13.3359H11.9974V6.0026H8.66406Z" fill="#FBEFD9"/>
</svg>
