<svg width="14" height="17" viewBox="0 0 14 17" fill="none" xmlns="http://www.w3.org/2000/svg">
<path d="M3.5 13.6447H10.5V12.3026H3.5V13.6447ZM3.5 10.0658H10.5V8.72368H3.5V10.0658ZM1.68723 17C1.21574 17 0.816667 16.8434 0.49 16.5303C0.163333 16.2171 0 15.8345 0 15.3825V1.61746C0 1.16547 0.163333 0.782895 0.49 0.469737C0.816667 0.156579 1.21574 0 1.68723 0H9.1L14 4.69737V15.3825C14 15.8345 13.8367 16.2171 13.51 16.5303C13.1833 16.8434 12.7843 17 12.3128 17H1.68723ZM8.4 5.36842V1.34211H1.68723C1.61537 1.34211 1.54957 1.37081 1.48983 1.42822C1.42994 1.48549 1.4 1.54857 1.4 1.61746V15.3825C1.4 15.4514 1.42994 15.5145 1.48983 15.5718C1.54957 15.6292 1.61537 15.6579 1.68723 15.6579H12.3128C12.3846 15.6579 12.4504 15.6292 12.5102 15.5718C12.5701 15.5145 12.6 15.4514 12.6 15.3825V5.36842H8.4Z" fill="#6C757D"/>
</svg>
