<svg width="16" height="16" viewBox="0 0 16 16" fill="none" xmlns="http://www.w3.org/2000/svg">
<path d="M10 14C8.68889 14 7.52222 13.6278 6.5 12.8833C5.47778 12.1389 4.75556 11.1778 4.33333 10H2V8.66667H4.03333C4 8.4 3.98611 8.15278 3.99167 7.925C3.99722 7.69722 4.01111 7.5 4.03333 7.33333H2V6H4.33333C4.75556 4.82222 5.47778 3.86111 6.5 3.11667C7.52222 2.37222 8.68889 2 10 2C10.7667 2 11.4917 2.13611 12.175 2.40833C12.8583 2.68056 13.4667 3.05556 14 3.53333L13.05 4.46667C12.6389 4.11111 12.175 3.83333 11.6583 3.63333C11.1417 3.43333 10.5889 3.33333 10 3.33333C9.05556 3.33333 8.21111 3.58056 7.46667 4.075C6.72222 4.56944 6.16111 5.21111 5.78333 6H10V7.33333H5.38333C5.33889 7.63333 5.32222 7.89722 5.33333 8.125C5.34444 8.35278 5.36111 8.53333 5.38333 8.66667H10V10H5.78333C6.16111 10.7889 6.72222 11.4306 7.46667 11.925C8.21111 12.4194 9.05556 12.6667 10 12.6667C10.5889 12.6667 11.1417 12.5667 11.6583 12.3667C12.175 12.1667 12.6389 11.8889 13.05 11.5333L14 12.4667C13.4667 12.9444 12.8583 13.3194 12.175 13.5917C11.4917 13.8639 10.7667 14 10 14Z" fill="#FBEFD9"/>
</svg>
