<svg width="430" height="363" viewBox="0 0 430 363" fill="none" xmlns="http://www.w3.org/2000/svg">
<path d="M430 261.859H0V262.073H430V261.859Z" fill="#EBEBEB"/>
<path d="M386.913 275.703H358.43V275.917H386.913V275.703Z" fill="#EBEBEB"/>
<path d="M284.848 278.039H277.375V278.253H284.848V278.039Z" fill="#EBEBEB"/>
<path d="M357.574 267.719H341.07V267.932H357.574V267.719Z" fill="#EBEBEB"/>
<path d="M82.2606 269.156H45.1172V269.37H82.2606V269.156Z" fill="#EBEBEB"/>
<path d="M95.3657 269.156H89.9219V269.37H95.3657V269.156Z" fill="#EBEBEB"/>
<path d="M193.627 272.797H113.062V273.01H193.627V272.797Z" fill="#EBEBEB"/>
<path d="M203.819 223.505H37.7614C36.4605 223.503 35.2137 222.984 34.2946 222.064C33.3756 221.143 32.8594 219.895 32.8594 218.594V-14.8355C32.8707 -16.1289 33.3919 -17.3657 34.3097 -18.2771C35.2276 -19.1885 36.4679 -19.7009 37.7614 -19.7031H203.819C205.121 -19.7031 206.37 -19.1858 207.291 -18.2648C208.212 -17.3439 208.729 -16.0949 208.729 -14.7925V218.594C208.729 219.897 208.212 221.146 207.291 222.067C206.37 222.988 205.121 223.505 203.819 223.505ZM37.7614 -19.5311C36.5175 -19.5288 35.3254 -19.0331 34.4466 -18.1528C33.5679 -17.2724 33.0744 -16.0794 33.0744 -14.8355V218.594C33.0744 219.838 33.5679 221.031 34.4466 221.912C35.3254 222.792 36.5175 223.288 37.7614 223.29H203.819C205.063 223.288 206.256 222.792 207.137 221.912C208.017 221.032 208.512 219.839 208.514 218.594V-14.8355C208.512 -16.0802 208.017 -17.2732 207.137 -18.1533C206.256 -19.0334 205.063 -19.5289 203.819 -19.5311H37.7614Z" fill="#EBEBEB"/>
<path d="M389.844 223.505H223.778C222.476 223.503 221.228 222.985 220.308 222.064C219.388 221.144 218.869 219.896 218.867 218.594V-14.8355C218.881 -16.1297 219.404 -17.3664 220.323 -18.2776C221.242 -19.1888 222.484 -19.7009 223.778 -19.7031H389.844C391.136 -19.6986 392.374 -19.1852 393.29 -18.274C394.206 -17.3629 394.726 -16.1275 394.737 -14.8355V218.594C394.737 219.894 394.222 221.14 393.305 222.061C392.388 222.981 391.143 223.5 389.844 223.505ZM223.778 -19.5311C222.533 -19.5289 221.34 -19.0334 220.46 -18.1533C219.58 -17.2732 219.084 -16.0802 219.082 -14.8355V218.594C219.084 219.839 219.58 221.032 220.46 221.912C221.34 222.792 222.533 223.288 223.778 223.29H389.844C391.088 223.288 392.281 222.792 393.162 221.912C394.042 221.032 394.537 219.839 394.539 218.594V-14.8355C394.537 -16.0802 394.042 -17.2732 393.162 -18.1533C392.281 -19.0334 391.088 -19.5289 389.844 -19.5311H223.778Z" fill="#EBEBEB"/>
<path d="M168.827 47.4219H76.7812V142.529H168.827V47.4219Z" fill="#EBEBEB"/>
<path d="M172.046 47.4219H80V142.529H172.046V47.4219Z" fill="#F0F0F0"/>
<path d="M169.61 49.6797H82.3203V140.324H169.61V49.6797Z" fill="#E0E0E0"/>
<path d="M167.426 49.6797H82.3203V140.324H167.426V49.6797Z" fill="#F5F5F5"/>
<path d="M125.752 49.6797H124.023V140.324H125.752V49.6797Z" fill="#EBEBEB"/>
<path d="M114.067 49.6797L89.815 140.315H87.4844L111.736 49.6797H114.067Z" fill="white"/>
<path d="M126.495 48.2656H125.016V142.049H126.495V48.2656Z" fill="#F0F0F0"/>
<path d="M105.265 49.6797L82.3203 135.456V88.3109L92.6489 49.6797H105.265Z" fill="white"/>
<path d="M167.426 57.8906V66.5938L147.698 140.304H145.367L167.426 57.8906Z" fill="white"/>
<path d="M167.425 75.4609V122.615L162.687 140.305H150.07L167.425 75.4609Z" fill="white"/>
<path d="M157.918 254.85H177.156L167.06 172.608C166.816 170.89 165.971 169.314 164.676 168.16C163.38 167.006 161.717 166.349 159.982 166.305H76.1406L88.4214 254.885L157.918 254.85Z" fill="#F5F5F5"/>
<path d="M96.9924 254.852H77.7886L67.6922 172.61C67.5669 171.82 67.6172 171.011 67.8396 170.243C68.0619 169.474 68.4507 168.763 68.9786 168.162C69.5064 167.56 70.1602 167.082 70.8935 166.761C71.6269 166.441 72.4219 166.285 73.222 166.307H79.8182C81.5529 166.35 83.216 167.008 84.5118 168.162C85.8077 169.316 86.6524 170.892 86.896 172.61L96.9924 254.852Z" fill="#F0F0F0"/>
<path d="M104.063 254.761L100.623 214.978C100.547 214.114 100.179 213.301 99.5781 212.676C98.9774 212.05 98.1808 211.648 97.3204 211.538L95.8928 211.357C94.7411 211.209 93.6743 210.672 92.869 209.836C92.0636 208.999 91.5679 207.913 91.4638 206.756L90.836 199.506C90.774 198.804 90.8588 198.096 91.0852 197.428C91.3116 196.76 91.6746 196.146 92.151 195.626C92.6275 195.106 93.207 194.691 93.8527 194.407C94.4983 194.123 95.1961 193.976 95.9014 193.977H63.7804C63.0751 193.976 62.3773 194.123 61.7317 194.407C61.086 194.691 60.5065 195.106 60.03 195.626C59.5536 196.146 59.1906 196.76 58.9642 197.428C58.7378 198.096 58.653 198.804 58.715 199.506L59.3514 206.756C59.4521 207.913 59.9455 209 60.7497 209.837C61.5539 210.674 62.6204 211.21 63.7718 211.357L65.1994 211.538C66.0598 211.648 66.8564 212.05 67.4571 212.676C68.0578 213.301 68.4265 214.114 68.5018 214.978L71.9418 254.761C72.0583 256.167 72.6983 257.477 73.7353 258.433C74.7722 259.388 76.1303 259.92 77.5404 259.921H109.644C108.237 259.915 106.883 259.382 105.85 258.427C104.817 257.472 104.179 256.164 104.063 254.761Z" fill="#E6E6E6"/>
<path d="M192.425 205.018C192.689 202.007 194.072 199.204 196.3 197.162C198.529 195.119 201.442 193.986 204.465 193.984H176.515C173.492 193.986 170.579 195.119 168.35 197.162C166.122 199.204 164.739 202.007 164.475 205.018L161.68 236.58H189.63L192.425 205.018Z" fill="#E6E6E6"/>
<path d="M216.876 193.984H204.466C201.443 193.986 198.531 195.119 196.302 197.162C194.074 199.204 192.691 202.007 192.426 205.018L189.657 236.58H123.093L120.333 205.044C120.07 202.032 118.688 199.228 116.459 197.185C114.23 195.142 111.316 194.01 108.293 194.01H95.8742C95.1688 194.01 94.4711 194.156 93.8254 194.44C93.1797 194.724 92.6002 195.14 92.1238 195.66C91.6473 196.18 91.2844 196.793 91.058 197.461C90.8316 198.129 90.7467 198.837 90.8088 199.54L91.4366 206.79C91.5407 207.946 92.0364 209.033 92.8417 209.869C93.6471 210.706 94.7138 211.243 95.8656 211.391L97.2932 211.571C98.1535 211.682 98.9502 212.083 99.5509 212.709C100.152 213.335 100.52 214.147 100.596 215.011L104.036 254.795C104.152 256.2 104.792 257.511 105.829 258.466C106.866 259.422 108.224 259.953 109.634 259.955H203.082C204.492 259.953 205.85 259.422 206.887 258.466C207.924 257.511 208.564 256.2 208.68 254.795L212.163 215.011C212.237 214.148 212.604 213.336 213.203 212.71C213.802 212.084 214.598 211.682 215.457 211.571L216.885 211.391C218.037 211.244 219.105 210.708 219.91 209.871C220.716 209.034 221.211 207.947 221.314 206.79L221.95 199.54C222.015 198.835 221.932 198.124 221.706 197.453C221.48 196.782 221.117 196.165 220.639 195.642C220.162 195.119 219.581 194.702 218.933 194.416C218.285 194.131 217.584 193.984 216.876 193.984Z" fill="#F0F0F0"/>
<path d="M244.736 259.883H374.312V95.7948L244.736 95.7948L244.736 259.883Z" fill="#F0F0F0"/>
<path d="M249.325 136.867L369.742 136.867V101.779L249.325 101.779V136.867Z" fill="#E0E0E0"/>
<path d="M362.905 136.852H369.742V107.448H362.905V136.852Z" fill="#EBEBEB"/>
<path d="M329.827 136.852H336.664V107.448H329.827V136.852Z" fill="#EBEBEB"/>
<path d="M287.278 135.69L294.016 136.852L299.01 107.875L292.273 106.714L287.278 135.69Z" fill="#EBEBEB"/>
<path d="M354.421 136.852H361.258V111.318H354.421V136.852Z" fill="#EBEBEB"/>
<path d="M338.702 136.852H345.539V111.318H338.702V136.852Z" fill="#EBEBEB"/>
<path d="M299.007 136.852H305.844V111.318H299.007V136.852Z" fill="#EBEBEB"/>
<path d="M315.318 135.368L321.992 136.852L327.532 111.926L320.858 110.443L315.318 135.368Z" fill="#EBEBEB"/>
<path d="M348.499 136.867H351.922V106.002H348.499V136.867Z" fill="#EBEBEB"/>
<path d="M307.796 136.875H311.219V106.01H307.796V136.875Z" fill="#EBEBEB"/>
<path d="M369.73 142.414H249.312V177.502H369.73V142.414Z" fill="#E0E0E0"/>
<path d="M256.15 148.102H249.312V177.505H256.15V148.102Z" fill="#EBEBEB"/>
<path d="M289.235 148.102H282.398V177.505H289.235V148.102Z" fill="#EBEBEB"/>
<path d="M328.3 148.283L321.531 149.445L326.53 178.555L333.298 177.392L328.3 148.283Z" fill="#EBEBEB"/>
<path d="M264.626 151.977H257.789V177.51H264.626V151.977Z" fill="#EBEBEB"/>
<path d="M280.353 151.977H273.516V177.51H280.353V151.977Z" fill="#EBEBEB"/>
<path d="M320.04 151.977H313.203V177.51H320.04V151.977Z" fill="#EBEBEB"/>
<path d="M298.221 151.087L291.547 152.57L297.086 177.496L303.761 176.012L298.221 151.087Z" fill="#EBEBEB"/>
<path d="M270.556 146.633H267.133V177.498H270.556V146.633Z" fill="#EBEBEB"/>
<path d="M311.243 146.633H307.82V177.498H311.243V146.633Z" fill="#EBEBEB"/>
<path d="M362.905 177.508H369.742V148.104H362.905V177.508Z" fill="#EBEBEB"/>
<path d="M354.421 177.508H361.258V151.974H354.421V177.508Z" fill="#EBEBEB"/>
<path d="M338.702 177.508H345.539V151.974H338.702V177.508Z" fill="#EBEBEB"/>
<path d="M348.499 177.508H351.922V146.642H348.499V177.508Z" fill="#EBEBEB"/>
<path d="M249.325 218.148L369.742 218.148V183.06H249.325V218.148Z" fill="#E0E0E0"/>
<path d="M293.788 218.148H300.625V188.745H293.788V218.148Z" fill="#EBEBEB"/>
<path d="M251.239 216.979L257.977 218.141L262.971 189.165L256.234 188.003L251.239 216.979Z" fill="#EBEBEB"/>
<path d="M318.382 218.148H325.219V192.615H318.382V218.148Z" fill="#EBEBEB"/>
<path d="M302.655 218.148H309.492V192.615H302.655V218.148Z" fill="#EBEBEB"/>
<path d="M262.968 218.148H269.805V192.615H262.968V218.148Z" fill="#EBEBEB"/>
<path d="M279.279 216.657L285.953 218.141L291.493 193.215L284.818 191.732L279.279 216.657Z" fill="#EBEBEB"/>
<path d="M312.468 218.148H315.891V187.283H312.468V218.148Z" fill="#EBEBEB"/>
<path d="M271.78 218.148H275.203V187.283H271.78V218.148Z" fill="#EBEBEB"/>
<path d="M329.934 216.979L336.672 218.141L341.667 189.165L334.929 188.003L329.934 216.979Z" fill="#EBEBEB"/>
<path d="M341.671 218.148H348.508V192.615H341.671V218.148Z" fill="#EBEBEB"/>
<path d="M357.974 216.65L364.648 218.133L370.188 193.208L363.514 191.724L357.974 216.65Z" fill="#EBEBEB"/>
<path d="M350.476 218.148H353.898V187.283H350.476V218.148Z" fill="#EBEBEB"/>
<path d="M354.421 95.8014V93.3676H350.474C352.915 85.9077 353.415 77.949 351.927 70.2422C351.927 70.2422 351.979 80.3386 348.074 80.4074C342.115 80.5192 341.667 70.2422 341.667 70.2422C341.667 70.2422 340.231 84.9482 345.58 93.3676H341.495V95.8014H354.421Z" fill="#E0E0E0"/>
<path d="M343.328 76.9712C343.328 77.6516 343.53 78.3167 343.908 78.8824C344.286 79.4481 344.823 79.889 345.452 80.1494C346.08 80.4098 346.772 80.4779 347.439 80.3452C348.107 80.2124 348.719 79.8848 349.201 79.4037C349.682 78.9226 350.009 78.3097 350.142 77.6424C350.275 76.9751 350.207 76.2834 349.946 75.6548C349.686 75.0262 349.245 74.489 348.679 74.111C348.114 73.733 347.448 73.5312 346.768 73.5312C345.856 73.5312 344.981 73.8937 344.336 74.5388C343.691 75.1839 343.328 76.0589 343.328 76.9712Z" fill="#E0E0E0"/>
<path d="M327.962 95.7942V94.3751L323.791 92.4315L325.881 90.4019L320.721 72.0839V83.4961C320.721 83.4961 321.435 83.4962 321.435 85.1388C321.435 86.7814 319.07 86.403 319.07 85.0442C319.07 83.6854 319.844 83.4961 319.844 83.4961V71.5938L315.097 89.7226L317.23 92.4315L312.93 94.3751V95.7942H327.962Z" fill="#E0E0E0"/>
<path d="M302.426 95.7936V94.667L298.59 93.7898V76.9768L295.296 72.3672L292.484 75.9792V83.6934L291.031 81.6724L288.992 80.8984L287.539 84.0804L290.644 93.7898L287.539 94.667V95.7936H302.426Z" fill="#E0E0E0"/>
<path d="M276.942 96.3096L272.229 72.3672H257.798L261.221 85.9466L256.164 95.7936L276.942 96.3096Z" fill="#E0E0E0"/>
<path d="M319.539 54.2236C330.426 51.6542 337.168 40.7462 334.599 29.8599C332.029 18.9736 321.121 12.2314 310.235 14.8008C299.349 17.3702 292.606 28.2782 295.176 39.1645C297.745 50.0508 308.653 56.793 319.539 54.2236Z" fill="#E0E0E0"/>
<path d="M317.656 51.4887C327.047 49.9644 333.424 41.116 331.899 31.7254C330.375 22.3348 321.527 15.9579 312.136 17.4822C302.745 19.0065 296.369 27.8548 297.893 37.2454C299.417 46.6361 308.265 53.013 317.656 51.4887Z" fill="#F0F0F0"/>
<path d="M315.695 22.6875V34.7275L323.676 30.2125" fill="#F0F0F0"/>
<path d="M315.696 35.5803C315.545 35.5814 315.397 35.5428 315.266 35.4685C315.135 35.3927 315.026 35.2836 314.95 35.1522C314.875 35.0209 314.835 34.8719 314.836 34.7203V22.6803C314.836 22.4522 314.927 22.2335 315.088 22.0722C315.249 21.9109 315.468 21.8203 315.696 21.8203C315.924 21.8203 316.143 21.9109 316.304 22.0722C316.465 22.2335 316.556 22.4522 316.556 22.6803V33.2497L323.255 29.4571C323.354 29.4006 323.462 29.3641 323.574 29.3495C323.687 29.3349 323.801 29.3427 323.91 29.3722C324.02 29.4017 324.122 29.4526 324.212 29.5217C324.302 29.5909 324.377 29.6771 324.434 29.7753C324.49 29.8736 324.527 29.982 324.541 30.0944C324.556 30.2068 324.548 30.3209 324.518 30.4303C324.489 30.5397 324.438 30.6422 324.369 30.732C324.3 30.8218 324.214 30.897 324.115 30.9535L316.135 35.4685C316.001 35.5443 315.85 35.5829 315.696 35.5803Z" fill="#E0E0E0"/>
<path d="M214.995 300.697C307.086 300.697 381.741 296.338 381.741 290.962C381.741 285.585 307.086 281.227 214.995 281.227C122.904 281.227 48.25 285.585 48.25 290.962C48.25 296.338 122.904 300.697 214.995 300.697Z" fill="#F5F5F5"/>
<path d="M86.8614 260.584C86.7715 260.573 86.6895 260.527 86.6332 260.456C86.5769 260.385 86.5507 260.295 86.5604 260.205C86.5604 260.145 86.612 259.483 86.6636 258.339C86.7582 256.619 86.8958 253.05 86.8442 248.26C86.8485 248.191 86.8485 248.122 86.8442 248.053C86.7754 242.704 86.4916 237.441 85.9842 232.393C85.5198 227.689 84.8576 223.122 84.0148 218.822C83.2913 215.119 82.3756 211.456 81.2714 207.848C81.108 207.315 80.936 206.791 80.764 206.257C80.592 205.724 80.4716 205.397 80.3168 204.959C79.9298 203.832 79.5686 202.757 79.259 201.759C78.571 199.566 77.969 197.374 77.453 195.249C77.1434 193.968 76.8682 192.712 76.593 191.508C75.683 186.954 75.1623 182.331 75.0364 177.688C74.9848 175.856 75.0364 174.033 75.1138 172.27C75.2126 170.412 75.4107 168.56 75.7072 166.723C75.7072 166.594 75.7072 166.474 75.7674 166.362V166.19C75.7729 166.104 75.8061 166.023 75.862 165.958C75.9263 165.895 76.0128 165.859 76.1028 165.859C76.1928 165.859 76.2793 165.895 76.3436 165.958C76.3857 166.002 76.4164 166.055 76.4329 166.114C76.4494 166.172 76.4512 166.234 76.4382 166.293V166.474C76.4382 166.594 76.4382 166.723 76.378 166.852C76.0843 168.66 75.8891 170.484 75.7932 172.313C75.69 174.033 75.6642 175.873 75.7158 177.679C75.8389 182.285 76.3568 186.871 77.2638 191.388C77.4874 192.583 77.7626 193.83 78.0722 195.094C78.5796 197.21 79.1816 199.394 79.8696 201.57C80.1706 202.559 80.5232 203.626 80.9188 204.744C81.0736 205.182 81.2198 205.604 81.366 206.051C81.5122 206.498 81.71 207.117 81.8734 207.651C82.9863 211.283 83.9078 214.972 84.634 218.702C85.494 223.002 86.1476 227.62 86.612 232.35C87.1194 237.407 87.4032 242.67 87.472 248.053V248.294C87.5236 253.084 87.3774 256.679 87.2914 258.391C87.2398 259.552 87.1968 260.248 87.1882 260.308C87.1713 260.384 87.1303 260.451 87.0712 260.501C87.0122 260.551 86.9385 260.58 86.8614 260.584Z" fill="#6553DF"/>
<path d="M76.1328 166.271C76.7014 165.722 77.3303 165.241 78.0076 164.834C78.7468 164.4 79.5388 164.061 80.364 163.828" fill="#6553DF"/>
<path d="M76.1286 166.604C76.0836 166.617 76.0359 166.617 75.991 166.604C75.9503 166.587 75.9135 166.562 75.8827 166.531C75.8518 166.499 75.8277 166.462 75.8116 166.421C75.7956 166.38 75.7879 166.336 75.7892 166.292C75.7905 166.248 75.8006 166.205 75.819 166.165C75.8313 166.125 75.8552 166.089 75.8878 166.062C76.4689 165.494 77.1156 164.997 77.8142 164.583C78.5917 164.108 79.427 163.735 80.2996 163.473C80.3851 163.449 80.4766 163.46 80.554 163.504C80.6314 163.548 80.6883 163.62 80.7124 163.705C80.7364 163.792 80.7256 163.885 80.6822 163.963C80.6388 164.042 80.5663 164.101 80.4802 164.127C79.6784 164.353 78.9094 164.683 78.1926 165.107C77.5428 165.499 76.9373 165.961 76.3866 166.483C76.3543 166.52 76.3147 166.55 76.2703 166.571C76.2259 166.591 76.1776 166.603 76.1286 166.604Z" fill="#6553DF"/>
<path d="M75.4508 172.579C75.3717 172.582 75.2945 172.555 75.2358 172.501L72.9568 170.609C72.8884 170.552 72.8454 170.471 72.8373 170.382C72.8293 170.293 72.8568 170.205 72.9138 170.136C72.9708 170.068 73.0527 170.025 73.1414 170.017C73.2301 170.009 73.3184 170.036 73.3868 170.093L75.6744 171.985C75.7369 172.048 75.772 172.133 75.772 172.222C75.772 172.311 75.7369 172.396 75.6744 172.458C75.647 172.492 75.6132 172.521 75.5748 172.541C75.5364 172.562 75.4942 172.575 75.4508 172.579Z" fill="#6553DF"/>
<path d="M79.5541 201.993C79.4644 201.986 79.3802 201.947 79.3182 201.881C79.2561 201.816 79.2207 201.73 79.2188 201.64C79.4337 200.117 80.0248 198.672 80.9387 197.435C81.3369 196.891 81.7956 196.395 82.3061 195.956C82.3746 195.897 82.4633 195.869 82.5528 195.876C82.6423 195.883 82.7253 195.926 82.7834 195.994C82.8416 196.063 82.8702 196.151 82.8629 196.241C82.8557 196.33 82.8132 196.413 82.7447 196.472C82.2711 196.889 81.847 197.359 81.4805 197.873C80.9871 198.54 80.5958 199.276 80.3195 200.058C80.1171 200.591 79.9729 201.145 79.8895 201.709C79.8907 201.752 79.8833 201.794 79.8678 201.833C79.8524 201.873 79.8291 201.909 79.7994 201.94C79.7698 201.97 79.7343 201.994 79.6951 202.011C79.656 202.027 79.6139 202.036 79.5713 202.036L79.5541 201.993Z" fill="#6553DF"/>
<path d="M81.5672 208.069C81.5012 208.068 81.437 208.048 81.3821 208.012C81.3272 207.975 81.284 207.923 81.2576 207.863C80.9343 207.149 80.4673 206.509 79.8858 205.984C79.3043 205.459 78.6207 205.059 77.8778 204.81C77.7942 204.779 77.7256 204.717 77.6857 204.637C77.6458 204.557 77.6376 204.465 77.6628 204.38C77.6922 204.295 77.7537 204.225 77.834 204.185C77.9144 204.145 78.0073 204.137 78.0928 204.165C78.9259 204.448 79.6919 204.899 80.3429 205.491C80.9939 206.083 81.5161 206.802 81.8768 207.605C81.8953 207.645 81.9056 207.689 81.907 207.734C81.9083 207.778 81.9008 207.823 81.8848 207.865C81.8687 207.906 81.8446 207.944 81.8137 207.976C81.7828 208.009 81.7458 208.034 81.7048 208.052C81.6615 208.071 81.6138 208.077 81.5672 208.069Z" fill="#6553DF"/>
<path d="M86.7382 238.297C85.9642 237.437 85.259 234.092 84.8806 232.277C84.786 231.847 84.7172 231.478 84.6484 231.211" fill="#6553DF"/>
<path d="M86.7458 238.588C86.6972 238.59 86.649 238.58 86.6045 238.561C86.5599 238.542 86.5201 238.513 86.4878 238.477C85.7224 237.617 85.086 234.847 84.5528 232.319C84.4668 231.889 84.3894 231.528 84.3292 231.261C84.3228 231.179 84.346 231.098 84.3945 231.031C84.4431 230.965 84.5138 230.918 84.5938 230.9C84.6739 230.881 84.758 230.892 84.8309 230.929C84.9038 230.967 84.9607 231.03 84.9914 231.106C85.0516 231.373 85.129 231.743 85.2236 232.173C85.5676 233.815 86.2814 237.238 86.9952 238.021C87.0582 238.085 87.0935 238.172 87.0935 238.262C87.0935 238.352 87.0582 238.438 86.9952 238.502C86.9622 238.534 86.9228 238.558 86.8798 238.573C86.8368 238.587 86.7911 238.593 86.7458 238.588Z" fill="#6553DF"/>
<path d="M77.7508 195.495C77.6661 195.495 77.5845 195.464 77.5223 195.406C77.4601 195.349 77.4219 195.27 77.4154 195.185C77.3982 194.635 76.5382 181.537 83.7192 176.377C83.7916 176.325 83.8814 176.303 83.9696 176.316C84.0578 176.329 84.1376 176.376 84.1922 176.446C84.2186 176.482 84.2376 176.523 84.248 176.566C84.2585 176.61 84.2601 176.655 84.2529 176.699C84.2457 176.743 84.2298 176.785 84.2061 176.823C84.1823 176.861 84.1513 176.893 84.1148 176.919C77.2348 181.924 78.0948 195.039 78.0948 195.168C78.0983 195.213 78.0928 195.258 78.0786 195.301C78.0644 195.343 78.0418 195.382 78.0121 195.416C77.9824 195.45 77.9463 195.477 77.9058 195.497C77.8654 195.516 77.8214 195.527 77.7766 195.529L77.7508 195.495Z" fill="#6553DF"/>
<path d="M78.3543 223.924C77.4943 227.089 84.5119 232.739 84.5119 232.739C84.5119 232.739 93.3699 231.234 94.1955 228.069C95.0211 224.905 92.5443 219.899 88.1755 218.756C83.8067 217.612 79.1799 220.759 78.3543 223.924Z" fill="#6553DF"/>
<path d="M69.2341 186.361C70.2317 189.638 76.7075 191.719 76.7075 191.719C76.7075 191.719 80.9215 186.379 79.9239 183.119C78.9263 179.86 75.2369 176.342 72.2871 177.245C69.3373 178.148 68.2365 183.085 69.2341 186.361Z" fill="#6553DF"/>
<path d="M86.49 196.244C85.7103 196.958 84.8068 197.523 83.824 197.913C83.3282 198.098 82.7911 198.143 82.2711 198.045C81.7511 197.946 81.268 197.707 80.8742 197.354C79.9712 196.399 80.1346 194.868 80.6248 193.656C81.588 191.248 85.3548 187.085 88.4336 188.092C92.8798 189.562 88.3734 194.714 86.49 196.244Z" fill="#6553DF"/>
<path d="M77.8083 202.643C78.4103 203.322 79.0639 204.199 78.7801 205.068C78.6187 205.441 78.3372 205.75 77.9804 205.944C77.6236 206.139 77.2119 206.209 76.8107 206.143C76.0114 205.991 75.2562 205.662 74.6005 205.18C73.0181 204.174 69.7501 202.067 71.6765 199.874C73.6029 197.681 76.5441 201.198 77.8083 202.643Z" fill="#6553DF"/>
<path d="M89.4383 172.147C89.7727 172.151 90.0973 172.26 90.3659 172.459C90.6345 172.659 90.8335 172.937 90.9347 173.256C91.0981 174.013 90.4961 174.718 89.9027 175.217C88.4149 176.464 83.9515 179.852 82.7905 176.825C81.6467 173.961 87.3571 172.018 89.4383 172.147Z" fill="#6553DF"/>
<path d="M80.4663 162.405C81.4209 162.448 82.3497 162.069 83.3043 162.087C84.2589 162.104 85.3511 162.826 85.1791 163.763C85.0071 164.701 83.9665 164.967 83.0893 165.062C81.5886 165.218 80.074 165.181 78.5829 164.95C78.2318 164.93 77.9008 164.78 77.6541 164.529C77.2413 163.979 77.8175 163.187 78.5141 162.955C79.1898 162.845 79.8506 162.657 80.4835 162.396L80.4663 162.405Z" fill="#6553DF"/>
<path d="M71.4667 169.354C70.5207 169.423 69.5747 169.062 68.6201 169.096C67.6655 169.13 66.5905 169.879 66.7797 170.816C66.9689 171.753 68.0267 171.994 68.9039 172.072C70.4061 172.198 71.9184 172.126 73.4017 171.857C73.7558 171.834 74.088 171.677 74.3305 171.418C74.7261 170.859 74.1327 170.085 73.4705 169.87C72.7915 169.771 72.1254 169.598 71.4839 169.354H71.4667Z" fill="#6553DF"/>
<path d="M75.8574 167.537C75.7692 167.528 75.6878 167.486 75.6301 167.419C75.5724 167.351 75.5429 167.264 75.5478 167.176C75.6768 165.318 75.479 163.538 75.1264 163.435C75.0774 163.428 75.0303 163.411 74.9885 163.385C74.9467 163.358 74.911 163.323 74.884 163.282C74.857 163.24 74.8392 163.194 74.8319 163.145C74.8246 163.096 74.8279 163.046 74.8417 162.998C74.8554 162.951 74.8793 162.907 74.9116 162.869C74.9439 162.832 74.9839 162.802 75.0289 162.781C75.0739 162.761 75.1228 162.75 75.1723 162.75C75.2217 162.75 75.2706 162.761 75.3156 162.781C76.3906 163.091 76.3046 165.989 76.1756 167.219C76.1714 167.302 76.1366 167.381 76.0778 167.439C76.019 167.498 75.9404 167.533 75.8574 167.537Z" fill="#6553DF"/>
<path d="M76.4888 163.175C75.9646 161.853 75.105 160.691 73.9948 159.803C72.8166 159.021 70.9762 159.038 70.1936 160.216C69.3336 161.541 70.3312 163.441 71.7932 164.06C73.2552 164.68 74.915 164.404 76.4716 164.112C76.4716 163.88 76.4716 163.648 76.4716 163.415L76.4888 163.175Z" fill="#6553DF"/>
<path d="M87.9184 272.007H87.8582C87.7696 271.991 87.6912 271.94 87.6397 271.866C87.5883 271.792 87.5679 271.701 87.583 271.612C89.8534 259.486 96.7506 254.197 96.828 254.145C96.8998 254.092 96.99 254.069 97.0787 254.082C97.1674 254.095 97.2474 254.142 97.301 254.214C97.3546 254.286 97.3774 254.376 97.3645 254.465C97.3516 254.553 97.304 254.633 97.2322 254.687C97.1634 254.739 90.4726 259.89 88.2538 271.732C88.238 271.81 88.196 271.879 88.1349 271.929C88.0739 271.979 87.9974 272.007 87.9184 272.007Z" fill="#6553DF"/>
<path d="M95.054 256.665C94.973 256.669 94.8934 256.643 94.8299 256.593C94.7664 256.542 94.7234 256.471 94.7087 256.391C94.694 256.311 94.7087 256.229 94.75 256.159C94.7914 256.089 94.8566 256.037 94.9336 256.012C96.0955 255.682 97.3199 255.637 98.5026 255.883C98.5807 255.908 98.647 255.961 98.6896 256.031C98.7321 256.102 98.7481 256.185 98.7346 256.266C98.7211 256.347 98.679 256.421 98.6159 256.473C98.5528 256.526 98.473 256.554 98.3908 256.553C97.3262 256.33 96.224 256.363 95.1744 256.648C95.1359 256.662 95.0949 256.668 95.054 256.665Z" fill="#6553DF"/>
<path d="M93.521 258.57C93.4335 258.57 93.3495 258.536 93.2868 258.475C93.2242 258.414 93.1879 258.331 93.1856 258.243C93.1017 255.282 93.9107 252.363 95.5076 249.867C95.5326 249.83 95.5648 249.798 95.6023 249.774C95.6398 249.749 95.6819 249.732 95.726 249.724C95.7701 249.716 95.8153 249.717 95.859 249.727C95.9028 249.737 95.9441 249.755 95.9806 249.781C96.0539 249.833 96.1039 249.912 96.12 250C96.136 250.088 96.1169 250.18 96.0666 250.254C94.5674 252.632 93.8016 255.399 93.865 258.209C93.8673 258.254 93.8607 258.299 93.8455 258.342C93.8304 258.385 93.8069 258.424 93.7766 258.457C93.7462 258.491 93.7095 258.518 93.6686 258.538C93.6277 258.557 93.5834 258.568 93.5382 258.57H93.521Z" fill="#6553DF"/>
<path d="M91.0883 262.528C91.0016 262.528 90.9184 262.494 90.8561 262.434C90.7931 262.369 90.7578 262.283 90.7578 262.193C90.7578 262.103 90.7931 262.016 90.8561 261.952C91.4659 261.363 92.2212 260.947 93.0448 260.746C93.8684 260.545 94.7306 260.566 95.5431 260.808C95.6277 260.836 95.6982 260.895 95.7399 260.974C95.7815 261.052 95.7912 261.144 95.7667 261.23C95.754 261.272 95.7329 261.312 95.7048 261.346C95.6766 261.38 95.6419 261.409 95.6027 261.429C95.5635 261.45 95.5206 261.463 95.4764 261.467C95.4322 261.471 95.3877 261.467 95.3453 261.453C94.6503 261.255 93.9158 261.24 93.2134 261.411C92.5109 261.581 91.8647 261.93 91.3377 262.425C91.3059 262.459 91.2672 262.486 91.2242 262.504C91.1812 262.521 91.1349 262.53 91.0883 262.528Z" fill="#6553DF"/>
<path d="M89.8529 265.273C89.7888 265.273 89.7259 265.256 89.6712 265.222C89.6165 265.189 89.5722 265.141 89.5433 265.083C88.8062 263.264 88.5572 261.284 88.8209 259.339C88.8398 259.255 88.889 259.182 88.959 259.133C89.0291 259.084 89.1149 259.062 89.1997 259.073C89.2845 259.084 89.3623 259.126 89.4179 259.191C89.4735 259.256 89.5029 259.339 89.5003 259.425C89.2579 261.24 89.4829 263.087 90.1539 264.791C90.1787 264.842 90.1901 264.899 90.187 264.955C90.184 265.012 90.1666 265.067 90.1365 265.115C90.1064 265.163 90.0646 265.203 90.0151 265.23C89.9655 265.258 89.9097 265.272 89.8529 265.273Z" fill="#6553DF"/>
<path d="M88.5785 268.014C88.5785 268.065 88.3291 268.323 89.3009 268.392C91.6917 268.547 95.9057 268.495 97.4365 266.466C99.6123 263.576 94.4007 263.714 94.8565 262.097C95.3123 260.48 100.962 261.951 101.994 259.655C103.026 257.358 98.9501 257.711 99.1049 256.524C99.2597 255.337 103.585 256.989 104.927 254.555C106.269 252.121 102.562 253.351 103.138 252.345C103.714 251.338 108.298 247.185 106.389 246.213C104.48 245.241 100.102 249.541 98.6491 249.98C97.1957 250.418 96.7227 246.058 94.8307 247.46C92.9387 248.862 94.4007 255.475 92.1733 256.232C90.5049 256.799 91.3133 254.469 89.2837 254.512C86.5059 254.555 85.8523 263.748 88.5785 268.014Z" fill="#6553DF"/>
<g opacity="0.3">
<path d="M88.5785 268.014C88.5785 268.065 88.3291 268.323 89.3009 268.392C91.6917 268.547 95.9057 268.495 97.4365 266.466C99.6123 263.576 94.4007 263.714 94.8565 262.097C95.3123 260.48 100.962 261.951 101.994 259.655C103.026 257.358 98.9501 257.711 99.1049 256.524C99.2597 255.337 103.585 256.989 104.927 254.555C106.269 252.121 102.562 253.351 103.138 252.345C103.714 251.338 108.298 247.185 106.389 246.213C104.48 245.241 100.102 249.541 98.6491 249.98C97.1957 250.418 96.7227 246.058 94.8307 247.46C92.9387 248.862 94.4007 255.475 92.1733 256.232C90.5049 256.799 91.3133 254.469 89.2837 254.512C86.5059 254.555 85.8523 263.748 88.5785 268.014Z" fill="white"/>
</g>
<path d="M87.6601 272.31C87.5845 272.31 87.5111 272.284 87.4518 272.237C87.3925 272.191 87.3507 272.125 87.3333 272.052C85.6027 265.804 82.2637 260.119 77.6497 255.565C77.6092 255.538 77.5752 255.502 77.5498 255.46C77.5244 255.418 77.5083 255.371 77.5024 255.322C77.4966 255.274 77.5012 255.224 77.516 255.178C77.5308 255.131 77.5554 255.088 77.5881 255.052C77.6208 255.015 77.661 254.986 77.7058 254.966C77.7507 254.947 77.7992 254.937 77.8482 254.938C77.8972 254.938 77.9455 254.949 77.9898 254.97C78.0342 254.991 78.0736 255.021 78.1055 255.058C82.8129 259.705 86.22 265.505 87.9868 271.88C87.9985 271.922 88.0015 271.967 87.9956 272.011C87.9898 272.055 87.9753 272.098 87.9529 272.136C87.9305 272.175 87.9006 272.208 87.8651 272.235C87.8296 272.262 87.7891 272.281 87.746 272.292L87.6601 272.31Z" fill="#6553DF"/>
<path d="M81.7483 260.44H81.7053H81.6279C80.4437 260.002 79.1821 259.812 77.9213 259.881C77.8324 259.881 77.7471 259.846 77.6842 259.783C77.6213 259.72 77.5859 259.635 77.5859 259.546C77.5859 259.457 77.6213 259.372 77.6842 259.309C77.7471 259.246 77.8324 259.211 77.9213 259.211C79.2751 259.136 80.63 259.338 81.9031 259.804C81.9858 259.822 82.0585 259.871 82.1067 259.94C82.1549 260.01 82.175 260.095 82.163 260.179C82.1511 260.263 82.1079 260.339 82.0422 260.392C81.9764 260.445 81.893 260.472 81.8085 260.466L81.7483 260.44Z" fill="#6553DF"/>
<path d="M83.1043 262.1C83.0595 262.099 83.0153 262.089 82.9745 262.071C82.9336 262.052 82.8969 262.026 82.8664 261.993C82.836 261.96 82.8124 261.921 82.7971 261.879C82.7818 261.837 82.7752 261.792 82.7775 261.747C82.8348 259.28 82.1616 256.85 80.8425 254.764C80.8171 254.728 80.799 254.687 80.7894 254.644C80.7797 254.601 80.7787 254.557 80.7862 254.513C80.7938 254.47 80.8099 254.428 80.8336 254.391C80.8573 254.353 80.888 254.321 80.9242 254.296C80.9603 254.27 81.0011 254.252 81.0442 254.242C81.0873 254.233 81.1319 254.232 81.1754 254.239C81.219 254.247 81.2606 254.263 81.2979 254.287C81.3352 254.31 81.3675 254.341 81.3929 254.377C82.8052 256.582 83.5131 259.165 83.4225 261.782C83.4183 261.865 83.3835 261.943 83.3247 262.002C83.2659 262.061 83.1873 262.096 83.1043 262.1Z" fill="#6553DF"/>
<path d="M84.5272 264.324C84.4407 264.323 84.3577 264.289 84.295 264.229C83.816 263.827 83.2437 263.552 82.6306 263.429C82.0175 263.306 81.3833 263.338 80.7862 263.524C80.7439 263.537 80.6993 263.542 80.6551 263.538C80.6109 263.534 80.568 263.521 80.5288 263.5C80.4896 263.48 80.4549 263.451 80.4268 263.417C80.3986 263.383 80.3776 263.343 80.3648 263.301C80.3404 263.215 80.35 263.123 80.3917 263.045C80.4334 262.966 80.5039 262.907 80.5884 262.879C81.2995 262.657 82.0554 262.62 82.785 262.77C83.5147 262.921 84.1941 263.254 84.7594 263.739C84.8104 263.785 84.8461 263.845 84.8618 263.912C84.8774 263.979 84.8723 264.049 84.847 264.113C84.8217 264.176 84.7775 264.231 84.7203 264.268C84.6631 264.306 84.5957 264.326 84.5272 264.324Z" fill="#6553DF"/>
<path d="M86.3648 267.996C86.3169 268.009 86.2665 268.009 86.2186 267.996C86.1784 267.978 86.1423 267.951 86.1123 267.919C86.0823 267.886 86.059 267.848 86.0438 267.807C86.0286 267.765 86.0218 267.721 86.0238 267.677C86.0257 267.632 86.0364 267.589 86.0552 267.549C86.6419 266.046 86.8372 264.418 86.6228 262.819C86.6131 262.729 86.6393 262.639 86.6956 262.568C86.752 262.497 86.834 262.451 86.9238 262.441C86.9679 262.435 87.0128 262.437 87.0558 262.449C87.0988 262.46 87.1391 262.48 87.1743 262.508C87.2095 262.535 87.239 262.569 87.2609 262.607C87.2829 262.646 87.2969 262.689 87.3022 262.733C87.5432 264.459 87.3237 266.219 86.6658 267.833C86.6365 267.886 86.5925 267.929 86.5392 267.958C86.4858 267.987 86.4254 268 86.3648 267.996Z" fill="#6553DF"/>
<path d="M87.4727 270.586C85.6323 270.707 82.4073 269.133 81.0915 267.516C79.7757 265.899 83.3447 266.776 82.9233 265.461C82.5019 264.145 78.1847 265.323 77.2989 263.457C76.4131 261.591 79.5779 261.892 79.4059 260.92C79.2339 259.948 75.9659 260.292 74.8565 258.34C73.7471 256.388 76.6367 257.377 76.1551 256.551C75.6735 255.725 71.9239 252.363 73.3945 251.563C74.8651 250.763 78.3911 254.289 79.5349 254.65C80.6787 255.012 80.8335 252.457 82.3471 253.61C83.8607 254.762 83.0007 260.111 84.7637 260.739C86.0709 261.204 85.4173 258.796 86.9223 259.346C89.5625 260.283 88.2209 270.543 87.4727 270.586Z" fill="#6553DF"/>
<g opacity="0.2">
<path d="M87.4727 270.586C85.6323 270.707 82.4073 269.133 81.0915 267.516C79.7757 265.899 83.3447 266.776 82.9233 265.461C82.5019 264.145 78.1847 265.323 77.2989 263.457C76.4131 261.591 79.5779 261.892 79.4059 260.92C79.2339 259.948 75.9659 260.292 74.8565 258.34C73.7471 256.388 76.6367 257.377 76.1551 256.551C75.6735 255.725 71.9239 252.363 73.3945 251.563C74.8651 250.763 78.3911 254.289 79.5349 254.65C80.6787 255.012 80.8335 252.457 82.3471 253.61C83.8607 254.762 83.0007 260.111 84.7637 260.739C86.0709 261.204 85.4173 258.796 86.9223 259.346C89.5625 260.283 88.2209 270.543 87.4727 270.586Z" fill="white"/>
</g>
<path d="M102.203 274.176C102.203 283.111 106.15 290.361 86.0176 290.361C68.1296 290.361 69.841 283.111 69.841 274.176C69.841 265.24 77.0822 262.703 86.0176 262.703C94.953 262.703 102.203 265.232 102.203 274.176Z" fill="#263238"/>
<path d="M103.96 262.523H68.1328V271.39H103.96V262.523Z" fill="#263238"/>
<path opacity="0.2" d="M103.96 262.523H68.1328V271.39H103.96V262.523Z" fill="white"/>
<path d="M234.16 287.693C234.231 289.298 233.937 290.897 233.3 292.372H196.32V291.512H197.069V283.883H196.32V283.023H233.3C233.926 284.498 234.22 286.092 234.16 287.693Z" fill="#263238"/>
<path opacity="0.2" d="M234.16 287.693C234.231 289.298 233.937 290.897 233.3 292.372H196.32V291.512H197.069V283.883H196.32V283.023H233.3C233.926 284.498 234.22 286.092 234.16 287.693Z" fill="white"/>
<path opacity="0.2" d="M214.38 287.693C214.451 289.298 214.157 290.897 213.52 292.372H196.32V291.512H197.069V283.883H196.32V283.023H213.52C214.146 284.498 214.44 286.092 214.38 287.693Z" fill="black"/>
<path opacity="0.8" d="M212.558 287.693C212.616 288.996 212.377 290.295 211.862 291.494H197.078V283.883H211.862C212.371 285.086 212.608 286.387 212.558 287.693Z" fill="white"/>
<path opacity="0.6" d="M228.138 287.687C228.209 289.291 227.915 290.891 227.278 292.365H220.398C221.035 290.891 221.329 289.291 221.258 287.687C221.32 286.08 221.027 284.48 220.398 283H227.278C227.907 284.48 228.2 286.08 228.138 287.687Z" fill="white"/>
<path d="M237.457 278.324C237.528 279.929 237.234 281.528 236.597 283.003H199.617V282.143H200.383V274.532H199.634V273.672H236.614C237.232 275.143 237.519 276.731 237.457 278.324Z" fill="#6553DF"/>
<path opacity="0.2" d="M217.677 278.324C217.748 279.929 217.454 281.528 216.817 283.003H199.617V282.143H200.383V274.532H199.634V273.672H216.834C217.452 275.143 217.739 276.731 217.677 278.324Z" fill="black"/>
<path opacity="0.8" d="M215.863 278.333C215.92 279.637 215.682 280.936 215.166 282.134H200.383V274.523H215.166C215.675 275.727 215.913 277.028 215.863 278.333Z" fill="white"/>
<path opacity="0.2" d="M231.428 278.328C231.498 279.932 231.204 281.532 230.568 283.006H223.688C224.324 281.532 224.618 279.932 224.548 278.328C224.609 276.721 224.316 275.121 223.688 273.641H230.568C231.196 275.121 231.489 276.721 231.428 278.328Z" fill="black"/>
<path d="M289.435 88.6595V216.103C289.435 216.41 289.375 216.714 289.257 216.998C289.14 217.282 288.967 217.54 288.75 217.757C288.533 217.974 288.275 218.147 287.991 218.264C287.707 218.382 287.403 218.442 287.096 218.442H102.394C102.087 218.442 101.783 218.382 101.499 218.264C101.215 218.147 100.957 217.974 100.74 217.757C100.523 217.54 100.35 217.282 100.233 216.998C100.115 216.714 100.055 216.41 100.055 216.103V88.6595C100.055 88.0391 100.301 87.4441 100.74 87.0055C101.179 86.5668 101.773 86.3203 102.394 86.3203H287.096C287.716 86.3203 288.311 86.5668 288.75 87.0055C289.189 87.4441 289.435 88.0391 289.435 88.6595Z" fill="#6553DF"/>
<path opacity="0.4" d="M289.435 94.2266V216.106C289.435 216.413 289.375 216.717 289.257 217.001C289.14 217.285 288.967 217.543 288.75 217.76C288.533 217.977 288.275 218.149 287.991 218.267C287.707 218.384 287.403 218.445 287.096 218.445H102.394C102.087 218.445 101.783 218.384 101.499 218.267C101.215 218.149 100.957 217.977 100.74 217.76C100.523 217.543 100.35 217.285 100.233 217.001C100.115 216.717 100.055 216.413 100.055 216.106V94.2266H289.435Z" fill="white"/>
<path opacity="0.2" d="M289.435 210.914V216.074C289.435 216.381 289.375 216.685 289.257 216.969C289.14 217.253 288.967 217.511 288.75 217.728C288.533 217.945 288.275 218.118 287.991 218.235C287.707 218.353 287.403 218.413 287.096 218.413H102.394C102.087 218.413 101.783 218.353 101.499 218.235C101.215 218.118 100.957 217.945 100.74 217.728C100.523 217.511 100.35 217.253 100.233 216.969C100.115 216.685 100.055 216.381 100.055 216.074V210.914H289.435Z" fill="black"/>
<path opacity="0.4" d="M284.75 92.0852C285.643 92.0852 286.366 91.3613 286.366 90.4684C286.366 89.5754 285.643 88.8516 284.75 88.8516C283.857 88.8516 283.133 89.5754 283.133 90.4684C283.133 91.3613 283.857 92.0852 284.75 92.0852Z" fill="white"/>
<path opacity="0.4" d="M278.625 92.0852C279.518 92.0852 280.241 91.3613 280.241 90.4684C280.241 89.5754 279.518 88.8516 278.625 88.8516C277.732 88.8516 277.008 89.5754 277.008 90.4684C277.008 91.3613 277.732 92.0852 278.625 92.0852Z" fill="white"/>
<path opacity="0.4" d="M274.124 90.4684C274.124 90.7881 274.029 91.1007 273.852 91.3666C273.674 91.6325 273.422 91.8397 273.126 91.9621C272.831 92.0845 272.506 92.1165 272.192 92.0541C271.878 91.9917 271.59 91.8377 271.364 91.6116C271.138 91.3855 270.984 91.0974 270.922 90.7838C270.859 90.4702 270.891 90.1451 271.014 89.8496C271.136 89.5542 271.343 89.3017 271.609 89.1241C271.875 88.9464 272.188 88.8516 272.507 88.8516C272.936 88.8516 273.347 89.0219 273.651 89.3251C273.954 89.6283 274.124 90.0396 274.124 90.4684Z" fill="white"/>
<g opacity="0.5">
<path d="M124.098 107.031V112.251H123.487L120.357 108.364V112.251H119.617V107.031H120.228L123.358 110.927V107.031H124.098Z" fill="black"/>
<path d="M129.111 110.512H125.911C125.955 110.852 126.127 111.162 126.393 111.378C126.659 111.594 126.998 111.7 127.339 111.673C127.553 111.679 127.766 111.639 127.963 111.556C128.161 111.473 128.338 111.349 128.483 111.191L128.878 111.656C128.68 111.869 128.437 112.037 128.166 112.147C127.896 112.257 127.605 112.306 127.313 112.292C127.038 112.312 126.761 112.275 126.501 112.182C126.241 112.089 126.003 111.943 125.803 111.752C125.603 111.562 125.445 111.332 125.339 111.077C125.233 110.822 125.182 110.547 125.189 110.271C125.178 110.006 125.222 109.742 125.318 109.494C125.414 109.247 125.559 109.022 125.745 108.833C125.932 108.645 126.155 108.496 126.401 108.397C126.647 108.299 126.911 108.251 127.176 108.259C127.441 108.252 127.705 108.301 127.951 108.402C128.196 108.503 128.418 108.655 128.602 108.847C128.786 109.038 128.927 109.266 129.018 109.516C129.108 109.766 129.146 110.032 129.128 110.297C129.126 110.369 129.12 110.44 129.111 110.512ZM125.911 109.996H128.44C128.404 109.686 128.255 109.4 128.022 109.193C127.789 108.985 127.488 108.871 127.176 108.871C126.864 108.871 126.563 108.985 126.33 109.193C126.096 109.4 125.948 109.686 125.911 109.996Z" fill="black"/>
<path d="M136.033 108.305L134.554 112.252H133.866L132.731 109.302L131.595 112.252H130.907L129.445 108.305H130.125L131.269 111.452L132.464 108.305H133.066L134.236 111.461L135.414 108.305H136.033Z" fill="black"/>
<path d="M142.306 110.512H139.098C139.141 110.852 139.314 111.162 139.58 111.378C139.845 111.594 140.184 111.7 140.526 111.673C140.74 111.679 140.953 111.639 141.15 111.556C141.347 111.473 141.524 111.348 141.67 111.191L142.065 111.655C141.867 111.868 141.626 112.035 141.357 112.145C141.088 112.255 140.799 112.305 140.509 112.292C140.233 112.312 139.956 112.275 139.696 112.182C139.436 112.089 139.198 111.943 138.998 111.752C138.798 111.562 138.64 111.332 138.535 111.077C138.429 110.821 138.378 110.547 138.384 110.271C138.374 110.007 138.417 109.743 138.513 109.496C138.608 109.25 138.752 109.025 138.938 108.836C139.123 108.648 139.345 108.499 139.59 108.4C139.835 108.3 140.098 108.252 140.362 108.258C140.628 108.252 140.892 108.301 141.138 108.402C141.383 108.503 141.605 108.655 141.789 108.846C141.972 109.038 142.114 109.266 142.205 109.516C142.295 109.766 142.333 110.032 142.315 110.297C142.316 110.368 142.313 110.44 142.306 110.512ZM139.098 109.996H141.678C141.678 109.653 141.542 109.325 141.3 109.083C141.058 108.842 140.73 108.706 140.388 108.706C140.046 108.706 139.718 108.842 139.476 109.083C139.234 109.325 139.098 109.653 139.098 109.996Z" fill="black"/>
<path d="M147.07 109.982V112.253H146.356V110.06C146.356 109.286 145.969 108.907 145.29 108.907C145.117 108.894 144.943 108.92 144.781 108.983C144.619 109.045 144.473 109.143 144.354 109.269C144.234 109.395 144.145 109.546 144.091 109.711C144.037 109.876 144.021 110.051 144.043 110.223V112.253H143.32V108.305H144.008V108.899C144.179 108.687 144.398 108.519 144.646 108.409C144.894 108.298 145.165 108.248 145.436 108.262C145.662 108.245 145.89 108.279 146.102 108.36C146.314 108.442 146.505 108.57 146.661 108.734C146.818 108.899 146.935 109.096 147.006 109.312C147.077 109.528 147.099 109.757 147.07 109.982Z" fill="black"/>
<path d="M150.606 112.021C150.36 112.21 150.056 112.307 149.746 112.296C149.578 112.315 149.409 112.296 149.249 112.24C149.09 112.185 148.945 112.095 148.825 111.976C148.706 111.857 148.614 111.713 148.558 111.554C148.501 111.395 148.481 111.225 148.499 111.057V108.89H147.828V108.305H148.499V107.445H149.213V108.305H150.348V108.89H149.213V111.023C149.201 111.109 149.209 111.196 149.235 111.279C149.261 111.362 149.306 111.438 149.365 111.501C149.424 111.564 149.497 111.614 149.578 111.646C149.658 111.678 149.745 111.691 149.832 111.685C150.034 111.686 150.231 111.619 150.391 111.496L150.606 112.021Z" fill="black"/>
<path d="M153.585 108.258V108.954H153.422C153.248 108.944 153.074 108.972 152.912 109.037C152.75 109.102 152.605 109.201 152.486 109.328C152.367 109.455 152.277 109.607 152.223 109.773C152.17 109.939 152.153 110.114 152.175 110.287V112.257H151.461V108.309H152.149V108.971C152.297 108.729 152.51 108.534 152.764 108.407C153.018 108.281 153.303 108.229 153.585 108.258Z" fill="black"/>
<path d="M154.344 107.083C154.343 107.02 154.354 106.957 154.378 106.898C154.402 106.84 154.438 106.787 154.483 106.742C154.528 106.698 154.581 106.664 154.64 106.641C154.699 106.618 154.762 106.607 154.825 106.61C154.916 106.613 155.004 106.643 155.078 106.696C155.152 106.748 155.208 106.821 155.241 106.906C155.274 106.991 155.281 107.083 155.262 107.172C155.243 107.26 155.198 107.342 155.134 107.405C155.069 107.469 154.987 107.512 154.898 107.529C154.809 107.547 154.717 107.538 154.633 107.504C154.549 107.469 154.476 107.411 154.425 107.336C154.374 107.262 154.346 107.173 154.344 107.083ZM154.464 108.304H155.187V112.251H154.464V108.304Z" fill="black"/>
<path d="M160.102 110.512H156.903C156.946 110.852 157.119 111.162 157.385 111.378C157.65 111.594 157.989 111.7 158.331 111.673C158.545 111.679 158.758 111.639 158.955 111.556C159.152 111.473 159.33 111.349 159.475 111.191L159.87 111.656C159.672 111.868 159.431 112.035 159.162 112.145C158.893 112.255 158.604 112.305 158.314 112.292C158.038 112.312 157.762 112.275 157.501 112.182C157.241 112.089 157.004 111.943 156.803 111.752C156.603 111.562 156.445 111.332 156.34 111.077C156.234 110.822 156.183 110.547 156.189 110.271C156.178 110.006 156.22 109.742 156.315 109.495C156.41 109.248 156.554 109.023 156.74 108.834C156.926 108.645 157.148 108.496 157.394 108.397C157.639 108.298 157.903 108.251 158.167 108.259C158.433 108.252 158.697 108.301 158.943 108.402C159.188 108.503 159.41 108.655 159.594 108.847C159.777 109.038 159.919 109.266 160.01 109.516C160.1 109.766 160.138 110.032 160.12 110.297C160.118 110.369 160.112 110.44 160.102 110.512ZM156.903 109.996H159.432C159.395 109.686 159.247 109.4 159.014 109.193C158.781 108.985 158.479 108.871 158.167 108.871C157.855 108.871 157.554 108.985 157.321 109.193C157.088 109.4 156.939 109.686 156.903 109.996Z" fill="black"/>
<path d="M160.602 111.877L160.903 111.31C161.316 111.573 161.797 111.713 162.287 111.714C162.949 111.714 163.225 111.516 163.225 111.181C163.225 110.321 160.731 111.06 160.731 109.461C160.731 108.755 161.367 108.274 162.373 108.274C162.878 108.266 163.376 108.391 163.818 108.635L163.508 109.203C163.169 108.989 162.774 108.881 162.373 108.893C161.745 108.893 161.436 109.117 161.436 109.435C161.436 110.364 163.938 109.607 163.938 111.155C163.938 111.877 163.285 112.324 162.218 112.324C161.647 112.339 161.084 112.183 160.602 111.877Z" fill="black"/>
</g>
<path opacity="0.2" d="M116.106 110.064C116.108 110.728 115.913 111.378 115.545 111.931C115.177 112.484 114.653 112.915 114.04 113.17C113.427 113.425 112.752 113.492 112.1 113.363C111.449 113.234 110.85 112.914 110.381 112.444C109.911 111.975 109.592 111.376 109.462 110.725C109.333 110.074 109.4 109.398 109.655 108.785C109.91 108.172 110.342 107.648 110.894 107.28C111.447 106.913 112.097 106.717 112.761 106.719C113.648 106.719 114.499 107.071 115.127 107.699C115.754 108.326 116.106 109.177 116.106 110.064Z" fill="black"/>
<path d="M112.711 112.022C112.597 112.022 112.488 111.976 112.407 111.896C112.327 111.815 112.281 111.706 112.281 111.592V108.547C112.281 108.433 112.327 108.324 112.407 108.243C112.488 108.162 112.597 108.117 112.711 108.117C112.825 108.117 112.935 108.162 113.015 108.243C113.096 108.324 113.141 108.433 113.141 108.547V111.592C113.141 111.706 113.096 111.815 113.015 111.896C112.935 111.976 112.825 112.022 112.711 112.022Z" fill="white"/>
<path d="M114.232 110.501H111.188C111.074 110.501 110.964 110.455 110.884 110.375C110.803 110.294 110.758 110.185 110.758 110.071C110.758 109.957 110.803 109.847 110.884 109.767C110.964 109.686 111.074 109.641 111.188 109.641H114.232C114.346 109.641 114.456 109.686 114.536 109.767C114.617 109.847 114.662 109.957 114.662 110.071C114.662 110.185 114.617 110.294 114.536 110.375C114.456 110.455 114.346 110.501 114.232 110.501Z" fill="white"/>
<path opacity="0.2" d="M275.879 126.789H238.452C237.046 126.789 235.906 127.929 235.906 129.335V151.841C235.906 153.247 237.046 154.386 238.452 154.386H275.879C277.285 154.386 278.425 153.247 278.425 151.841V129.335C278.425 127.929 277.285 126.789 275.879 126.789Z" fill="black"/>
<path d="M269.06 134.023H265.044C264.794 134.023 264.549 133.949 264.34 133.809C264.132 133.67 263.97 133.472 263.875 133.24L263.015 131.228C262.921 130.997 262.76 130.799 262.553 130.66C262.347 130.52 262.103 130.446 261.854 130.445H252.394C252.145 130.447 251.901 130.522 251.695 130.661C251.488 130.8 251.328 130.998 251.233 131.228L250.373 133.24C250.278 133.471 250.117 133.668 249.91 133.807C249.704 133.946 249.461 134.021 249.212 134.023H245.187C244.578 134.023 243.994 134.265 243.563 134.695C243.133 135.126 242.891 135.71 242.891 136.319V147.886C242.893 148.494 243.136 149.077 243.566 149.507C243.996 149.937 244.579 150.18 245.187 150.182H269C269.609 150.182 270.193 149.94 270.624 149.51C271.055 149.079 271.296 148.495 271.296 147.886V136.319C271.299 135.72 271.066 135.143 270.648 134.714C270.23 134.285 269.66 134.036 269.06 134.023ZM257.158 146.063C256.395 146.065 255.649 145.84 255.014 145.417C254.379 144.994 253.884 144.393 253.592 143.688C253.299 142.984 253.222 142.209 253.37 141.461C253.519 140.712 253.886 140.025 254.425 139.486C254.964 138.946 255.652 138.579 256.4 138.431C257.148 138.283 257.923 138.36 258.628 138.652C259.332 138.945 259.934 139.44 260.357 140.075C260.779 140.71 261.004 141.456 261.002 142.219C261.003 142.726 260.904 143.229 260.711 143.698C260.517 144.167 260.233 144.593 259.874 144.952C259.515 145.31 259.089 145.595 258.62 145.788C258.151 145.982 257.648 146.081 257.141 146.08L257.158 146.063Z" fill="white"/>
<g opacity="0.5">
<path d="M251.898 122.516H252.24V124.915H251.898V122.516Z" fill="black"/>
<path d="M255.941 123.867V124.916H255.606V123.927C255.606 123.566 255.434 123.394 255.141 123.394C255.063 123.389 254.985 123.402 254.913 123.431C254.84 123.46 254.775 123.506 254.723 123.563C254.67 123.621 254.631 123.69 254.608 123.765C254.585 123.839 254.579 123.918 254.591 123.996V124.933H254.264V123.927C254.264 123.566 254.092 123.394 253.791 123.394C253.714 123.391 253.636 123.404 253.565 123.434C253.493 123.464 253.428 123.509 253.376 123.567C253.324 123.624 253.284 123.692 253.261 123.766C253.238 123.84 253.231 123.919 253.241 123.996V124.933H252.914V123.067H253.232V123.333C253.305 123.238 253.401 123.161 253.51 123.112C253.62 123.062 253.74 123.041 253.86 123.05C253.986 123.039 254.112 123.065 254.224 123.124C254.335 123.184 254.427 123.274 254.488 123.385C254.571 123.278 254.678 123.191 254.8 123.133C254.923 123.074 255.057 123.046 255.193 123.05C255.3 123.04 255.407 123.055 255.507 123.094C255.607 123.133 255.697 123.194 255.769 123.273C255.842 123.352 255.895 123.447 255.925 123.55C255.955 123.653 255.96 123.761 255.941 123.867Z" fill="black"/>
<path d="M258.005 123.81V124.911H257.687V124.67C257.62 124.763 257.53 124.837 257.426 124.884C257.322 124.93 257.207 124.949 257.093 124.937C256.681 124.937 256.414 124.713 256.414 124.395C256.414 124.077 256.603 123.862 257.154 123.862H257.67V123.801C257.67 123.518 257.515 123.363 257.188 123.363C256.977 123.358 256.771 123.425 256.603 123.552L256.466 123.311C256.685 123.151 256.951 123.069 257.222 123.079C257.713 123.062 258.005 123.311 258.005 123.81ZM257.67 124.36V124.102H257.145C256.818 124.102 256.724 124.231 256.724 124.386C256.724 124.541 256.878 124.679 257.128 124.679C257.239 124.689 257.351 124.664 257.447 124.607C257.542 124.55 257.618 124.463 257.661 124.36H257.67Z" fill="black"/>
<path d="M260.356 123.062V124.636C260.367 124.762 260.35 124.89 260.306 125.008C260.262 125.127 260.192 125.235 260.102 125.323C260.011 125.412 259.902 125.48 259.783 125.522C259.663 125.563 259.536 125.578 259.41 125.565C259.101 125.579 258.797 125.485 258.55 125.299L258.705 125.041C258.906 125.198 259.154 125.283 259.41 125.281C259.84 125.281 260.038 125.083 260.038 124.671V124.524C259.955 124.617 259.852 124.69 259.738 124.739C259.624 124.788 259.5 124.812 259.376 124.808C259.148 124.808 258.929 124.718 258.767 124.556C258.606 124.395 258.516 124.176 258.516 123.948C258.516 123.72 258.606 123.501 258.767 123.34C258.929 123.179 259.148 123.088 259.376 123.088C259.503 123.083 259.631 123.107 259.748 123.158C259.866 123.208 259.971 123.284 260.055 123.381V123.062H260.356ZM260.029 123.922C260.031 123.842 260.015 123.762 259.984 123.688C259.953 123.613 259.907 123.546 259.849 123.491C259.791 123.435 259.722 123.392 259.646 123.364C259.571 123.336 259.49 123.324 259.41 123.329C259.253 123.329 259.102 123.392 258.99 123.503C258.879 123.614 258.817 123.765 258.817 123.922C258.817 124.08 258.879 124.231 258.99 124.342C259.102 124.453 259.253 124.516 259.41 124.516C259.49 124.521 259.571 124.509 259.646 124.481C259.722 124.453 259.791 124.41 259.849 124.354C259.907 124.299 259.953 124.232 259.984 124.157C260.015 124.083 260.031 124.003 260.029 123.922Z" fill="black"/>
<path d="M262.629 124.112H261.149C261.171 124.268 261.251 124.411 261.374 124.51C261.498 124.609 261.654 124.657 261.812 124.645C261.909 124.649 262.007 124.632 262.097 124.595C262.188 124.558 262.269 124.502 262.336 124.43L262.517 124.636C262.43 124.739 262.32 124.82 262.196 124.872C262.072 124.924 261.937 124.947 261.803 124.937C261.675 124.947 261.547 124.93 261.427 124.887C261.306 124.844 261.196 124.776 261.104 124.687C261.011 124.599 260.938 124.492 260.89 124.374C260.842 124.255 260.819 124.128 260.823 124C260.814 123.878 260.831 123.755 260.874 123.64C260.916 123.525 260.983 123.42 261.069 123.333C261.156 123.246 261.26 123.178 261.374 123.134C261.489 123.091 261.612 123.072 261.734 123.08C261.857 123.073 261.981 123.093 262.096 123.138C262.211 123.184 262.314 123.253 262.4 123.342C262.486 123.431 262.551 123.537 262.592 123.654C262.633 123.77 262.648 123.894 262.637 124.017C262.637 124.017 262.629 124.086 262.629 124.112ZM261.149 123.88H262.302C262.302 123.725 262.24 123.576 262.13 123.466C262.021 123.356 261.872 123.295 261.717 123.295C261.562 123.295 261.413 123.356 261.303 123.466C261.194 123.576 261.132 123.725 261.132 123.88H261.149Z" fill="black"/>
</g>
<path d="M227.007 126.789H111.742C110.426 126.789 109.359 127.856 109.359 129.171V134.271C109.359 135.587 110.426 136.653 111.742 136.653H227.007C228.323 136.653 229.39 135.587 229.39 134.271V129.171C229.39 127.856 228.323 126.789 227.007 126.789Z" fill="white"/>
<g opacity="0.5">
<path d="M111.391 122.808H110.531V122.516H112.518V122.808H111.658V124.915H111.314L111.391 122.808Z" fill="black"/>
<path d="M112.789 122.529C112.788 122.485 112.799 122.44 112.823 122.403C112.846 122.365 112.88 122.335 112.921 122.316C112.962 122.298 113.007 122.293 113.051 122.3C113.095 122.308 113.136 122.328 113.168 122.359C113.2 122.39 113.222 122.43 113.231 122.474C113.241 122.517 113.237 122.563 113.22 122.604C113.203 122.645 113.175 122.681 113.138 122.706C113.101 122.731 113.057 122.744 113.013 122.744C112.984 122.745 112.955 122.741 112.928 122.73C112.901 122.72 112.876 122.704 112.855 122.684C112.834 122.664 112.818 122.64 112.806 122.613C112.795 122.587 112.789 122.558 112.789 122.529ZM112.849 123.097H113.176V124.911H112.849V123.097Z" fill="black"/>
<path d="M114.831 124.788C114.714 124.876 114.572 124.921 114.426 124.917C114.349 124.925 114.27 124.916 114.197 124.89C114.123 124.864 114.056 124.822 114.001 124.766C113.946 124.711 113.904 124.644 113.878 124.571C113.851 124.497 113.842 124.419 113.85 124.341V123.343H113.523V123.068H113.833V122.664H114.168V123.068H114.684V123.335H114.168V124.324C114.168 124.522 114.263 124.625 114.452 124.625C114.546 124.628 114.637 124.598 114.71 124.539L114.831 124.788Z" fill="black"/>
<path d="M116.211 124.788C116.098 124.875 115.958 124.92 115.815 124.917C115.738 124.925 115.659 124.916 115.586 124.89C115.512 124.864 115.445 124.822 115.39 124.766C115.335 124.711 115.293 124.644 115.267 124.571C115.241 124.497 115.231 124.419 115.239 124.341V123.343H114.93V123.068H115.248V122.664H115.575V123.068H116.108V123.335H115.583V124.324C115.578 124.363 115.582 124.403 115.594 124.441C115.606 124.479 115.626 124.513 115.654 124.542C115.681 124.571 115.714 124.593 115.751 124.607C115.788 124.622 115.828 124.628 115.867 124.625C115.961 124.628 116.052 124.598 116.125 124.539L116.211 124.788Z" fill="black"/>
<path d="M116.609 122.359H116.96V124.939H116.635L116.609 122.359Z" fill="black"/>
<path d="M119.214 124.112H117.735C117.757 124.268 117.837 124.411 117.96 124.51C118.084 124.609 118.24 124.657 118.397 124.645C118.495 124.648 118.592 124.63 118.683 124.593C118.773 124.556 118.855 124.501 118.922 124.43L119.103 124.636C119.015 124.74 118.903 124.822 118.778 124.874C118.652 124.926 118.516 124.948 118.38 124.937C118.253 124.946 118.126 124.928 118.007 124.884C117.887 124.84 117.778 124.772 117.687 124.684C117.595 124.596 117.523 124.489 117.475 124.371C117.427 124.254 117.405 124.127 117.408 124C117.4 123.878 117.417 123.755 117.46 123.64C117.502 123.525 117.569 123.42 117.655 123.333C117.742 123.246 117.846 123.178 117.96 123.134C118.075 123.091 118.198 123.072 118.32 123.08C118.443 123.073 118.567 123.093 118.682 123.138C118.797 123.184 118.9 123.253 118.986 123.342C119.072 123.431 119.137 123.537 119.178 123.654C119.219 123.77 119.234 123.894 119.223 124.017C119.223 124.017 119.214 124.086 119.214 124.112ZM117.735 123.88H118.905C118.905 123.725 118.843 123.576 118.734 123.466C118.624 123.356 118.475 123.295 118.32 123.295C118.165 123.295 118.016 123.356 117.907 123.466C117.797 123.576 117.735 123.725 117.735 123.88Z" fill="black"/>
</g>
<path d="M227.007 144.523H111.742C110.426 144.523 109.359 145.59 109.359 146.906V152.005C109.359 153.321 110.426 154.388 111.742 154.388H227.007C228.323 154.388 229.39 153.321 229.39 152.005V146.906C229.39 145.59 228.323 144.523 227.007 144.523Z" fill="white"/>
<g opacity="0.5">
<path d="M110.719 141.434C110.716 141.269 110.748 141.104 110.811 140.951C110.875 140.797 110.969 140.659 111.089 140.544C111.208 140.428 111.35 140.339 111.505 140.281C111.66 140.222 111.826 140.196 111.992 140.205C112.163 140.198 112.334 140.228 112.493 140.294C112.652 140.359 112.795 140.458 112.912 140.583L112.688 140.798C112.603 140.703 112.498 140.629 112.38 140.58C112.263 140.531 112.136 140.508 112.009 140.514C111.854 140.513 111.702 140.551 111.565 140.624C111.429 140.697 111.313 140.803 111.228 140.932C111.143 141.061 111.092 141.21 111.078 141.364C111.065 141.518 111.091 141.673 111.153 141.815C111.214 141.956 111.311 142.08 111.433 142.175C111.555 142.271 111.698 142.334 111.851 142.359C112.003 142.385 112.16 142.372 112.306 142.321C112.452 142.271 112.584 142.185 112.688 142.071L112.912 142.286C112.795 142.411 112.652 142.51 112.493 142.575C112.334 142.641 112.163 142.671 111.992 142.664C111.826 142.672 111.66 142.647 111.505 142.588C111.35 142.53 111.208 142.44 111.089 142.325C110.969 142.21 110.875 142.071 110.811 141.918C110.748 141.765 110.716 141.6 110.719 141.434Z" fill="black"/>
<path d="M114.779 141.537V142.638H114.46V142.397C114.391 142.486 114.301 142.557 114.197 142.602C114.093 142.647 113.98 142.665 113.867 142.655C113.454 142.655 113.188 142.44 113.188 142.122C113.188 141.803 113.377 141.588 113.919 141.588H114.443V141.528C114.443 141.244 114.28 141.081 113.953 141.081C113.744 141.08 113.541 141.15 113.377 141.279L113.239 141.029C113.46 140.872 113.725 140.791 113.996 140.797C114.495 140.797 114.779 141.038 114.779 141.537ZM114.443 142.079V141.829H113.936C113.609 141.829 113.514 141.958 113.514 142.113C113.514 142.268 113.669 142.405 113.919 142.405C114.03 142.415 114.141 142.388 114.235 142.329C114.33 142.27 114.403 142.182 114.443 142.079Z" fill="black"/>
<path d="M116.414 142.535C116.3 142.619 116.16 142.662 116.019 142.656C115.941 142.665 115.863 142.657 115.789 142.632C115.716 142.607 115.649 142.566 115.593 142.511C115.538 142.456 115.496 142.39 115.469 142.317C115.443 142.243 115.434 142.165 115.442 142.088V141.116H115.133V140.841H115.442V140.445H115.769V140.841H116.294V141.116H115.769V142.105C115.764 142.144 115.768 142.184 115.78 142.222C115.792 142.26 115.812 142.294 115.84 142.323C115.867 142.352 115.9 142.374 115.937 142.389C115.974 142.403 116.014 142.409 116.053 142.406C116.146 142.406 116.236 142.375 116.311 142.32L116.414 142.535Z" fill="black"/>
<path d="M118.389 141.839H116.91C116.932 141.996 117.012 142.138 117.135 142.237C117.258 142.337 117.415 142.385 117.572 142.372C117.671 142.377 117.769 142.359 117.86 142.32C117.951 142.281 118.032 142.223 118.097 142.149L118.278 142.364C118.145 142.51 117.972 142.612 117.78 142.659C117.589 142.706 117.388 142.694 117.203 142.626C117.018 142.557 116.858 142.435 116.743 142.275C116.628 142.115 116.563 141.924 116.558 141.727C116.547 141.604 116.564 141.481 116.606 141.364C116.648 141.248 116.714 141.143 116.801 141.054C116.887 140.966 116.992 140.898 117.107 140.854C117.222 140.81 117.346 140.791 117.469 140.799C117.589 140.798 117.707 140.823 117.817 140.871C117.927 140.919 118.025 140.989 118.106 141.077C118.187 141.165 118.249 141.27 118.287 141.383C118.326 141.497 118.34 141.617 118.329 141.736C118.329 141.736 118.389 141.805 118.389 141.839ZM116.91 141.598H118.08C118.067 141.454 117.999 141.32 117.89 141.224C117.781 141.128 117.64 141.077 117.495 141.082C117.349 141.075 117.207 141.125 117.098 141.222C116.989 141.318 116.921 141.453 116.91 141.598Z" fill="black"/>
<path d="M120.596 140.814V142.388C120.608 142.515 120.592 142.643 120.549 142.763C120.506 142.883 120.436 142.991 120.346 143.081C120.255 143.171 120.146 143.239 120.025 143.281C119.905 143.324 119.777 143.339 119.65 143.325C119.34 143.337 119.036 143.239 118.79 143.05L118.945 142.801C119.146 142.958 119.395 143.04 119.65 143.033C120.08 143.033 120.269 142.835 120.269 142.422V142.276C120.19 142.371 120.089 142.446 119.976 142.495C119.863 142.544 119.739 142.566 119.616 142.56C119.382 142.56 119.158 142.467 118.993 142.302C118.827 142.137 118.734 141.912 118.734 141.679C118.734 141.445 118.827 141.221 118.993 141.055C119.158 140.89 119.382 140.797 119.616 140.797C119.743 140.795 119.869 140.82 119.985 140.872C120.101 140.924 120.204 141.001 120.287 141.098V140.814H120.596ZM120.269 141.674C120.269 141.508 120.203 141.348 120.086 141.23C119.968 141.113 119.808 141.046 119.642 141.046C119.475 141.046 119.315 141.113 119.198 141.23C119.08 141.348 119.014 141.508 119.014 141.674C119.014 141.841 119.08 142 119.198 142.118C119.315 142.236 119.475 142.302 119.642 142.302C119.808 142.302 119.968 142.236 120.086 142.118C120.203 142 120.269 141.841 120.269 141.674Z" fill="black"/>
<path d="M121.063 141.729C121.059 141.541 121.112 141.356 121.214 141.199C121.316 141.041 121.462 140.917 121.635 140.843C121.807 140.768 121.998 140.747 122.183 140.782C122.367 140.816 122.537 140.905 122.672 141.037C122.806 141.168 122.897 141.337 122.935 141.521C122.973 141.705 122.955 141.896 122.884 142.07C122.813 142.243 122.692 142.392 122.536 142.497C122.38 142.602 122.197 142.658 122.009 142.658C121.885 142.664 121.76 142.644 121.644 142.599C121.528 142.555 121.422 142.487 121.333 142.4C121.244 142.313 121.174 142.208 121.128 142.093C121.081 141.977 121.059 141.853 121.063 141.729ZM122.619 141.729C122.626 141.646 122.614 141.563 122.586 141.484C122.558 141.406 122.513 141.335 122.456 141.275C122.398 141.215 122.329 141.167 122.252 141.136C122.175 141.105 122.092 141.09 122.009 141.092C121.925 141.09 121.842 141.105 121.765 141.136C121.688 141.167 121.617 141.214 121.559 141.274C121.501 141.334 121.456 141.406 121.427 141.484C121.397 141.562 121.385 141.645 121.39 141.729C121.385 141.813 121.398 141.896 121.427 141.975C121.456 142.054 121.501 142.126 121.559 142.186C121.617 142.247 121.687 142.295 121.764 142.327C121.842 142.359 121.925 142.375 122.009 142.374C122.092 142.375 122.175 142.359 122.252 142.327C122.329 142.294 122.399 142.246 122.456 142.186C122.514 142.125 122.558 142.053 122.586 141.974C122.614 141.896 122.625 141.812 122.619 141.729Z" fill="black"/>
<path d="M124.387 140.801V141.12H124.309C124.229 141.114 124.149 141.126 124.074 141.155C123.999 141.184 123.931 141.23 123.876 141.288C123.821 141.347 123.78 141.417 123.755 141.493C123.73 141.57 123.723 141.651 123.733 141.73V142.642H123.406V140.819H123.724V141.12C123.793 141.009 123.892 140.921 124.01 140.865C124.127 140.808 124.257 140.786 124.387 140.801Z" fill="black"/>
<path d="M124.703 140.263C124.703 140.204 124.727 140.147 124.769 140.105C124.811 140.063 124.867 140.039 124.927 140.039C124.956 140.038 124.985 140.043 125.012 140.053C125.039 140.063 125.063 140.079 125.084 140.099C125.105 140.119 125.122 140.143 125.133 140.17C125.145 140.197 125.15 140.225 125.15 140.254C125.152 140.284 125.147 140.313 125.136 140.34C125.125 140.367 125.108 140.392 125.087 140.412C125.066 140.433 125.041 140.448 125.013 140.458C124.985 140.468 124.956 140.472 124.927 140.469C124.898 140.47 124.87 140.466 124.844 140.456C124.817 140.446 124.793 140.432 124.772 140.412C124.751 140.393 124.735 140.37 124.723 140.344C124.711 140.319 124.704 140.291 124.703 140.263ZM124.763 140.822H125.099V142.645H124.763V140.822Z" fill="black"/>
<path d="M127.403 141.84H125.924C125.944 141.996 126.022 142.138 126.144 142.237C126.266 142.337 126.421 142.385 126.578 142.373C126.678 142.377 126.777 142.359 126.869 142.321C126.962 142.282 127.044 142.224 127.111 142.149L127.292 142.364C127.2 142.463 127.087 142.54 126.963 142.59C126.838 142.641 126.704 142.663 126.569 142.657C126.442 142.666 126.315 142.649 126.195 142.607C126.075 142.564 125.966 142.497 125.873 142.41C125.781 142.322 125.708 142.216 125.659 142.099C125.61 141.981 125.586 141.855 125.589 141.728C125.579 141.604 125.595 141.48 125.638 141.363C125.68 141.246 125.748 141.14 125.835 141.052C125.922 140.963 126.028 140.895 126.144 140.851C126.261 140.808 126.385 140.79 126.509 140.799C126.629 140.799 126.747 140.823 126.857 140.871C126.967 140.919 127.065 140.99 127.146 141.078C127.227 141.166 127.289 141.27 127.327 141.384C127.366 141.497 127.38 141.617 127.369 141.737L127.403 141.84ZM125.924 141.599H127.094C127.081 141.455 127.013 141.321 126.904 141.225C126.795 141.129 126.654 141.078 126.509 141.083C126.364 141.076 126.221 141.126 126.112 141.222C126.003 141.319 125.935 141.454 125.924 141.599Z" fill="black"/>
<path d="M127.641 142.448L127.778 142.182C127.967 142.306 128.189 142.371 128.415 142.371C128.724 142.371 128.853 142.276 128.853 142.122C128.853 141.717 127.701 142.07 127.701 141.348C127.701 141.021 127.993 140.797 128.458 140.797C128.689 140.792 128.918 140.848 129.12 140.961L128.982 141.227C128.826 141.127 128.643 141.076 128.458 141.081C128.165 141.081 128.028 141.184 128.028 141.33C128.028 141.76 129.18 141.408 129.18 142.122C129.18 142.448 128.879 142.655 128.389 142.655C128.124 142.663 127.863 142.591 127.641 142.448Z" fill="black"/>
</g>
<path d="M276.027 164.062H111.742C110.426 164.062 109.359 165.129 109.359 166.445V185.305C109.359 186.62 110.426 187.687 111.742 187.687H276.027C277.343 187.687 278.41 186.62 278.41 185.305V166.445C278.41 165.129 277.343 164.062 276.027 164.062Z" fill="white"/>
<g opacity="0.5">
<path d="M110.938 159.797H111.952C112.272 159.797 112.578 159.924 112.804 160.15C113.029 160.375 113.156 160.682 113.156 161.001C113.156 161.32 113.029 161.626 112.804 161.852C112.578 162.078 112.272 162.205 111.952 162.205H110.938V159.797ZM111.926 161.904C112.166 161.904 112.396 161.809 112.565 161.639C112.734 161.47 112.829 161.24 112.829 161.001C112.829 160.761 112.734 160.532 112.565 160.362C112.396 160.193 112.166 160.098 111.926 160.098H111.281V161.904H111.926Z" fill="black"/>
<path d="M115.348 161.402H113.877C113.897 161.558 113.976 161.701 114.097 161.8C114.219 161.899 114.374 161.948 114.531 161.936C114.629 161.938 114.727 161.92 114.818 161.881C114.908 161.843 114.99 161.785 115.056 161.712L115.245 161.927C115.152 162.024 115.04 162.101 114.915 162.151C114.791 162.201 114.657 162.225 114.522 162.219C114.396 162.229 114.268 162.212 114.148 162.169C114.028 162.127 113.919 162.06 113.826 161.972C113.734 161.885 113.661 161.779 113.612 161.661C113.563 161.544 113.539 161.418 113.542 161.291C113.532 161.167 113.548 161.042 113.591 160.925C113.633 160.809 113.701 160.702 113.788 160.614C113.876 160.526 113.981 160.458 114.097 160.414C114.214 160.37 114.338 160.353 114.462 160.362C114.582 160.361 114.7 160.386 114.81 160.434C114.92 160.482 115.018 160.552 115.099 160.64C115.18 160.729 115.242 160.833 115.28 160.946C115.319 161.06 115.333 161.18 115.322 161.299C115.335 161.332 115.343 161.367 115.348 161.402ZM113.877 161.161H115.038C115.03 161.016 114.964 160.88 114.857 160.782C114.749 160.684 114.608 160.632 114.462 160.637C114.316 160.632 114.173 160.684 114.064 160.782C113.955 160.879 113.888 161.016 113.877 161.161Z" fill="black"/>
<path d="M116.845 162.092C116.728 162.18 116.586 162.225 116.44 162.221C116.363 162.231 116.285 162.223 116.211 162.198C116.138 162.173 116.071 162.131 116.015 162.077C115.96 162.022 115.917 161.956 115.891 161.882C115.865 161.809 115.856 161.731 115.864 161.654V160.647H115.555V160.381H115.864V159.977H116.191V160.381H116.716V160.647H116.191V161.636C116.186 161.677 116.19 161.718 116.202 161.757C116.215 161.795 116.236 161.831 116.264 161.86C116.292 161.89 116.326 161.913 116.364 161.928C116.402 161.943 116.443 161.949 116.483 161.946C116.576 161.945 116.667 161.915 116.741 161.86L116.845 162.092Z" fill="black"/>
<path d="M118.676 161.1V162.201H118.367V161.96C118.296 162.049 118.203 162.12 118.098 162.165C117.993 162.21 117.878 162.228 117.765 162.218C117.352 162.218 117.094 162.003 117.094 161.685C117.094 161.366 117.283 161.151 117.825 161.151H118.349V161.083C118.349 160.807 118.186 160.644 117.859 160.644C117.65 160.642 117.447 160.712 117.283 160.842L117.145 160.592C117.361 160.432 117.625 160.35 117.894 160.36C118.392 160.36 118.676 160.601 118.676 161.1ZM118.349 161.642V161.384H117.816C117.489 161.384 117.403 161.513 117.403 161.667C117.403 161.822 117.55 161.968 117.799 161.968C117.913 161.978 118.028 161.952 118.127 161.893C118.225 161.835 118.303 161.747 118.349 161.642Z" fill="black"/>
<path d="M119.235 159.81C119.233 159.765 119.245 159.721 119.269 159.683C119.293 159.645 119.327 159.615 119.369 159.597C119.41 159.579 119.455 159.574 119.5 159.582C119.544 159.59 119.584 159.612 119.616 159.644C119.648 159.675 119.669 159.716 119.678 159.76C119.686 159.804 119.681 159.85 119.663 159.891C119.645 159.932 119.615 159.967 119.577 159.991C119.539 160.015 119.494 160.027 119.45 160.025C119.393 160.025 119.338 160.003 119.298 159.962C119.257 159.922 119.235 159.867 119.235 159.81ZM119.286 160.378H119.622V162.201H119.286V160.378Z" fill="black"/>
<path d="M120.258 159.641H120.582V162.221H120.258V159.641Z" fill="black"/>
<path d="M120.984 162.002L121.122 161.744C121.311 161.869 121.532 161.935 121.758 161.933C122.068 161.933 122.188 161.839 122.188 161.684C122.188 161.28 121.045 161.632 121.045 160.901C121.045 160.575 121.337 160.36 121.801 160.36C122.033 160.355 122.261 160.412 122.464 160.523L122.326 160.781C122.165 160.686 121.98 160.639 121.793 160.643C121.509 160.643 121.363 160.747 121.363 160.893C121.363 161.323 122.524 160.97 122.524 161.675C122.524 162.011 122.223 162.217 121.733 162.217C121.467 162.224 121.206 162.149 120.984 162.002Z" fill="black"/>
</g>
<path opacity="0.2" d="M289.435 94.2266H100.055V101.889H289.435V94.2266Z" fill="black"/>
<path d="M276.662 195.406H251.318C250.154 195.406 249.211 196.35 249.211 197.513V202.149C249.211 203.312 250.154 204.256 251.318 204.256H276.662C277.826 204.256 278.769 203.312 278.769 202.149V197.513C278.769 196.35 277.826 195.406 276.662 195.406Z" fill="#6553DF"/>
<path d="M257.32 201.227L257.51 200.822C257.848 201.096 258.27 201.245 258.705 201.244C259.333 201.244 259.565 201.003 259.565 200.685C259.565 199.825 257.372 200.358 257.372 199.016C257.372 198.457 257.811 197.984 258.757 197.984C259.166 197.981 259.567 198.091 259.918 198.303L259.746 198.715C259.449 198.528 259.107 198.427 258.757 198.423C258.146 198.423 257.897 198.681 257.897 198.999C257.897 199.859 260.09 199.326 260.09 200.65C260.09 201.201 259.642 201.682 258.688 201.682C258.193 201.691 257.711 201.53 257.32 201.227Z" fill="white"/>
<path d="M263.159 200.74H261.241L260.846 201.643H260.312L261.946 198.031H262.454L264.096 201.643H263.555L263.159 200.74ZM262.979 200.327L262.196 198.556L261.422 200.327H262.979Z" fill="white"/>
<path d="M267.587 198.031L266.005 201.643H265.489L263.906 198.031H264.457L265.764 200.998L267.071 198.031H267.587Z" fill="white"/>
<path d="M270.658 201.196V201.643H268.078V198.031H270.658V198.478H268.62V199.605H270.435V200.044H268.62V201.213L270.658 201.196Z" fill="white"/>
<path opacity="0.4" d="M243.629 195.406H209.685C208.521 195.406 207.578 196.35 207.578 197.513V202.149C207.578 203.312 208.521 204.256 209.685 204.256H243.629C244.793 204.256 245.736 203.312 245.736 202.149V197.513C245.736 196.35 244.793 195.406 243.629 195.406Z" fill="black"/>
<path d="M214.805 198.024H216.327C216.579 198 216.833 198.028 217.074 198.108C217.314 198.187 217.535 198.316 217.722 198.486C217.91 198.656 218.06 198.864 218.162 199.095C218.265 199.327 218.318 199.577 218.318 199.83C218.318 200.083 218.265 200.334 218.162 200.565C218.06 200.797 217.91 201.004 217.722 201.174C217.535 201.344 217.314 201.473 217.074 201.553C216.833 201.632 216.579 201.661 216.327 201.636H214.805V198.024ZM216.292 201.189C216.653 201.189 216.998 201.046 217.253 200.791C217.508 200.536 217.651 200.191 217.651 199.83C217.651 199.47 217.508 199.124 217.253 198.869C216.998 198.615 216.653 198.471 216.292 198.471H215.321V201.189H216.292Z" fill="white"/>
<path d="M219.062 198.031H219.579V201.643H219.062V198.031Z" fill="white"/>
<path d="M220.328 201.227L220.517 200.822C220.855 201.097 221.277 201.246 221.713 201.244C222.332 201.244 222.573 201.003 222.573 200.685C222.573 199.825 220.388 200.358 220.388 199.016C220.388 198.457 220.827 197.984 221.773 197.984C222.182 197.981 222.584 198.091 222.934 198.303L222.762 198.715C222.465 198.529 222.123 198.428 221.773 198.423C221.162 198.423 220.913 198.681 220.913 198.999C220.913 199.859 223.097 199.326 223.097 200.65C223.097 201.201 222.659 201.682 221.704 201.682C221.207 201.693 220.721 201.532 220.328 201.227Z" fill="white"/>
<path d="M223.602 199.835C223.599 199.586 223.647 199.34 223.743 199.11C223.839 198.881 223.98 198.673 224.159 198.5C224.338 198.327 224.55 198.193 224.782 198.104C225.014 198.016 225.262 197.975 225.511 197.986C225.767 197.977 226.023 198.024 226.26 198.121C226.497 198.219 226.711 198.367 226.887 198.554L226.551 198.872C226.422 198.734 226.264 198.625 226.089 198.552C225.914 198.48 225.726 198.445 225.537 198.45C225.308 198.452 225.083 198.511 224.883 198.621C224.682 198.731 224.512 198.889 224.388 199.08C224.263 199.272 224.188 199.492 224.169 199.719C224.15 199.947 224.187 200.176 224.278 200.386C224.369 200.596 224.511 200.78 224.69 200.921C224.87 201.063 225.081 201.158 225.307 201.198C225.532 201.238 225.763 201.222 225.98 201.151C226.198 201.079 226.394 200.955 226.551 200.79L226.887 201.116C226.711 201.303 226.497 201.451 226.26 201.549C226.023 201.646 225.767 201.693 225.511 201.684C225.262 201.695 225.014 201.654 224.782 201.566C224.55 201.478 224.338 201.343 224.159 201.17C223.98 200.997 223.839 200.789 223.743 200.56C223.647 200.33 223.599 200.084 223.602 199.835Z" fill="white"/>
<path d="M229.815 200.74H227.905L227.51 201.643H226.977L228.611 198.031H229.118L230.761 201.643H230.219L229.815 200.74ZM229.634 200.327L228.86 198.556L228.077 200.327H229.634Z" fill="white"/>
<path d="M233.697 201.636L232.923 200.527H231.805V201.628H231.289V198.016H232.691C233.637 198.016 234.204 198.489 234.204 199.271C234.216 199.523 234.144 199.772 233.999 199.979C233.855 200.186 233.646 200.339 233.405 200.415L234.265 201.628L233.697 201.636ZM233.697 199.28C233.697 198.764 233.344 198.471 232.691 198.471H231.831V200.097H232.691C233.336 200.097 233.688 199.796 233.688 199.28H233.697Z" fill="white"/>
<path d="M235.039 198.024H236.561C236.813 198 237.068 198.028 237.308 198.108C237.548 198.187 237.769 198.316 237.957 198.486C238.144 198.656 238.294 198.864 238.397 199.095C238.499 199.327 238.552 199.577 238.552 199.83C238.552 200.083 238.499 200.334 238.397 200.565C238.294 200.797 238.144 201.004 237.957 201.174C237.769 201.344 237.548 201.473 237.308 201.553C237.068 201.632 236.813 201.661 236.561 201.636H235.039V198.024ZM236.527 201.189C236.887 201.189 237.233 201.046 237.488 200.791C237.743 200.536 237.886 200.191 237.886 199.83C237.886 199.47 237.743 199.124 237.488 198.869C237.233 198.615 236.887 198.471 236.527 198.471H235.555V201.189H236.527Z" fill="white"/>
<path d="M106.901 98.4069H103.461C103.347 98.4069 103.238 98.3616 103.157 98.2809C103.077 98.2003 103.031 98.0909 103.031 97.9769C103.031 97.8628 103.077 97.7535 103.157 97.6728C103.238 97.5922 103.347 97.5469 103.461 97.5469H106.901C107.015 97.5469 107.125 97.5922 107.205 97.6728C107.286 97.7535 107.331 97.8628 107.331 97.9769C107.331 98.0909 107.286 98.2003 107.205 98.2809C107.125 98.3616 107.015 98.4069 106.901 98.4069Z" fill="white"/>
<path d="M104.482 99.8372C104.366 99.8369 104.254 99.7905 104.172 99.7082L102.779 98.315C102.7 98.2346 102.656 98.1266 102.656 98.014C102.656 97.9014 102.7 97.7934 102.779 97.713L104.172 96.3112C104.254 96.2319 104.364 96.1875 104.478 96.1875C104.592 96.1875 104.701 96.2319 104.783 96.3112C104.823 96.3512 104.855 96.3987 104.877 96.4511C104.899 96.5035 104.91 96.5597 104.91 96.6165C104.91 96.6733 104.899 96.7295 104.877 96.7819C104.855 96.8343 104.823 96.8818 104.783 96.9218L103.691 98.014L104.783 99.1062C104.824 99.1448 104.857 99.1914 104.879 99.2432C104.902 99.295 104.913 99.3508 104.913 99.4072C104.913 99.4636 104.902 99.5194 104.879 99.5712C104.857 99.623 104.824 99.6696 104.783 99.7082C104.704 99.7892 104.595 99.8356 104.482 99.8372Z" fill="white"/>
<path d="M285.929 96.6881H282.274C282.16 96.6881 282.05 96.6428 281.97 96.5622C281.889 96.4815 281.844 96.3722 281.844 96.2581C281.844 96.1441 281.889 96.0347 281.97 95.9541C282.05 95.8734 282.16 95.8281 282.274 95.8281H285.929C286.043 95.8281 286.152 95.8734 286.233 95.9541C286.313 96.0347 286.359 96.1441 286.359 96.2581C286.359 96.3722 286.313 96.4815 286.233 96.5622C286.152 96.6428 286.043 96.6881 285.929 96.6881Z" fill="white"/>
<path d="M285.929 98.4069H282.274C282.16 98.4069 282.05 98.3616 281.97 98.2809C281.889 98.2003 281.844 98.0909 281.844 97.9769C281.844 97.8628 281.889 97.7535 281.97 97.6728C282.05 97.5922 282.16 97.5469 282.274 97.5469H285.929C286.043 97.5469 286.152 97.5922 286.233 97.6728C286.313 97.7535 286.359 97.8628 286.359 97.9769C286.359 98.0909 286.313 98.2003 286.233 98.2809C286.152 98.3616 286.043 98.4069 285.929 98.4069Z" fill="white"/>
<path d="M285.929 100.126H282.274C282.16 100.126 282.05 100.08 281.97 99.9997C281.889 99.919 281.844 99.8097 281.844 99.6956C281.844 99.5816 281.889 99.4722 281.97 99.3916C282.05 99.3109 282.16 99.2656 282.274 99.2656H285.929C286.043 99.2656 286.152 99.3109 286.233 99.3916C286.313 99.4722 286.359 99.5816 286.359 99.6956C286.359 99.8097 286.313 99.919 286.233 99.9997C286.152 100.08 286.043 100.126 285.929 100.126Z" fill="white"/>
<path d="M350.631 158.717C352.18 152.153 348.115 145.576 341.551 144.027C334.986 142.477 328.409 146.543 326.86 153.107C325.311 159.671 329.376 166.248 335.94 167.797C342.504 169.347 349.082 165.281 350.631 158.717Z" fill="#6553DF"/>
<path d="M331.808 161.953L328.188 171.473L336.237 165.066L331.808 161.953Z" fill="#6553DF"/>
<path d="M343.35 156.36H334.157C334.043 156.358 333.935 156.312 333.855 156.232C333.775 156.151 333.729 156.043 333.727 155.93C333.727 155.816 333.772 155.707 333.853 155.626C333.933 155.545 334.043 155.5 334.157 155.5H343.35C343.464 155.5 343.573 155.545 343.654 155.626C343.735 155.707 343.78 155.816 343.78 155.93C343.778 156.043 343.732 156.151 343.652 156.232C343.571 156.312 343.463 156.358 343.35 156.36Z" fill="white"/>
<path d="M338.758 160.951C338.644 160.951 338.535 160.906 338.454 160.825C338.373 160.744 338.328 160.635 338.328 160.521V151.336C338.328 151.222 338.373 151.113 338.454 151.032C338.535 150.952 338.644 150.906 338.758 150.906C338.872 150.906 338.982 150.952 339.062 151.032C339.143 151.113 339.188 151.222 339.188 151.336V160.521C339.186 160.634 339.14 160.742 339.06 160.823C338.98 160.903 338.871 160.949 338.758 160.951Z" fill="white"/>
<path d="M322.024 176.049C322.024 176.049 310.07 166.469 303.104 181.536C299.165 190.041 302.321 207.99 310.087 214.07C317.853 220.15 334.003 206.476 334.003 206.476C334.003 206.476 337.572 189.138 332.12 181.846C325.137 172.523 322.024 176.049 322.024 176.049Z" fill="#263238"/>
<path d="M305.307 213.028C305.268 213.028 305.229 213.017 305.195 212.995C305.161 212.974 305.135 212.943 305.118 212.907C305.032 212.744 297.069 196.146 301.007 183.667C302.16 180.047 304.155 177.544 306.959 176.245C312.024 173.889 318.027 176.323 318.087 176.349C318.114 176.359 318.138 176.375 318.159 176.395C318.179 176.415 318.195 176.439 318.206 176.466C318.216 176.493 318.221 176.521 318.22 176.55C318.219 176.579 318.211 176.607 318.199 176.632C318.176 176.683 318.135 176.723 318.084 176.744C318.032 176.764 317.975 176.765 317.924 176.744C317.863 176.744 312.024 174.353 307.131 176.632C304.447 177.888 302.53 180.296 301.42 183.796C297.533 196.077 305.419 212.52 305.497 212.684C305.51 212.709 305.518 212.737 305.52 212.765C305.523 212.794 305.52 212.822 305.511 212.85C305.502 212.877 305.488 212.902 305.469 212.924C305.45 212.946 305.428 212.963 305.402 212.976C305.376 213.002 305.343 213.02 305.307 213.028Z" fill="#263238"/>
<path d="M305.646 219.469C305.646 219.469 303.53 238.518 302.842 240.788C302.154 243.059 292.453 255.185 292.453 255.185L295.205 256.612C295.205 256.612 305.525 246.008 307.168 242.852C308.81 239.696 311.261 223.279 311.261 223.279L305.646 219.469Z" fill="#EBB376"/>
<path d="M315.127 227.856L314.594 227.77L307.026 226.532L302.992 225.878C302.992 225.878 303.345 214.311 307.585 211L311.661 214.775L315.127 227.856Z" fill="#6553DF"/>
<path opacity="0.2" d="M314.593 227.775L307.025 226.537C306.431 221.256 309.054 215.641 309.054 215.641C312.434 217.92 314.318 223.415 314.593 227.775Z" fill="black"/>
<path d="M321.654 245.078L315.23 255.252C302.476 252.285 261.601 246.05 256.587 260.068C250.343 277.5 295.433 291.389 320.382 292.241C345.33 293.092 365.351 278.894 349.579 242.516L321.654 245.078Z" fill="#263238"/>
<path opacity="0.2" d="M321.654 245.078L315.23 255.252C302.476 252.285 261.601 246.05 256.587 260.068C250.343 277.5 295.433 291.389 320.382 292.241C345.33 293.092 365.351 278.894 349.579 242.516L321.654 245.078Z" fill="black"/>
<path d="M262.309 283.682C261.938 283.397 261.665 283.003 261.527 282.556C261.503 282.408 261.518 282.256 261.571 282.116C261.624 281.976 261.712 281.852 261.828 281.756C261.89 281.689 261.969 281.64 262.057 281.614C262.145 281.588 262.238 281.587 262.326 281.61C263.186 281.859 263.986 284.259 264.046 284.534C264.06 284.56 264.062 284.591 264.055 284.619C264.047 284.648 264.028 284.673 264.003 284.689C263.977 284.708 263.946 284.718 263.913 284.718C263.881 284.718 263.849 284.708 263.823 284.689C263.286 284.405 262.779 284.068 262.309 283.682ZM262.447 282.031C262.391 281.983 262.327 281.945 262.258 281.919C262.223 281.907 262.184 281.906 262.149 281.917C262.113 281.927 262.082 281.95 262.06 281.98C261.975 282.039 261.91 282.122 261.872 282.219C261.834 282.315 261.824 282.42 261.845 282.521C262.216 283.287 262.847 283.896 263.625 284.241C263.355 283.437 262.941 282.688 262.404 282.031H262.447Z" fill="#263238"/>
<path d="M263.761 284.731V284.662C263.469 283.922 263.391 281.979 263.993 281.549C264.096 281.481 264.219 281.451 264.341 281.464C264.463 281.476 264.577 281.531 264.664 281.618C264.767 281.686 264.856 281.774 264.924 281.878C264.992 281.981 265.038 282.098 265.06 282.22C265.249 283.2 264.096 284.653 264.019 284.722C264 284.744 263.975 284.759 263.948 284.767C263.92 284.775 263.891 284.774 263.864 284.765C263.827 284.767 263.79 284.754 263.761 284.731ZM264.492 281.91L264.432 281.867C264.26 281.747 264.182 281.798 264.148 281.824C263.795 282.065 263.735 283.432 263.924 284.258C264.389 283.693 264.658 282.993 264.69 282.263C264.664 282.126 264.595 282.003 264.492 281.91Z" fill="#263238"/>
<path d="M308.509 290.419C308.696 290.849 308.744 291.327 308.647 291.786C308.596 291.929 308.509 292.055 308.395 292.153C308.28 292.251 308.141 292.318 307.993 292.345C307.906 292.371 307.814 292.374 307.725 292.354C307.636 292.335 307.554 292.293 307.486 292.233C306.884 291.606 307.322 289.103 307.382 288.793C307.386 288.764 307.398 288.736 307.418 288.715C307.439 288.693 307.465 288.678 307.494 288.673C307.527 288.669 307.56 288.675 307.589 288.691C307.618 288.706 307.642 288.73 307.658 288.759C307.995 289.283 308.281 289.839 308.509 290.419ZM307.589 291.803C307.614 291.873 307.652 291.937 307.701 291.993C307.726 292.018 307.758 292.035 307.793 292.043C307.828 292.05 307.865 292.048 307.898 292.036C308.003 292.023 308.101 291.98 308.182 291.913C308.262 291.846 308.322 291.757 308.354 291.657C308.399 290.81 308.14 289.974 307.623 289.301C307.461 290.126 307.45 290.974 307.589 291.803Z" fill="#263238"/>
<path d="M291.323 276.172L301.591 279.827L306.519 281.581L305.255 286.973L300.482 285.959L288.82 283.473L291.323 276.172Z" fill="#EBB376"/>
<path d="M303.921 287.228L304.781 280.864C304.793 280.779 304.821 280.697 304.865 280.624C304.909 280.55 304.967 280.486 305.036 280.436C305.105 280.385 305.183 280.349 305.267 280.329C305.35 280.31 305.436 280.307 305.521 280.322L308.66 280.847C308.66 280.847 312.96 281.242 313.777 282.343C316.262 285.542 314.714 299.672 313.054 300.171C312.452 300.351 311.807 299.517 311.549 298.949C310.689 297.126 309.236 292.362 308.522 290.857C307.662 289.094 305.392 288.225 304.36 287.916C304.216 287.874 304.092 287.781 304.011 287.654C303.93 287.528 303.898 287.376 303.921 287.228Z" fill="#6553DF"/>
<path d="M307.695 288.806V288.875C307.592 289.666 306.715 291.404 305.975 291.455C305.855 291.465 305.736 291.433 305.636 291.366C305.536 291.299 305.461 291.2 305.425 291.085C305.311 290.862 305.289 290.602 305.365 290.363C305.674 289.408 307.386 288.695 307.489 288.643C307.511 288.626 307.538 288.617 307.566 288.617C307.594 288.617 307.621 288.626 307.644 288.643C307.667 288.662 307.685 288.688 307.694 288.717C307.703 288.746 307.704 288.777 307.695 288.806ZM305.683 290.913V290.982C305.778 291.18 305.864 291.163 305.907 291.163C306.337 291.12 307.05 289.959 307.291 289.142C306.801 289.374 305.838 289.916 305.649 290.509C305.605 290.64 305.605 290.782 305.649 290.913H305.683Z" fill="#263238"/>
<path opacity="0.2" d="M291.323 276.172L301.591 279.827L300.482 285.959L288.82 283.473L291.323 276.172Z" fill="black"/>
<path d="M298.653 286.879L295.703 287.094L297.681 276.938L301.027 278.786L298.653 286.879Z" fill="#6553DF"/>
<path opacity="0.6" d="M298.653 286.879L295.703 287.094L297.681 276.938L301.027 278.786L298.653 286.879Z" fill="white"/>
<path opacity="0.2" d="M341.494 247.414L326.117 264.459C326.117 264.459 309.115 264.081 288.475 274.169C288.475 274.169 266.33 265.027 264.292 257.424C261.626 247.466 315.221 255.249 315.221 255.249L341.494 247.414Z" fill="black"/>
<path d="M269.367 259.453V261.982C269.367 262.627 270.133 262.893 270.769 262.893H321.26C321.905 262.893 322.687 262.627 322.687 261.982V259.453H269.367Z" fill="#263238"/>
<path opacity="0.4" d="M269.367 259.453V261.982C269.367 262.627 270.133 262.893 270.769 262.893H321.26C321.905 262.893 322.687 262.627 322.687 261.982V259.453H269.367Z" fill="white"/>
<path opacity="0.2" d="M269.367 259.453V261.982C269.367 262.627 270.133 262.893 270.769 262.893H304.068C304.713 262.893 305.487 262.627 305.487 261.982V259.453H269.367Z" fill="black"/>
<path d="M260.931 233.228L266.951 260.49C267.062 260.926 267.313 261.313 267.666 261.593C268.018 261.873 268.453 262.029 268.903 262.038H301.738C301.943 262.034 302.145 261.982 302.327 261.887C302.509 261.791 302.666 261.654 302.786 261.487C302.905 261.32 302.984 261.127 303.016 260.924C303.047 260.721 303.031 260.513 302.968 260.318L296.948 233.262C296.826 232.849 296.565 232.492 296.209 232.25C295.853 232.009 295.424 231.898 294.995 231.938H262.169C261.283 231.938 260.733 232.333 260.931 233.228Z" fill="#263238"/>
<path opacity="0.4" d="M260.931 233.228L266.951 260.489C267.062 260.926 267.313 261.313 267.666 261.593C268.018 261.873 268.453 262.029 268.903 262.038H300.62C300.826 262.033 301.028 261.981 301.21 261.886C301.392 261.79 301.55 261.654 301.671 261.487C301.791 261.321 301.872 261.128 301.906 260.925C301.94 260.722 301.927 260.514 301.867 260.318L295.847 233.262C295.725 232.849 295.465 232.49 295.109 232.247C294.753 232.004 294.324 231.892 293.895 231.929H262.169C261.283 231.937 260.733 232.333 260.931 233.228Z" fill="white"/>
<path opacity="0.2" d="M277.109 247.082C277.109 249.413 279.612 251.313 281.409 251.313C283.207 251.313 284.333 249.413 283.809 247.082C283.284 244.751 281.461 242.928 279.664 242.859C280.188 245.19 279.07 247.082 277.238 247.082C277.195 247.085 277.152 247.085 277.109 247.082Z" fill="black"/>
<path d="M284.197 287.853L273.447 289.616L268.287 290.468L266.773 285.136L271.452 283.717L282.855 280.242L284.197 287.853Z" fill="#EBB376"/>
<path d="M267.829 284.267L270.151 290.287C270.186 290.368 270.205 290.455 270.205 290.544C270.205 290.632 270.187 290.72 270.151 290.801C270.115 290.881 270.063 290.954 269.998 291.014C269.933 291.073 269.856 291.119 269.772 291.147L266.771 292.214C266.771 292.214 262.841 293.934 261.568 293.383C257.844 291.784 252.357 278.669 253.57 277.43C254.009 276.983 254.972 277.43 255.479 277.774C257.087 278.961 260.682 282.41 262.041 283.381C263.632 284.525 266.057 284.173 267.106 283.94C267.246 283.903 267.394 283.916 267.526 283.975C267.657 284.035 267.764 284.138 267.829 284.267Z" fill="#6553DF"/>
<path opacity="0.2" d="M284.198 287.853L273.448 289.616L271.453 283.717L282.857 280.242L284.198 287.853Z" fill="black"/>
<path d="M273.305 282.598C273.305 282.598 317.165 257.959 332.266 258.655C347.368 259.352 349.578 272.699 343.334 281.015C337.091 289.331 325.567 291.395 325.567 291.395C325.567 291.395 333.419 280.31 332.283 277.188C331.148 274.066 326.711 278.418 326.711 278.418C326.711 278.418 299.13 287.319 275.007 289.4L273.305 282.598Z" fill="#263238"/>
<path d="M272.594 281.926L275.071 280.258L278.261 290.045H274.434L272.594 281.926Z" fill="#6553DF"/>
<path opacity="0.6" d="M272.594 281.926L275.071 280.258L278.261 290.045H274.434L272.594 281.926Z" fill="white"/>
<path d="M349.564 242.508L321.64 245.088C321.64 245.088 317.262 236.024 313.9 232.489C310.537 228.954 307.57 210.989 307.57 210.989C309.841 209.89 312.179 208.937 314.571 208.134C321.459 205.825 328.668 204.611 335.933 204.539H336.088C338.169 204.539 339.373 204.642 339.373 204.642C340.219 205.213 340.903 205.992 341.36 206.904C344.353 212.064 346.735 224.104 348.145 232.747C349.065 238.337 349.564 242.508 349.564 242.508Z" fill="#6553DF"/>
<path opacity="0.2" d="M348.153 232.757C341.996 229.936 333.594 225.163 334.032 220.321C334.505 215.007 338.814 209.657 341.368 206.914C344.361 212.074 346.743 224.114 348.153 232.757Z" fill="black"/>
<path opacity="0.4" d="M332.013 229.236C333.424 233.287 331.54 237.174 327.816 237.905C324.093 238.636 319.93 235.953 318.528 231.885C317.127 227.817 318.993 223.947 322.725 223.207C326.458 222.468 330.611 225.185 332.013 229.236Z" fill="white"/>
<path d="M320.016 236.758L321.77 222.25L333.337 234.78L320.016 236.758Z" fill="#6553DF"/>
<path d="M336.091 204.548C335.312 208.038 333.658 211.273 331.284 213.947C330.761 214.509 330.185 215.018 329.564 215.47C327.832 216.722 325.773 217.445 323.639 217.551C319.794 217.783 317.739 216.106 316.535 214.008C315.901 212.821 315.43 211.554 315.133 210.241C314.935 209.458 314.781 208.727 314.617 208.142L315.967 207.704C316.647 207.489 317.309 207.291 317.971 207.102C322.246 205.913 326.622 205.127 331.043 204.754L332.849 204.634C334.019 204.573 335.051 204.548 335.937 204.539L336.091 204.548Z" fill="#EBB376"/>
<path d="M319.354 206.373C319.303 208.093 318.314 208.532 318.314 208.532C318.23 209.064 318.269 209.609 318.428 210.124C318.587 210.639 318.862 211.11 319.231 211.503C319.6 211.896 320.054 212.198 320.559 212.388C321.063 212.579 321.604 212.651 322.141 212.6C327.619 212.041 329.347 205.444 329.347 205.444C325.366 203.862 324.463 199.424 324.299 196.844C324.251 196.16 324.251 195.473 324.299 194.789L316.852 199.485C317.48 200.531 318.035 201.62 318.511 202.744C319.035 203.884 319.321 205.119 319.354 206.373Z" fill="#EBB376"/>
<path opacity="0.2" d="M317.352 198.91C317.871 200.025 318.313 201.174 318.676 202.35C319.079 203.538 319.237 204.796 319.14 206.048C323.329 206.375 324.988 197.121 324.988 197.121L325.031 197.069C325.05 196.386 325.119 195.705 325.238 195.031L317.352 198.91Z" fill="black"/>
<path d="M311.242 180.299C304.036 182.492 302.892 187.059 304.629 194.644C306.796 204.104 310.864 210.124 319.249 205.359C330.678 198.935 323.205 176.653 311.242 180.299Z" fill="#EBB376"/>
<path d="M309.163 192.82C308.916 194.073 308.52 195.291 307.984 196.45C308.285 196.683 308.644 196.828 309.022 196.869C309.4 196.91 309.782 196.845 310.126 196.682L309.163 192.82Z" fill="#D58745"/>
<path d="M313.387 190.884C313.559 191.478 314.015 191.873 314.41 191.744C314.806 191.615 314.995 191.065 314.823 190.463C314.651 189.861 314.204 189.474 313.808 189.603C313.413 189.732 313.223 190.291 313.387 190.884Z" fill="#263238"/>
<path d="M313.983 189.584L312.547 189.438C312.547 189.438 313.493 190.349 313.983 189.584Z" fill="#263238"/>
<path d="M305.954 192.837C306.118 193.431 306.574 193.826 306.969 193.697C307.365 193.568 307.554 193.009 307.391 192.416C307.227 191.822 306.763 191.427 306.367 191.556C305.972 191.685 305.782 192.235 305.954 192.837Z" fill="#263238"/>
<path d="M306.538 191.545L305.102 191.398C305.102 191.398 306.056 192.301 306.538 191.545Z" fill="#263238"/>
<path d="M315.402 186.338C315.341 186.338 315.281 186.32 315.23 186.286C314.746 186.032 314.211 185.89 313.664 185.871C313.118 185.852 312.574 185.956 312.074 186.175C312.036 186.192 311.996 186.201 311.955 186.202C311.914 186.204 311.873 186.197 311.835 186.183C311.797 186.168 311.762 186.147 311.732 186.119C311.702 186.091 311.678 186.057 311.661 186.02C311.644 185.983 311.634 185.942 311.633 185.901C311.632 185.861 311.638 185.82 311.653 185.781C311.667 185.743 311.689 185.708 311.717 185.678C311.745 185.648 311.778 185.624 311.816 185.607C312.412 185.341 313.062 185.218 313.714 185.246C314.366 185.275 315.003 185.454 315.574 185.77C315.608 185.793 315.637 185.822 315.66 185.856C315.682 185.89 315.698 185.928 315.706 185.968C315.714 186.008 315.714 186.049 315.706 186.089C315.698 186.129 315.682 186.167 315.66 186.2C315.633 186.244 315.594 186.28 315.549 186.304C315.504 186.328 315.453 186.34 315.402 186.338Z" fill="#263238"/>
<path d="M303.926 188.957C303.853 188.961 303.782 188.936 303.728 188.888C303.695 188.863 303.668 188.832 303.647 188.795C303.627 188.759 303.615 188.719 303.611 188.678C303.607 188.637 303.611 188.596 303.624 188.556C303.637 188.517 303.657 188.481 303.685 188.45C304.024 187.979 304.465 187.591 304.977 187.317C305.488 187.043 306.055 186.889 306.635 186.867C306.675 186.869 306.715 186.88 306.752 186.897C306.789 186.915 306.821 186.94 306.849 186.97C306.876 187 306.897 187.036 306.91 187.074C306.924 187.113 306.929 187.153 306.927 187.194C306.921 187.276 306.883 187.353 306.823 187.409C306.762 187.464 306.683 187.495 306.6 187.495C306.118 187.518 305.648 187.651 305.225 187.886C304.803 188.12 304.441 188.448 304.166 188.845C304.137 188.88 304.1 188.908 304.058 188.927C304.017 188.947 303.971 188.957 303.926 188.957Z" fill="#263238"/>
<path d="M322.812 190.026C322.812 190.026 317.652 185.141 316.792 180.411C316.792 180.411 300.736 178.931 304.451 193.638C304.451 193.638 299.127 181.202 311.425 177.134C323.723 173.066 329.193 191.204 324.446 198.557C324.411 198.557 326.02 193.096 322.812 190.026Z" fill="#263238"/>
<path d="M322.107 191.914C322.015 191.491 322.007 191.054 322.083 190.628C322.16 190.202 322.32 189.795 322.554 189.431C322.788 189.067 323.092 188.752 323.447 188.505C323.803 188.258 324.204 188.084 324.627 187.992C326.932 187.554 329.4 191.811 324.18 194.606C323.431 195.01 322.743 194.365 322.107 191.914Z" fill="#EBB376"/>
<path d="M311.79 199.93C311.715 199.918 311.648 199.879 311.599 199.822C311.55 199.764 311.523 199.691 311.523 199.616C311.523 199.541 311.55 199.468 311.599 199.41C311.648 199.353 311.715 199.315 311.79 199.302C312.603 199.327 313.398 199.052 314.021 198.528C314.645 198.005 315.053 197.27 315.169 196.464C315.18 196.383 315.222 196.31 315.287 196.26C315.351 196.21 315.432 196.188 315.513 196.198C315.595 196.208 315.669 196.25 315.72 196.314C315.771 196.378 315.796 196.46 315.789 196.542C315.642 197.49 315.159 198.354 314.428 198.977C313.697 199.599 312.767 199.937 311.807 199.93H311.79Z" fill="#263238"/>
<path d="M333.301 197.72C333.252 197.721 333.204 197.704 333.166 197.672C333.128 197.64 333.103 197.596 333.094 197.548C333.094 197.505 332.295 193.566 324.709 191.356C316.823 189.06 316.281 179.6 316.281 179.505C316.28 179.477 316.285 179.449 316.294 179.422C316.304 179.396 316.319 179.371 316.338 179.35C316.357 179.33 316.381 179.313 316.406 179.301C316.432 179.289 316.46 179.283 316.488 179.281C316.516 179.28 316.544 179.285 316.571 179.294C316.597 179.304 316.622 179.319 316.642 179.338C316.663 179.357 316.68 179.381 316.692 179.406C316.704 179.432 316.71 179.46 316.711 179.488C316.711 179.582 317.245 188.741 324.83 190.943C332.699 193.239 333.49 197.298 333.516 197.47C333.524 197.526 333.51 197.582 333.478 197.629C333.447 197.675 333.399 197.707 333.344 197.72H333.301Z" fill="#263238"/>
<path d="M336.092 214.062C336.092 214.062 335.18 232.441 333.632 236.56C332.084 240.68 315.839 255.901 315.839 255.901C315.839 255.901 311.307 254.887 310.558 255.188C309.81 255.489 305.484 259.488 305.484 259.488H317.98L319.072 257.553C319.072 257.553 335.877 245.108 337.726 242.133C339.093 239.94 343.488 217.614 343.488 217.614L336.092 214.062Z" fill="#EBB376"/>
<path d="M339.385 204.648C350.694 207.426 345.405 224.428 345.405 224.428L333.641 221.547C333.641 221.547 333.641 203.237 339.385 204.648Z" fill="#6553DF"/>
<path d="M331.29 213.947C330.767 214.508 330.191 215.018 329.57 215.469C328.999 211.829 329.514 208.102 331.05 204.753L332.856 204.633C331.656 207.585 331.122 210.765 331.29 213.947Z" fill="#263238"/>
<path d="M317.924 207.102C317.052 209.295 316.566 211.623 316.488 213.982C315.854 212.794 315.382 211.527 315.086 210.215C315.312 209.35 315.599 208.502 315.946 207.678C316.6 207.489 317.262 207.334 317.924 207.102Z" fill="#263238"/>
<path opacity="0.4" d="M331.29 213.947C330.767 214.508 330.191 215.018 329.57 215.469C328.999 211.829 329.514 208.102 331.05 204.753L332.856 204.633C331.656 207.585 331.122 210.765 331.29 213.947Z" fill="white"/>
<path opacity="0.4" d="M317.924 207.102C317.052 209.295 316.566 211.623 316.488 213.982C315.854 212.794 315.382 211.527 315.086 210.215C315.312 209.35 315.599 208.502 315.946 207.678C316.6 207.489 317.262 207.334 317.924 207.102Z" fill="white"/>
</svg>
