<svg width="350" height="323" viewBox="0 0 350 323" fill="none" xmlns="http://www.w3.org/2000/svg">
<path d="M285.6 62.5994C285.6 62.5994 268.8 24.7994 231.7 19.1994C194.6 13.5994 168.7 40.8994 141.4 54.8994C127.106 62.2284 110.775 59.3864 95.5993 62.9354C47.0683 74.2824 28.7843 145.367 49.0003 185.799C66.5003 220.799 97.3003 238.999 144.2 243.199C191.1 247.399 224 252.299 266 217.999C308 183.699 305.2 112.299 285.6 62.5994Z" fill="#6553DF"/>
<path opacity="0.7" d="M285.6 62.5994C285.6 62.5994 268.8 24.7994 231.7 19.1994C194.6 13.5994 168.7 40.8994 141.4 54.8994C127.106 62.2284 110.775 59.3864 95.5993 62.9354C47.0683 74.2824 28.7843 145.367 49.0003 185.799C66.5003 220.799 97.3003 238.999 144.2 243.199C191.1 247.399 224 252.299 266 217.999C308 183.699 305.2 112.299 285.6 62.5994Z" fill="white"/>
<path d="M275.102 111.133V117.202H299.833" stroke="#263238" stroke-linecap="round" stroke-linejoin="round"/>
<path d="M287.228 118.602V125.602H271.828" stroke="#263238" stroke-linecap="round" stroke-linejoin="round"/>
<path d="M275.57 127.93V133.53H295.632" stroke="#263238" stroke-linecap="round" stroke-linejoin="round"/>
<path d="M293.766 126.07H304.966" stroke="#263238" stroke-linecap="round" stroke-linejoin="round"/>
<path d="M287.227 136.328V144.266" stroke="#263238" stroke-linecap="round" stroke-linejoin="round"/>
<path d="M302.633 116.272V110.203" stroke="#263238" stroke-linecap="round" stroke-linejoin="round"/>
<path d="M288.164 108.328V101.797" stroke="#263238" stroke-linecap="round" stroke-linejoin="round"/>
<path d="M296.57 109.266H311.032" stroke="#263238" stroke-linecap="round" stroke-linejoin="round"/>
<path d="M248.969 44.8672V50.9292H273.7" stroke="#263238" stroke-linecap="round" stroke-linejoin="round"/>
<path d="M261.095 52.3281V59.3281H245.695" stroke="#263238" stroke-linecap="round" stroke-linejoin="round"/>
<path d="M249.43 61.6719V67.2719H269.499" stroke="#263238" stroke-linecap="round" stroke-linejoin="round"/>
<path d="M267.633 59.7969H278.833" stroke="#263238" stroke-linecap="round" stroke-linejoin="round"/>
<path d="M261.102 70.0703V78.0013" stroke="#263238" stroke-linecap="round" stroke-linejoin="round"/>
<path d="M276.5 49.9987V43.9297" stroke="#263238" stroke-linecap="round" stroke-linejoin="round"/>
<path d="M262.031 42.0692V35.5312" stroke="#263238" stroke-linecap="round" stroke-linejoin="round"/>
<path d="M270.43 43H284.899" stroke="#263238" stroke-linecap="round" stroke-linejoin="round"/>
<path d="M176.164 198.398V204.467H200.895" stroke="#263238" stroke-linecap="round" stroke-linejoin="round"/>
<path d="M188.298 205.867V212.867H172.898" stroke="#263238" stroke-linecap="round" stroke-linejoin="round"/>
<path d="M176.633 215.203V220.803H196.702" stroke="#263238" stroke-linecap="round" stroke-linejoin="round"/>
<path d="M194.828 213.328H206.028" stroke="#263238" stroke-linecap="round" stroke-linejoin="round"/>
<path d="M188.297 223.602V231.533" stroke="#263238" stroke-linecap="round" stroke-linejoin="round"/>
<path d="M203.695 203.531V197.469" stroke="#263238" stroke-linecap="round" stroke-linejoin="round"/>
<path d="M189.227 195.601V189.07" stroke="#263238" stroke-linecap="round" stroke-linejoin="round"/>
<path d="M197.633 196.531H212.102" stroke="#263238" stroke-linecap="round" stroke-linejoin="round"/>
<path d="M66.9688 172.266V178.328H91.6998" stroke="#263238" stroke-linecap="round" stroke-linejoin="round"/>
<path d="M79.0953 179.734V186.734H63.6953" stroke="#263238" stroke-linecap="round" stroke-linejoin="round"/>
<path d="M67.4297 189.07V194.67H87.4987" stroke="#263238" stroke-linecap="round" stroke-linejoin="round"/>
<path d="M85.6328 187.203H96.8328" stroke="#263238" stroke-linecap="round" stroke-linejoin="round"/>
<path d="M79.1016 197.469V205.4" stroke="#263238" stroke-linecap="round" stroke-linejoin="round"/>
<path d="M94.5 177.397V171.328" stroke="#263238" stroke-linecap="round" stroke-linejoin="round"/>
<path d="M80.0312 169.468V162.93" stroke="#263238" stroke-linecap="round" stroke-linejoin="round"/>
<path d="M88.4297 170.398H102.899" stroke="#263238" stroke-linecap="round" stroke-linejoin="round"/>
<path d="M205.102 215.203V221.272H229.833" stroke="#263238" stroke-linecap="round" stroke-linejoin="round"/>
<path d="M217.228 222.672V229.672H201.828" stroke="#263238" stroke-linecap="round" stroke-linejoin="round"/>
<path d="M205.57 232V237.6H225.632" stroke="#263238" stroke-linecap="round" stroke-linejoin="round"/>
<path d="M223.766 230.133H234.966" stroke="#263238" stroke-linecap="round" stroke-linejoin="round"/>
<path d="M217.227 240.398V248.329" stroke="#263238" stroke-linecap="round" stroke-linejoin="round"/>
<path d="M232.633 220.328V214.266" stroke="#263238" stroke-linecap="round" stroke-linejoin="round"/>
<path d="M218.164 212.398V205.867" stroke="#263238" stroke-linecap="round" stroke-linejoin="round"/>
<path d="M226.57 213.328H241.032" stroke="#263238" stroke-linecap="round" stroke-linejoin="round"/>
<path d="M114.57 215.203V221.272H139.301" stroke="#263238" stroke-linecap="round" stroke-linejoin="round"/>
<path d="M126.697 222.672V229.672H111.297" stroke="#263238" stroke-linecap="round" stroke-linejoin="round"/>
<path d="M115.031 232V237.6H135.1" stroke="#263238" stroke-linecap="round" stroke-linejoin="round"/>
<path d="M133.227 230.133H144.427" stroke="#263238" stroke-linecap="round" stroke-linejoin="round"/>
<path d="M126.695 240.398V248.329" stroke="#263238" stroke-linecap="round" stroke-linejoin="round"/>
<path d="M142.102 220.328V214.266" stroke="#263238" stroke-linecap="round" stroke-linejoin="round"/>
<path d="M127.633 212.398V205.867" stroke="#263238" stroke-linecap="round" stroke-linejoin="round"/>
<path d="M136.031 213.328H150.5" stroke="#263238" stroke-linecap="round" stroke-linejoin="round"/>
<path d="M50.1641 111.133V117.202H74.8951" stroke="#263238" stroke-linecap="round" stroke-linejoin="round"/>
<path d="M62.2984 118.602V125.602H46.8984" stroke="#263238" stroke-linecap="round" stroke-linejoin="round"/>
<path d="M50.6328 127.93V133.53H70.7018" stroke="#263238" stroke-linecap="round" stroke-linejoin="round"/>
<path d="M68.8281 126.07H80.0281" stroke="#263238" stroke-linecap="round" stroke-linejoin="round"/>
<path d="M62.2969 136.328V144.266" stroke="#263238" stroke-linecap="round" stroke-linejoin="round"/>
<path d="M77.6953 116.272V110.203" stroke="#263238" stroke-linecap="round" stroke-linejoin="round"/>
<path d="M63.2266 108.328V101.797" stroke="#263238" stroke-linecap="round" stroke-linejoin="round"/>
<path d="M71.6328 109.266H86.1018" stroke="#263238" stroke-linecap="round" stroke-linejoin="round"/>
<path d="M90.7656 55.6016V61.6706H115.497" stroke="#263238" stroke-linecap="round" stroke-linejoin="round"/>
<path d="M102.9 63.0703V70.0703H87.5" stroke="#263238" stroke-linecap="round" stroke-linejoin="round"/>
<path d="M91.2266 72.3984V77.9984H111.296" stroke="#263238" stroke-linecap="round" stroke-linejoin="round"/>
<path d="M109.43 70.5312H120.63" stroke="#263238" stroke-linecap="round" stroke-linejoin="round"/>
<path d="M102.898 80.7969V88.7279" stroke="#263238" stroke-linecap="round" stroke-linejoin="round"/>
<path d="M118.297 60.7339V54.6719" stroke="#263238" stroke-linecap="round" stroke-linejoin="round"/>
<path d="M103.828 52.7966V46.2656" stroke="#263238" stroke-linecap="round" stroke-linejoin="round"/>
<path d="M112.227 53.7344H126.696" stroke="#263238" stroke-linecap="round" stroke-linejoin="round"/>
<path d="M245.695 158.266V164.328H270.426" stroke="#263238" stroke-linecap="round" stroke-linejoin="round"/>
<path d="M257.83 165.734V172.734H242.43" stroke="#263238" stroke-linecap="round" stroke-linejoin="round"/>
<path d="M246.164 175.07V180.67H266.226" stroke="#263238" stroke-linecap="round" stroke-linejoin="round"/>
<path d="M264.367 173.203H275.567" stroke="#263238" stroke-linecap="round" stroke-linejoin="round"/>
<path d="M257.828 183.469V191.4" stroke="#263238" stroke-linecap="round" stroke-linejoin="round"/>
<path d="M273.227 163.397V157.328" stroke="#263238" stroke-linecap="round" stroke-linejoin="round"/>
<path d="M258.766 155.468V148.93" stroke="#263238" stroke-linecap="round" stroke-linejoin="round"/>
<path d="M267.164 156.398H281.626" stroke="#263238" stroke-linecap="round" stroke-linejoin="round"/>
<path d="M61.6016 253H299.602" stroke="#263238" stroke-linecap="round" stroke-linejoin="round"/>
<path d="M108.734 276.8C129.738 276.8 146.765 271.472 146.765 264.9C146.765 258.328 129.738 253 108.734 253C87.7302 253 70.7031 258.328 70.7031 264.9C70.7031 271.472 87.7302 276.8 108.734 276.8Z" fill="#6553DF"/>
<path opacity="0.5" d="M108.734 276.8C129.738 276.8 146.765 271.472 146.765 264.9C146.765 258.328 129.738 253 108.734 253C87.7302 253 70.7031 258.328 70.7031 264.9C70.7031 271.472 87.7302 276.8 108.734 276.8Z" fill="white"/>
<path d="M117.57 35.5294V192.329H254.77V30.3984H149.301L117.57 35.5294Z" fill="#6553DF" stroke="#263238" stroke-miterlimit="10"/>
<path d="M238.866 131.901C238.863 130.487 238.312 129.129 237.33 128.112C236.347 127.095 235.008 126.499 233.595 126.448C233.477 126.485 233.354 126.504 233.231 126.504C233.097 126.503 232.965 126.479 232.839 126.434H232.741C232.528 126.341 232.347 126.187 232.221 125.993C232.094 125.798 232.026 125.571 232.026 125.339C232.026 125.107 232.094 124.879 232.221 124.685C232.347 124.49 232.528 124.337 232.741 124.243H232.797C232.936 124.191 233.082 124.162 233.231 124.159C233.355 124.161 233.477 124.183 233.595 124.222C235.013 124.119 236.339 123.485 237.311 122.447C238.282 121.409 238.827 120.044 238.838 118.622V117.201C238.838 116.458 238.691 115.722 238.407 115.035C238.122 114.349 237.705 113.725 237.179 113.199C236.653 112.674 236.028 112.258 235.341 111.974C234.654 111.69 233.918 111.544 233.175 111.545C232.872 111.522 232.59 111.386 232.383 111.163C232.177 110.94 232.062 110.648 232.062 110.345C232.062 110.041 232.177 109.749 232.383 109.527C232.59 109.304 232.872 109.167 233.175 109.144H233.245C234.624 109.128 235.942 108.568 236.911 107.587C237.881 106.605 238.425 105.281 238.425 103.901V101.493C238.425 100.101 237.872 98.7655 236.887 97.781C235.902 96.7964 234.567 96.2433 233.175 96.2433H200.59C200.965 93.5221 201.477 90.8214 202.123 88.1513C202.998 84.8753 206.932 80.0593 207.59 74.1513C208.248 68.2433 203.873 56.8683 198.623 55.7763C193.373 54.6843 192.281 58.8353 192.498 64.7433C192.715 70.6513 184.623 81.1443 179.156 86.6183C173.689 92.0923 166.969 100.947 166.969 100.947L167.347 142.828L174.123 146.104C180.906 149.387 188.781 149.604 188.781 149.604H229.605C230.765 149.604 231.878 149.143 232.698 148.323C233.519 147.502 233.98 146.39 233.98 145.229V144.137C233.98 141.722 233.147 140.378 231.425 139.762C231.131 139.73 230.86 139.591 230.663 139.372C230.466 139.152 230.357 138.867 230.357 138.572C230.357 138.277 230.466 137.993 230.663 137.773C230.86 137.553 231.131 137.414 231.425 137.382H233.399C234.118 137.382 234.83 137.24 235.494 136.965C236.158 136.689 236.762 136.285 237.269 135.776C237.777 135.267 238.18 134.663 238.454 133.998C238.728 133.333 238.868 132.62 238.866 131.901Z" fill="white" stroke="#263238" stroke-width="5" stroke-linecap="round" stroke-linejoin="round"/>
<path d="M163.718 95.7188H142.963C140.481 95.7188 138.469 97.7308 138.469 100.213V147.001C138.469 149.483 140.481 151.495 142.963 151.495H163.718C166.2 151.495 168.212 149.483 168.212 147.001V100.213C168.212 97.7308 166.2 95.7188 163.718 95.7188Z" fill="#263238"/>
<path d="M140.7 107.4L133.231 85.2306C132.911 84.0048 132.677 82.7581 132.531 81.4996C132.531 80.5686 136.248 75.1996 136.248 75.1996C136.248 75.1996 135.38 72.6936 136.794 72.2596C138.208 71.8256 141.477 74.9826 141.806 75.5286C142.135 76.0746 142.023 77.1596 141.589 78.1396C141.155 79.1196 138.208 85.2236 137.774 85.5456C137.34 85.8676 142.891 95.2406 146.594 100.47C150.297 105.699 153.594 110.487 152.803 112.559C152.012 114.631 148.561 112.993 145.943 111.796C144.007 110.768 142.243 109.446 140.714 107.876L140.7 107.4Z" fill="white" stroke="#263238" stroke-linecap="round" stroke-linejoin="round"/>
<path d="M137.422 74.7734L138.927 75.9004" stroke="#263238" stroke-linecap="round" stroke-linejoin="round"/>
<path d="M84.2457 157.011C84.2457 157.011 85.6457 161.211 89.5727 162.163C93.4997 163.115 104.042 150.102 104.042 150.102L104.504 146.133L88.6417 148.002C88.6417 148.002 83.5457 150.942 84.2457 157.011Z" fill="white" stroke="#263238" stroke-linecap="round" stroke-linejoin="round"/>
<path d="M143.707 32.2692C143.707 32.2692 140.445 39.5002 140.445 40.2002C140.445 40.9002 140.529 41.3062 141.908 41.6002C143.287 41.8942 156.209 44.3582 158.645 43.7002C160.423 43.2452 161.907 34.3692 161.907 34.3692C160.455 34.0009 158.972 33.7666 157.476 33.6692C155.845 33.6692 151.407 33.2002 151.407 33.2002L149.545 34.8313L150.245 32.7313L147.445 32.2692L146.745 33.9002L146.304 32.0312L143.707 32.2692Z" fill="white" stroke="#263238" stroke-miterlimit="10"/>
<path d="M158.645 43.6949C159.345 43.5129 160.045 41.9239 160.591 40.1039L141.285 37.8359C140.933 38.5945 140.651 39.3842 140.445 40.1949C140.445 40.8949 140.529 41.3009 141.908 41.5949C143.287 41.8889 156.209 44.3179 158.645 43.6949Z" fill="#263238" stroke="#263238" stroke-miterlimit="10"/>
<path d="M87.883 190.29C87.7099 190.289 87.5398 190.245 87.3878 190.162C87.2357 190.079 87.1063 189.96 87.0109 189.816C86.9155 189.671 86.857 189.506 86.8407 189.333C86.8243 189.161 86.8505 188.987 86.917 188.827L149.217 41.1273C149.326 40.8702 149.532 40.6667 149.791 40.5617C150.049 40.4567 150.339 40.4587 150.596 40.5673C150.853 40.6759 151.057 40.8822 151.162 41.1408C151.267 41.3994 151.265 41.6892 151.156 41.9463L88.856 189.646C88.7742 189.837 88.6385 189.999 88.4657 190.114C88.2928 190.228 88.0903 190.289 87.883 190.29Z" fill="#263238" stroke="#263238" stroke-miterlimit="10"/>
<path d="M133.847 87.096C133.847 87.096 132.447 83.771 133.063 78.472C133.245 76.897 134.918 74.769 135.023 74.006C135.128 73.243 134.477 72.375 135.457 72.375C136.437 72.375 137.417 73.677 137.417 74.769C137.417 75.861 136.661 77.569 136.766 78.038C136.799 78.7281 136.764 79.4198 136.661 80.103" fill="white"/>
<path d="M133.847 87.096C133.847 87.096 132.447 83.771 133.063 78.472C133.245 76.897 134.918 74.769 135.023 74.006C135.128 73.243 134.477 72.375 135.457 72.375C136.437 72.375 137.417 73.677 137.417 74.769C137.417 75.861 136.661 77.569 136.766 78.038C136.799 78.7281 136.764 79.4198 136.661 80.103" stroke="#263238" stroke-linecap="round" stroke-linejoin="round"/>
<path d="M117.259 84.4479C117.259 84.4479 120.409 87.8499 120.759 88.7319C121.109 89.6139 121.011 91.5319 121.011 91.8819C121.011 92.2319 122.019 92.7639 122.271 93.5199C122.523 94.2759 124.288 99.4349 124.288 100.191C124.288 100.947 123.153 101.955 122.019 102.459L119.5 103.593L119.121 107.625L109.321 109.137L108.188 104.853C108.188 104.853 111.337 103.971 111.688 101.199C112.037 98.4269 107.782 94.5279 108.79 90.1179C109.798 85.7079 114.361 83.4399 117.259 84.4479Z" fill="white" stroke="#263238" stroke-linecap="round" stroke-linejoin="round"/>
<path d="M116.502 84.6996C116.073 85.881 115.777 87.1066 115.62 88.3536C115.62 89.4876 118.266 89.2356 118.266 90.6216C118.146 91.7686 117.803 92.8813 117.258 93.8976C117.258 93.8976 118.658 95.2976 118.392 95.9976C118.126 96.6976 116.992 97.5096 116.628 96.6276C116.264 95.7456 114.612 96.1236 115.228 97.8876C115.652 99.0104 116.295 100.038 117.118 100.912C116.616 102.3 115.796 103.551 114.724 104.566C112.834 106.456 109.936 107.086 109.18 106.582C108.424 106.078 104.28 102.802 102.131 99.7776C99.9818 96.7536 98.0988 92.0776 99.9888 87.3106C100.632 85.72 101.658 84.3127 102.976 83.2137C104.293 82.1147 105.862 81.3579 107.542 81.0106C108.802 80.7586 105.4 80.3806 106.66 78.6166C107.92 76.8526 111.448 75.5926 113.464 76.6006C115.48 77.6086 114.864 78.8686 115.984 79.2466C117.104 79.6246 118.252 77.7346 119.386 79.3726C120.52 81.0106 121.801 86.2116 116.502 84.6996Z" fill="#263238" stroke="#263238" stroke-linecap="round" stroke-linejoin="round"/>
<path d="M115.623 88.3516C115.623 88.3516 115.154 93.8396 112.193 97.1786C109.232 100.518 104.031 101.26 104.031 101.26" stroke="white" stroke-linecap="round" stroke-linejoin="round"/>
<path d="M108.188 104.848C108.188 104.848 111.078 104.96 114.41 101.992" stroke="white" stroke-linecap="round" stroke-linejoin="round"/>
<path d="M118.014 97.6655C118.014 97.6655 116.124 94.6485 115.116 95.7755C114.108 96.9025 115.368 100.312 117.132 100.942C118.896 101.572 119.526 100.438 119.526 100.438" fill="white"/>
<path d="M118.014 97.6655C118.014 97.6655 116.124 94.6485 115.116 95.7755C114.108 96.9025 115.368 100.312 117.132 100.942C118.896 101.572 119.526 100.438 119.526 100.438" stroke="#263238" stroke-linecap="round" stroke-linejoin="round"/>
<path d="M103.906 111.777C103.906 111.777 104.529 108.977 105.789 108.123C107.049 107.269 116.373 106.233 118.893 105.981C121.413 105.729 124.059 107.241 124.059 107.241L125.319 109.383L103.906 111.777Z" fill="white" stroke="#263238" stroke-linecap="round" stroke-linejoin="round"/>
<path d="M85.4015 147.067C85.4015 147.067 82.8325 149.867 82.3705 151.267C81.9085 152.667 81.6705 155.698 84.2325 157.567C86.7945 159.436 90.7705 159.898 92.6325 158.967C94.4945 158.036 95.6705 156.167 95.6705 153.129C95.7106 151.447 95.3908 149.777 94.7325 148.229C94.7325 148.229 88.6425 144.498 85.4015 147.067Z" fill="white" stroke="#263238" stroke-linecap="round" stroke-linejoin="round"/>
<path d="M137.641 109.264C137.641 109.264 139.503 105.995 143.003 105.764C146.503 105.533 148.372 105.995 150.941 108.326C153.51 110.657 155.4 114.164 154 116.495C152.6 118.826 151.2 119.995 148.4 120.226C145.6 120.457 142.8 117.195 142.8 117.195L137.641 109.264Z" fill="white" stroke="#263238" stroke-linecap="round" stroke-linejoin="round"/>
<path d="M120.607 256.027C120.607 256.027 128.076 255.565 129.476 257.427C130.876 259.289 130.057 262.047 125.052 264.826C120.684 267.255 110.709 269.726 107.356 269.026C103.436 268.27 105.676 261.137 105.676 261.137C105.676 261.137 116.407 261.627 120.607 256.027Z" fill="white" stroke="#263238" stroke-linecap="round" stroke-linejoin="round"/>
<path d="M129.39 257.336C128.8 259.227 127.724 260.929 126.268 262.271C123.153 265.071 115.922 266.828 111.358 267.5C109.29 267.839 107.168 267.612 105.219 266.842C105.303 267.386 105.553 267.89 105.935 268.287C106.318 268.683 106.813 268.951 107.354 269.054C110.707 269.705 120.654 267.255 125.05 264.854C130.055 262.054 130.874 259.324 129.474 257.455L129.39 257.336Z" fill="#263238" stroke="#263238" stroke-linecap="round" stroke-linejoin="round"/>
<path d="M84.906 258.129C84.906 258.129 83.975 262.329 85.144 264.198C86.313 266.067 92.606 266.998 94.944 265.829C97.282 264.66 97.975 261.629 97.975 258.829C97.975 256.029 94.006 261.867 84.906 258.129Z" fill="white" stroke="#263238" stroke-linecap="round" stroke-linejoin="round"/>
<path d="M84.5859 262.227C84.616 262.918 84.8052 263.594 85.1389 264.201C86.3009 266.07 92.6009 267.001 94.9389 265.832C95.908 265.318 96.6715 264.488 97.1019 263.48C90.2979 265.874 86.2239 263.571 84.5859 262.227Z" fill="#263238" stroke="#263238" stroke-linecap="round" stroke-linejoin="round"/>
<path d="M98.2074 158.97C98.2074 158.97 96.5764 167.601 96.8074 169.232C97.0384 170.863 97.7454 174.832 97.7454 174.832C97.7454 174.832 92.1454 208.201 91.6764 216.37C91.2074 224.539 87.9454 239.001 87.0074 244.37C86.0694 249.739 85.6074 254.87 84.2074 256.97C82.8074 259.07 86.0764 260.701 87.7074 261.632C89.3384 262.563 95.8764 261.401 96.8074 260.932C97.7384 260.463 98.4454 257.67 98.6764 255.57C98.9074 253.47 104.045 240.401 105.004 232.001C105.963 223.601 111.773 192.801 112.235 190.47C112.697 188.139 113.873 181.37 113.873 181.37C113.873 181.37 112.235 209.601 112.004 217.07C111.773 224.539 107.804 234.101 107.104 240.632C106.404 247.163 105.473 253.001 105.473 255.57C105.473 258.139 104.773 262.801 106.173 263.732C107.573 264.663 110.135 263.97 114.104 262.801C118.073 261.632 120.635 259.07 120.873 257.201C121.111 255.332 121.573 254.401 121.573 253.232C121.573 252.063 126.004 227.57 128.804 214.732C131.604 201.894 133.473 184.87 131.835 175.07C130.859 169.285 130.314 163.436 130.204 157.57C130.204 157.57 108.707 163.401 98.2074 158.97Z" fill="#263238" stroke="#263238" stroke-linecap="round" stroke-linejoin="round"/>
<path d="M113.839 181.368L107.07 176.93" stroke="white" stroke-linecap="round" stroke-linejoin="round"/>
<path d="M105 111.133C105 111.133 90.0688 115.333 89.5998 119.302C89.1308 123.271 86.0998 139.371 85.3998 144.033C84.6998 148.695 82.8308 152.671 85.8688 155.002C88.9068 157.333 93.0998 155.702 94.0308 153.833C94.9618 151.964 96.8308 147.533 96.8308 147.533C96.8308 147.533 97.2998 156.633 97.2998 158.033C97.2998 159.433 97.5308 161.533 102.2 162.002C106.869 162.471 116.2 162.933 120.631 161.771C125.062 160.609 129.731 160.371 130.2 157.571C130.669 154.771 129.269 145.433 130.2 140.071C131.131 134.709 131.831 126.071 131.831 126.071C131.831 126.071 148.4 119.302 150.969 118.371C153.538 117.44 150.731 110.902 147.931 109.271C145.131 107.64 142.1 107.633 138.369 108.333C134.638 109.033 129.969 108.102 127.631 108.102C125.293 108.102 105 111.133 105 111.133Z" fill="white" stroke="#263238" stroke-linecap="round" stroke-linejoin="round"/>
<path d="M133.205 114.633L131.805 126.071L136.243 116.033" stroke="#263238" stroke-linecap="round" stroke-linejoin="round"/>
<path d="M96.8031 147.528L94.7031 126.766" stroke="#263238" stroke-linecap="round" stroke-linejoin="round"/>
<path d="M94.9411 132.596L91.2031 123.727" stroke="#263238" stroke-linecap="round" stroke-linejoin="round"/>
<path d="M129.5 138.43C129.5 138.43 126.231 149.868 119 154.299" stroke="#263238" stroke-linecap="round" stroke-linejoin="round"/>
<path d="M122.503 148.695C122.503 148.695 119.234 152.195 112.234 155.695" stroke="#263238" stroke-linecap="round" stroke-linejoin="round"/>
<path d="M117.602 35.5292L120.402 49.0672C120.402 49.0672 134.402 39.2672 151.202 34.1292C168.002 28.9912 184.634 30.3422 184.634 30.3422C184.634 30.3422 152.602 26.1982 138.602 29.4672C124.602 32.7362 117.602 35.5292 117.602 35.5292Z" fill="white" stroke="#263238" stroke-miterlimit="10"/>
<path d="M237.468 158.986C237.372 158.645 237.35 158.287 237.403 157.937C237.455 157.586 237.581 157.251 237.772 156.952C237.963 156.654 238.215 156.399 238.511 156.204C238.807 156.009 239.141 155.879 239.491 155.822C241.591 155.535 244.209 158.377 245.035 160.099C245.105 160.246 245.945 162.696 245.91 162.696C245.875 162.696 242.158 162.78 240.625 162.115C239.323 161.541 237.818 160.456 237.468 158.986ZM291.837 152.469C291.529 153.939 290.052 155.073 288.764 155.675C287.476 156.277 284.424 156.375 283.675 156.375C283.262 156.858 282.835 157.376 282.373 157.957C281.561 158.993 280.665 160.176 279.769 161.52C279.531 161.877 279.286 162.269 279.069 162.647C279.608 162.094 280.357 161.345 280.469 161.247C281.96 160.057 285.537 158.643 287.322 159.847C287.611 160.052 287.854 160.316 288.036 160.621C288.217 160.926 288.332 161.266 288.373 161.618C288.415 161.971 288.382 162.328 288.277 162.667C288.172 163.005 287.996 163.318 287.763 163.585C286.804 164.747 284.963 165.076 283.563 164.985C282.163 164.894 279.293 163.585 278.663 163.27C278.138 164.117 277.62 164.999 277.137 165.951C276.23 167.665 275.48 169.457 274.897 171.306L275.002 171.362C275.436 170.788 276.402 169.612 276.472 169.528C277.823 168.177 281.225 166.378 283.122 167.351C283.433 167.522 283.705 167.757 283.92 168.04C284.135 168.323 284.288 168.648 284.368 168.994C284.449 169.341 284.456 169.7 284.388 170.049C284.32 170.398 284.18 170.728 283.976 171.019C283.15 172.279 281.365 172.804 279.944 172.902C278.313 173.021 274.925 171.74 274.799 171.691C274.263 173.543 273.852 175.427 273.567 177.333C273.343 178.733 273.182 180.175 273.028 181.617C273.322 181.211 274.561 179.664 274.659 179.559C276.01 178.215 279.412 176.409 281.316 177.389C281.626 177.561 281.897 177.797 282.11 178.08C282.324 178.364 282.475 178.689 282.555 179.035C282.635 179.381 282.641 179.739 282.574 180.088C282.506 180.436 282.366 180.766 282.163 181.057C281.337 182.317 279.559 182.842 278.138 182.94C276.535 183.052 273.287 181.841 273.014 181.736C272.944 182.394 272.874 183.045 272.811 183.703C272.601 185.852 272.398 188.001 272.111 190.122C272.02 190.822 271.901 191.571 271.789 192.292C272.251 191.697 273.112 190.619 273.189 190.535C274.54 189.191 277.942 187.385 279.839 188.365C280.161 188.534 280.443 188.77 280.666 189.058C280.888 189.345 281.046 189.678 281.128 190.033C281.21 190.387 281.214 190.755 281.14 191.111C281.066 191.468 280.916 191.804 280.7 192.096C279.874 193.363 278.096 193.881 276.675 193.986C275.254 194.091 272.475 193.125 271.719 192.845C271.523 194.042 271.299 195.225 271.019 196.387C270.886 196.877 270.788 197.395 270.634 197.864L270.214 199.264C269.892 200.216 269.591 201.105 269.269 201.987C269.108 202.435 268.947 202.848 268.786 203.282C269.164 202.582 269.78 201.539 269.85 201.448C270.977 199.915 274.05 197.619 276.094 198.298C276.428 198.42 276.733 198.611 276.989 198.858C277.244 199.106 277.445 199.404 277.577 199.735C277.709 200.065 277.77 200.42 277.756 200.776C277.741 201.131 277.652 201.48 277.494 201.798C276.871 203.198 275.191 203.954 273.798 204.269C272.272 204.619 268.982 203.947 268.583 203.863C268.184 204.92 267.785 205.963 267.393 206.894C266.161 209.904 265.02 212.361 264.201 214.076C264.152 214.167 264.11 214.258 264.068 214.349H270.053L267.988 254.669C267.912 256.144 267.273 257.534 266.202 258.552C265.131 259.569 263.711 260.136 262.234 260.136C260.756 260.137 259.334 259.569 258.262 258.552C257.19 257.535 256.55 256.145 256.473 254.669L254.408 214.349H260.834C260.834 214.069 260.771 213.775 260.736 213.439C260.519 211.577 260.176 208.917 259.616 205.739C259.455 204.822 259.273 203.856 259.077 202.862C258.657 202.918 255.339 203.338 253.841 202.862C252.476 202.442 250.859 201.532 250.341 200.118C250.208 199.789 250.146 199.436 250.159 199.082C250.172 198.727 250.259 198.379 250.415 198.06C250.571 197.742 250.791 197.459 251.063 197.231C251.335 197.003 251.652 196.835 251.993 196.737C254.058 196.212 256.97 198.732 257.985 200.349C258.048 200.454 258.685 201.749 258.986 202.449C258.867 201.847 258.748 201.252 258.608 200.629C258.419 199.74 258.188 198.795 257.964 197.885C257.838 197.416 257.705 196.94 257.572 196.485C257.439 196.03 257.271 195.554 257.117 195.085C256.879 194.385 256.606 193.685 256.326 192.985C255.43 193.237 252.777 193.923 251.426 193.72C250.075 193.517 248.276 192.866 247.548 191.543C247.367 191.238 247.253 190.898 247.212 190.546C247.171 190.194 247.204 189.837 247.31 189.499C247.415 189.16 247.591 188.848 247.824 188.582C248.058 188.315 248.346 188.101 248.668 187.952C250.635 187.119 253.89 189.17 255.143 190.612C255.178 190.661 255.416 190.99 255.682 191.389C255.395 190.689 255.108 190.038 254.793 189.366C253.89 187.448 252.917 185.53 251.951 183.605C251.748 183.199 251.552 182.793 251.349 182.394C250.593 182.604 247.723 183.374 246.295 183.171C244.867 182.968 243.145 182.31 242.424 180.987C242.242 180.683 242.126 180.344 242.084 179.991C242.042 179.639 242.075 179.282 242.179 178.944C242.284 178.605 242.46 178.292 242.693 178.026C242.927 177.759 243.214 177.545 243.537 177.396C245.504 176.563 248.766 178.614 250.012 180.056C250.054 180.112 250.334 180.504 250.635 180.952C250.124 179.902 249.627 178.852 249.172 177.774C248.367 175.956 247.689 174.085 247.142 172.174C246.876 172.251 243.53 173.224 241.941 172.993C240.541 172.783 238.791 172.132 238.07 170.809C237.887 170.505 237.771 170.166 237.729 169.814C237.687 169.462 237.72 169.104 237.825 168.766C237.931 168.427 238.107 168.115 238.343 167.85C238.578 167.584 238.866 167.371 239.19 167.225C241.15 166.385 244.412 168.443 245.658 169.885C245.749 169.983 246.736 171.432 247.058 171.985V171.915C246.562 170.023 246.237 168.09 246.085 166.14C245.94 164.399 245.898 162.651 245.959 160.904C246.001 159.28 246.134 157.803 246.267 156.494C246.344 155.794 246.421 155.136 246.505 154.534H246.47C246.435 154.534 245.721 152.063 245.693 151.895C245.378 150.019 245.875 146.197 247.793 145.217C248.111 145.059 248.46 144.97 248.815 144.955C249.171 144.941 249.526 145.002 249.856 145.134C250.186 145.266 250.485 145.466 250.733 145.722C250.98 145.978 251.171 146.283 251.293 146.617C251.853 148.017 251.244 149.774 250.502 150.992C249.76 152.21 247.275 153.981 246.652 154.408C246.582 155.031 246.505 155.703 246.442 156.452C246.344 157.761 246.239 159.252 246.239 160.855C246.239 161.282 246.239 161.744 246.239 162.192C246.386 161.436 246.596 160.393 246.631 160.295C247.219 158.482 249.431 155.325 251.531 155.325C251.885 155.338 252.233 155.424 252.552 155.579C252.871 155.734 253.154 155.955 253.383 156.226C253.611 156.496 253.781 156.812 253.88 157.153C253.98 157.493 254.007 157.851 253.96 158.202C253.799 159.7 252.455 161.002 251.237 161.702C250.019 162.402 246.897 162.878 246.225 162.962C246.225 163.956 246.309 164.978 246.428 166.035C246.618 167.965 246.981 169.875 247.513 171.74H247.632C247.681 171.04 247.821 169.521 247.842 169.395C248.227 167.533 250.075 164.145 252.196 163.914C252.549 163.887 252.905 163.934 253.239 164.052C253.573 164.171 253.879 164.358 254.136 164.602C254.394 164.846 254.597 165.142 254.733 165.47C254.869 165.797 254.934 166.15 254.926 166.504C254.926 168.009 253.736 169.43 252.609 170.298C251.307 171.299 247.772 172.097 247.646 172.132C248.229 173.97 248.93 175.768 249.746 177.515C250.341 178.81 250.999 180.098 251.664 181.386C251.664 180.882 251.867 178.908 251.895 178.768C252.28 176.899 254.121 173.518 256.242 173.287C256.595 173.259 256.951 173.305 257.286 173.423C257.621 173.541 257.927 173.728 258.185 173.973C258.442 174.217 258.646 174.513 258.781 174.841C258.917 175.169 258.982 175.522 258.972 175.877C258.972 177.382 257.782 178.803 256.655 179.664C255.381 180.644 252.007 181.428 251.755 181.491C252.056 182.079 252.357 182.66 252.672 183.241C253.68 185.152 254.702 187.056 255.647 188.967C255.976 189.625 256.277 190.29 256.578 190.955C256.634 190.199 256.76 188.855 256.781 188.715C257.166 186.846 259.014 183.465 261.135 183.234C261.488 183.206 261.843 183.252 262.178 183.369C262.512 183.487 262.818 183.674 263.075 183.917C263.333 184.161 263.536 184.456 263.672 184.783C263.808 185.111 263.874 185.463 263.865 185.817C263.865 187.329 262.675 188.743 261.548 189.611C260.421 190.479 257.586 191.207 256.788 191.396C257.285 192.502 257.747 193.615 258.188 194.735C258.349 195.218 258.552 195.701 258.685 196.177C258.818 196.653 258.972 197.122 259.112 197.577C259.371 198.557 259.609 199.46 259.812 200.377C259.924 200.839 260.022 201.28 260.127 201.728C260.071 200.951 259.994 199.726 260.001 199.628C260.099 197.724 261.401 194.105 263.501 193.552C263.845 193.471 264.204 193.463 264.552 193.529C264.9 193.595 265.23 193.734 265.521 193.936C265.812 194.138 266.058 194.399 266.241 194.702C266.425 195.005 266.543 195.343 266.588 195.694C266.617 195.879 266.628 196.067 266.623 196.254C267.463 197.707 267.916 199.351 267.939 201.028C267.939 201.154 267.743 202.589 267.624 203.324C267.855 202.757 268.079 202.19 268.324 201.595C268.66 200.748 268.982 199.831 269.304 198.949C269.458 198.487 269.605 198.018 269.759 197.549C269.913 197.08 270.018 196.604 270.158 196.149C270.34 195.449 270.494 194.707 270.655 193.972C269.766 193.685 267.155 192.789 266.14 191.872C265.125 190.955 263.991 189.422 264.11 187.917C264.128 187.563 264.22 187.217 264.381 186.901C264.541 186.585 264.767 186.306 265.042 186.082C265.317 185.858 265.636 185.695 265.978 185.602C266.32 185.51 266.678 185.49 267.029 185.544C269.129 185.929 270.711 189.443 270.956 191.333C270.956 191.389 270.956 191.795 270.956 192.278C271.089 191.578 271.222 190.836 271.327 190.094C271.635 187.994 271.88 185.894 272.132 183.724C272.188 183.276 272.251 182.828 272.3 182.38C271.551 182.142 268.737 181.204 267.659 180.238C266.581 179.272 265.51 177.788 265.629 176.283C265.646 175.929 265.738 175.582 265.898 175.265C266.058 174.949 266.283 174.669 266.559 174.445C266.834 174.222 267.153 174.058 267.496 173.966C267.839 173.874 268.197 173.855 268.548 173.91C270.648 174.295 272.23 177.809 272.475 179.699C272.475 179.769 272.475 180.252 272.475 180.791C272.629 179.629 272.804 178.474 273.007 177.326C273.343 175.365 273.811 173.429 274.407 171.53C274.148 171.446 270.816 170.41 269.619 169.339C268.562 168.394 267.47 166.889 267.596 165.384C267.612 165.03 267.703 164.683 267.862 164.367C268.022 164.05 268.246 163.771 268.521 163.547C268.796 163.323 269.115 163.159 269.457 163.067C269.799 162.975 270.157 162.956 270.508 163.011C272.608 163.396 274.19 166.903 274.435 168.8C274.435 168.933 274.484 170.683 274.47 171.306V171.236C275.101 169.384 275.898 167.592 276.85 165.881C277.693 164.35 278.628 162.87 279.65 161.45C280.574 160.12 281.505 158.958 282.331 157.95C282.786 157.404 283.213 156.907 283.612 156.452H283.5C283.458 156.452 284.235 153.974 284.305 153.827C285.082 152.084 287.602 149.172 289.73 149.403C290.076 149.453 290.408 149.573 290.705 149.757C291.002 149.942 291.258 150.186 291.456 150.474C291.654 150.762 291.79 151.088 291.856 151.432C291.921 151.775 291.915 152.128 291.837 152.469ZM267.337 203.702C266.973 203.527 264.173 202.141 263.081 200.958C262.136 201.481 261.161 201.949 260.162 202.358C260.407 203.457 260.638 204.535 260.862 205.543C261.492 208.728 261.898 211.409 262.157 213.292C262.213 213.691 262.262 214.048 262.304 214.377H262.444C262.591 214.104 262.738 213.803 262.913 213.467C263.76 211.794 264.943 209.379 266.224 206.425C266.588 205.55 266.973 204.64 267.351 203.702H267.337ZM278.537 162.941C278.537 162.941 279.237 160.449 279.237 160.281C279.503 158.398 278.901 154.59 276.976 153.659C276.652 153.514 276.301 153.439 275.947 153.438C275.592 153.438 275.241 153.512 274.917 153.656C274.593 153.8 274.302 154.01 274.065 154.274C273.827 154.537 273.648 154.848 273.539 155.185C273.021 156.585 273.672 158.342 274.449 159.532C275.366 160.939 278.537 162.934 278.537 162.941Z" fill="#263238"/>
</svg>
