<svg width="16" height="16" viewBox="0 0 16 16" fill="none" xmlns="http://www.w3.org/2000/svg">
<path d="M2.66927 13.3307C2.3026 13.3307 1.98872 13.2002 1.7276 12.9391C1.46649 12.678 1.33594 12.3641 1.33594 11.9974V3.9974C1.33594 3.63073 1.46649 3.31684 1.7276 3.05573C1.98872 2.79462 2.3026 2.66406 2.66927 2.66406H13.3359C13.7026 2.66406 14.0165 2.79462 14.2776 3.05573C14.5387 3.31684 14.6693 3.63073 14.6693 3.9974V11.9974C14.6693 12.3641 14.5387 12.678 14.2776 12.9391C14.0165 13.2002 13.7026 13.3307 13.3359 13.3307H2.66927ZM8.0026 8.66406L2.66927 5.33073V11.9974H13.3359V5.33073L8.0026 8.66406ZM8.0026 7.33073L13.3359 3.9974H2.66927L8.0026 7.33073ZM2.66927 5.33073V3.9974V11.9974V5.33073Z" fill="#FBEFD9"/>
</svg>
