<svg width="380" height="346" viewBox="0 0 380 346" fill="none" xmlns="http://www.w3.org/2000/svg">
<path d="M341.921 268.852H316.75V269.042H341.921V268.852Z" fill="#EBEBEB"/>
<path d="M251.729 270.914H245.125V271.104H251.729V270.914Z" fill="#EBEBEB"/>
<path d="M315.991 261.797H301.406V261.987H315.991V261.797Z" fill="#EBEBEB"/>
<path d="M72.6916 263.07H39.8672V263.26H72.6916V263.07Z" fill="#EBEBEB"/>
<path d="M84.2796 263.07H79.4688V263.26H84.2796V263.07Z" fill="#EBEBEB"/>
<path d="M171.111 266.281H99.9141V266.471H171.111V266.281Z" fill="#EBEBEB"/>
<path d="M180.119 222.725H33.3787C32.2277 222.725 31.1239 222.268 30.3101 221.454C29.4963 220.64 29.0391 219.536 29.0391 218.385V12.0985C29.0491 10.9541 29.5107 9.86008 30.3235 9.05445C31.1362 8.24882 32.2343 7.79683 33.3787 7.79688H180.119C181.27 7.79688 182.374 8.25408 183.188 9.06791C184.002 9.88175 184.459 10.9855 184.459 12.1365V218.385C184.459 219.536 184.002 220.64 183.188 221.454C182.374 222.268 181.27 222.725 180.119 222.725ZM33.3787 7.94888C32.2787 7.95088 31.2244 8.38872 30.4467 9.16648C29.6689 9.94425 29.2311 10.9985 29.2291 12.0985V218.385C29.2311 219.485 29.6689 220.539 30.4467 221.317C31.2244 222.095 32.2787 222.533 33.3787 222.535H180.119C181.219 222.533 182.274 222.095 183.051 221.317C183.829 220.539 184.267 219.485 184.269 218.385V12.0985C184.267 10.9985 183.829 9.94425 183.051 9.16648C182.274 8.38872 181.219 7.95088 180.119 7.94888H33.3787Z" fill="#EBEBEB"/>
<path d="M344.517 222.725H197.761C196.611 222.723 195.509 222.265 194.695 221.452C193.882 220.638 193.424 219.536 193.422 218.385V12.0985C193.434 10.9548 193.896 9.86185 194.708 9.05665C195.521 8.25144 196.618 7.79881 197.761 7.79688H344.517C345.659 7.80083 346.753 8.25458 347.563 9.05979C348.372 9.86499 348.832 10.9568 348.842 12.0985V218.385C348.842 219.534 348.387 220.635 347.576 221.448C346.766 222.262 345.666 222.721 344.517 222.725ZM197.761 7.94888C196.662 7.95088 195.607 8.38872 194.829 9.16648C194.052 9.94425 193.614 10.9985 193.612 12.0985V218.385C193.614 219.485 194.052 220.539 194.829 221.317C195.607 222.095 196.662 222.533 197.761 222.535H344.517C345.617 222.533 346.672 222.095 347.449 221.317C348.227 220.539 348.665 219.485 348.667 218.385V12.0985C348.665 10.9985 348.227 9.94425 347.449 9.16648C346.672 8.38872 345.617 7.95088 344.517 7.94888H197.761Z" fill="#EBEBEB"/>
<path d="M380 256.617H0V256.807H380V256.617Z" fill="#EBEBEB"/>
<path d="M74.2508 42.2422H72.8828V148.923H74.2508V42.2422Z" fill="#E0E0E0"/>
<path d="M159.407 42.2422H158.039V148.923H159.407V42.2422Z" fill="#E0E0E0"/>
<path d="M164.771 48.9521H67.5286L65.4766 44.1641H166.823L164.771 48.9521Z" fill="#EBEBEB"/>
<path d="M164.771 55.5224H67.5286L65.4766 50.7344H166.823L164.771 55.5224Z" fill="#EBEBEB"/>
<path d="M164.771 62.1005H67.5286L65.4766 57.3125H166.823L164.771 62.1005Z" fill="#EBEBEB"/>
<path d="M164.771 68.6708H67.5286L65.4766 63.8828H166.823L164.771 68.6708Z" fill="#EBEBEB"/>
<path d="M164.771 75.2489H67.5286L65.4766 70.4609H166.823L164.771 75.2489Z" fill="#EBEBEB"/>
<path d="M164.771 81.8192H67.5286L65.4766 77.0312H166.823L164.771 81.8192Z" fill="#EBEBEB"/>
<path d="M164.771 88.3974H67.5286L65.4766 83.6094H166.823L164.771 88.3974Z" fill="#EBEBEB"/>
<path d="M164.771 94.9677H67.5286L65.4766 90.1797H166.823L164.771 94.9677Z" fill="#EBEBEB"/>
<path d="M164.771 101.538H67.5286L65.4766 96.75H166.823L164.771 101.538Z" fill="#EBEBEB"/>
<path d="M164.771 108.108H67.5286L65.4766 103.32H166.823L164.771 108.108Z" fill="#EBEBEB"/>
<path d="M164.771 114.686H67.5286L65.4766 109.898H166.823L164.771 114.686Z" fill="#EBEBEB"/>
<path d="M164.771 121.257H67.5286L65.4766 116.469H166.823L164.771 121.257Z" fill="#EBEBEB"/>
<path d="M164.771 127.835H67.5286L65.4766 123.047H166.823L164.771 127.835Z" fill="#EBEBEB"/>
<path d="M164.771 134.405H67.5286L65.4766 129.617H166.823L164.771 134.405Z" fill="#EBEBEB"/>
<path d="M164.771 140.976H67.5286L65.4766 136.188H166.823L164.771 140.976Z" fill="#EBEBEB"/>
<path d="M164.771 147.554H67.5286L65.4766 142.766H166.823L164.771 147.554Z" fill="#EBEBEB"/>
<path d="M166.823 147.555H65.4766V150.291H166.823V147.555Z" fill="#E0E0E0"/>
<path d="M170.351 38.1641H61.9375V44.5481H170.351V38.1641Z" fill="#E0E0E0"/>
<path d="M63.0786 102.428C62.7863 102.428 62.506 102.312 62.2993 102.106C62.0927 101.899 61.9766 101.619 61.9766 101.326V64.0864C61.9766 63.9417 62.0051 63.7984 62.0604 63.6647C62.1158 63.531 62.197 63.4095 62.2993 63.3071C62.4017 63.2048 62.5231 63.1236 62.6568 63.0683C62.7905 63.0129 62.9338 62.9844 63.0786 62.9844C63.3708 62.9844 63.6511 63.1005 63.8578 63.3071C64.0645 63.5138 64.1806 63.7941 64.1806 64.0864V101.326C64.1806 101.471 64.1521 101.614 64.0967 101.748C64.0413 101.882 63.9601 102.003 63.8578 102.106C63.7555 102.208 63.634 102.289 63.5003 102.344C63.3666 102.4 63.2233 102.428 63.0786 102.428Z" fill="#E0E0E0"/>
<path d="M63.4542 43.2734H62.6562V65.3894H63.4542V43.2734Z" fill="#E0E0E0"/>
<path d="M186.863 82.8438H190.238C190.792 82.8438 191.324 83.064 191.715 83.4559C192.107 83.8479 192.328 84.3795 192.328 84.9338V183.042H184.766V84.9338C184.766 84.6587 184.82 84.3863 184.925 84.1322C185.031 83.8781 185.186 83.6474 185.38 83.4532C185.575 83.259 185.807 83.1053 186.061 83.0007C186.316 82.8961 186.588 82.8428 186.863 82.8438Z" fill="#E6E6E6"/>
<path d="M189.189 82.8438H187.106C186.487 82.8437 185.893 83.0893 185.454 83.5267C185.015 83.964 184.768 84.5575 184.766 85.177V183.042H186.848V85.177C186.85 84.5575 187.098 83.964 187.536 83.5267C187.975 83.0893 188.569 82.8437 189.189 82.8438Z" fill="#F0F0F0"/>
<path d="M194.519 176.578H182.617V256.811H194.519V176.578Z" fill="#EBEBEB"/>
<path d="M178.388 253.562H198.756C199.526 253.563 200.264 253.868 200.808 254.413C201.353 254.957 201.659 255.696 201.659 256.466V256.8H175.484V256.466C175.484 255.696 175.79 254.957 176.335 254.413C176.879 253.868 177.618 253.562 178.388 253.562Z" fill="#E6E6E6"/>
<path d="M301.281 217.173H320.471C322.125 217.171 323.711 216.513 324.881 215.343C326.051 214.174 326.709 212.588 326.711 210.934V182.874C326.711 182.572 326.591 182.282 326.377 182.068C326.163 181.854 325.873 181.734 325.571 181.734C325.268 181.734 324.979 181.854 324.765 182.068C324.551 182.282 324.431 182.572 324.431 182.874V210.934C324.431 211.984 324.014 212.991 323.271 213.733C322.529 214.476 321.521 214.893 320.471 214.893H301.281V217.173Z" fill="#E0E0E0"/>
<path d="M295.788 244.067V217.939L294.268 217.46C293.427 217.195 292.693 216.669 292.171 215.959C291.649 215.248 291.366 214.39 291.365 213.508H305.843C305.843 214.39 305.561 215.249 305.039 215.96C304.517 216.67 303.782 217.196 302.94 217.46L301.42 217.939V244.067L313.436 249.479V251.759L298.593 246.568L283.75 251.759V249.479L295.788 244.067Z" fill="#E0E0E0"/>
<path d="M279.682 214.895H317.538C318.078 214.895 318.612 214.789 319.111 214.582C319.61 214.376 320.063 214.073 320.445 213.691C320.827 213.309 321.13 212.856 321.336 212.357C321.543 211.858 321.649 211.324 321.649 210.784C321.647 209.695 321.213 208.651 320.442 207.881C319.672 207.112 318.627 206.68 317.538 206.68H279.682C278.594 206.68 277.55 207.112 276.78 207.882C276.011 208.651 275.578 209.695 275.578 210.784C275.577 211.323 275.683 211.858 275.888 212.357C276.094 212.855 276.396 213.309 276.777 213.691C277.159 214.072 277.611 214.375 278.11 214.582C278.608 214.789 279.143 214.895 279.682 214.895Z" fill="#F0F0F0"/>
<path d="M324.203 192.751L326.247 163.536C326.323 162.452 325.965 161.383 325.252 160.562C324.54 159.741 323.531 159.237 322.447 159.159C321.362 159.081 320.29 159.438 319.468 160.151C318.646 160.864 318.14 161.873 318.062 162.959L316.018 192.173C315.942 193.258 316.3 194.329 317.012 195.151C317.724 195.972 318.733 196.479 319.818 196.558C320.904 196.634 321.975 196.275 322.798 195.561C323.62 194.847 324.125 193.837 324.203 192.751Z" fill="#EBEBEB"/>
<path d="M310.844 253.357C310.844 253.871 310.996 254.374 311.282 254.801C311.567 255.228 311.973 255.562 312.448 255.758C312.923 255.955 313.446 256.007 313.95 255.906C314.454 255.806 314.917 255.558 315.281 255.195C315.644 254.831 315.892 254.368 315.992 253.864C316.093 253.36 316.041 252.837 315.844 252.362C315.648 251.887 315.314 251.481 314.887 251.196C314.46 250.91 313.957 250.758 313.443 250.758C313.102 250.758 312.764 250.825 312.448 250.956C312.133 251.086 311.846 251.278 311.605 251.519C311.364 251.76 311.172 252.047 311.042 252.362C310.911 252.678 310.844 253.016 310.844 253.357Z" fill="#E0E0E0"/>
<path d="M281.156 253.357C281.156 253.871 281.309 254.374 281.594 254.801C281.88 255.228 282.286 255.562 282.761 255.758C283.236 255.955 283.758 256.007 284.263 255.906C284.767 255.806 285.23 255.558 285.593 255.195C285.957 254.831 286.204 254.368 286.305 253.864C286.405 253.36 286.354 252.837 286.157 252.362C285.96 251.887 285.627 251.481 285.199 251.196C284.772 250.91 284.27 250.758 283.755 250.758C283.066 250.758 282.405 251.032 281.918 251.519C281.43 252.007 281.156 252.668 281.156 253.357Z" fill="#E0E0E0"/>
<path d="M76.281 217.173H57.091C55.4354 217.173 53.8476 216.516 52.6762 215.346C51.5048 214.176 50.8458 212.589 50.8438 210.934V182.874C50.8438 182.572 50.9639 182.282 51.1776 182.068C51.3914 181.854 51.6814 181.734 51.9837 181.734C52.2861 181.734 52.5761 181.854 52.7899 182.068C53.0036 182.282 53.1237 182.572 53.1237 182.874V210.934C53.1258 211.984 53.5446 212.992 54.2884 213.734C55.0322 214.476 56.0401 214.893 57.091 214.893H76.281V217.173Z" fill="#E0E0E0"/>
<path d="M81.7722 244.067V217.939L83.2922 217.46C84.1324 217.195 84.8662 216.669 85.3869 215.958C85.9077 215.247 86.1882 214.389 86.1878 213.508H71.7478C71.7491 214.39 72.0312 215.248 72.5532 215.959C73.0752 216.669 73.81 217.195 74.651 217.46L76.171 217.939V244.067L64.125 249.479V251.759L78.9678 246.568L93.8106 251.759V249.479L81.7722 244.067Z" fill="#E0E0E0"/>
<path d="M97.8895 214.895H60.0415C58.9524 214.893 57.9085 214.459 57.1391 213.688C56.3696 212.917 55.9375 211.873 55.9375 210.784C55.9375 209.695 56.3699 208.651 57.1395 207.882C57.9092 207.112 58.9531 206.68 60.0415 206.68H97.8895C98.9787 206.68 100.023 207.112 100.794 207.881C101.565 208.651 101.999 209.695 102.001 210.784C102.001 211.874 101.568 212.92 100.797 213.691C100.026 214.462 98.98 214.895 97.8895 214.895Z" fill="#F0F0F0"/>
<path d="M53.3511 192.751L51.3067 163.536C51.2315 162.452 51.5893 161.383 52.3017 160.562C53.014 159.741 54.0228 159.237 55.1067 159.159C56.1921 159.081 57.2638 159.438 58.0861 160.151C58.9084 160.864 59.4141 161.873 59.4919 162.959L61.5591 192.181C61.6344 193.266 61.2769 194.336 60.5647 195.158C59.8525 195.98 58.8437 196.486 57.7591 196.566C57.2189 196.606 56.676 196.54 56.1617 196.369C55.6473 196.199 55.1717 195.929 54.7621 195.575C54.3525 195.22 54.0169 194.788 53.7748 194.304C53.5327 193.819 53.3887 193.291 53.3511 192.751Z" fill="#EBEBEB"/>
<path d="M66.714 253.357C66.714 253.871 66.5614 254.374 66.2754 254.802C65.9895 255.229 65.5831 255.563 65.1077 255.759C64.6323 255.956 64.1093 256.007 63.6049 255.906C63.1005 255.805 62.6374 255.556 62.2742 255.192C61.911 254.828 61.6641 254.364 61.5646 253.859C61.4652 253.355 61.5178 252.832 61.7157 252.357C61.9136 251.882 62.2479 251.477 62.6763 251.192C63.1048 250.907 63.608 250.756 64.1224 250.758C64.4634 250.758 64.801 250.825 65.1159 250.956C65.4309 251.087 65.7169 251.278 65.9577 251.52C66.1984 251.761 66.3891 252.048 66.5189 252.363C66.6487 252.678 66.715 253.016 66.714 253.357Z" fill="#E0E0E0"/>
<path d="M96.4015 253.357C96.4015 253.871 96.2489 254.374 95.9629 254.802C95.677 255.229 95.2706 255.563 94.7952 255.759C94.3198 255.956 93.7968 256.007 93.2924 255.906C92.788 255.805 92.3249 255.556 91.9617 255.192C91.5985 254.828 91.3516 254.364 91.2521 253.859C91.1527 253.355 91.2053 252.832 91.4032 252.357C91.6011 251.882 91.9354 251.477 92.3638 251.192C92.7923 250.907 93.2955 250.756 93.8099 250.758C94.1509 250.758 94.4885 250.825 94.8034 250.956C95.1184 251.087 95.4044 251.278 95.6452 251.52C95.8859 251.761 96.0766 252.048 96.2064 252.363C96.3362 252.678 96.4025 253.016 96.4015 253.357Z" fill="#E0E0E0"/>
<path d="M157.84 256.808H143.02L141.5 228.703H159.36L157.84 256.808Z" fill="#EBEBEB"/>
<path d="M146.439 256.811H140.359V255.557L146.439 254.797V256.811Z" fill="#E0E0E0"/>
<path d="M143.757 226.43H157.103C157.707 226.43 158.287 226.67 158.715 227.097C159.142 227.525 159.383 228.105 159.383 228.71H141.492C141.492 228.105 141.732 227.525 142.16 227.097C142.588 226.67 143.167 226.43 143.772 226.43H143.757Z" fill="#E0E0E0"/>
<path d="M127.438 183.917H103.711V181.075L127.438 179.555V183.917Z" fill="#E0E0E0"/>
<path d="M162.515 186.812H92.3438V196.525H162.515V186.812Z" fill="#F0F0F0"/>
<path d="M177.067 183.922H78.0547V189.713H177.067V183.922Z" fill="#FAFAFA"/>
<path d="M167.871 256.811H172.34L164.603 189.711H159.359L167.871 256.811Z" fill="#E6E6E6"/>
<path d="M95.7618 189.711H90.5178L82.7734 256.811H87.2498L95.7618 189.711Z" fill="#E6E6E6"/>
<path d="M151.462 182.476C149.435 172.413 147.408 162.346 145.382 152.273C145.093 150.837 142.889 151.445 143.178 152.881L148.961 181.64H136.421C136.119 181.64 135.829 181.76 135.615 181.974C135.401 182.187 135.281 182.477 135.281 182.78C135.281 183.082 135.401 183.372 135.615 183.586C135.829 183.8 136.119 183.92 136.421 183.92H150.352C150.528 183.918 150.701 183.877 150.858 183.799C151.015 183.721 151.152 183.608 151.259 183.468C151.366 183.329 151.44 183.167 151.475 182.995C151.51 182.823 151.506 182.646 151.462 182.476Z" fill="#E0E0E0"/>
<path d="M137.266 174.376L141.172 118.531C142.615 119.561 143.769 120.944 144.523 122.547C145.278 124.151 145.608 125.921 145.481 127.689L142.814 165.879C142.695 167.652 142.122 169.365 141.15 170.853C140.179 172.341 138.841 173.554 137.266 174.376Z" fill="#FAFAFA"/>
<path d="M167.698 167.688H161.345C160.127 167.688 159.141 168.674 159.141 169.891V181.717C159.141 182.934 160.127 183.921 161.345 183.921H167.698C168.915 183.921 169.902 182.934 169.902 181.717V169.891C169.902 168.674 168.915 167.688 167.698 167.688Z" fill="#F5F5F5"/>
<path d="M163.399 161.641C161.72 161.641 160.359 162.059 160.359 162.568C160.359 163.077 161.727 162.385 163.399 162.385C163.615 162.374 163.83 162.374 164.045 162.385V166.064H165.003V162.53C165.869 162.689 166.447 162.864 166.447 162.53C166.439 162.074 165.079 161.641 163.399 161.641Z" fill="#E0E0E0"/>
<path d="M166.24 164.914H162.812V168.342H166.24V164.914Z" fill="#F0F0F0"/>
<path d="M215.04 196.539H285.211V186.826H215.04V196.539Z" fill="#F0F0F0"/>
<path d="M200.495 189.719H299.508V183.928H200.495V189.719Z" fill="#FAFAFA"/>
<path d="M209.695 256.811H205.219L212.956 189.711H218.2L209.695 256.811Z" fill="#E6E6E6"/>
<path d="M281.797 189.711H287.041L294.778 256.811H290.301L281.797 189.711Z" fill="#E6E6E6"/>
<path d="M252.57 15.75H250.875V68.3648H252.57V15.75Z" fill="#E0E0E0"/>
<path d="M230.594 78.4967L251.737 45.6875L272.873 78.4967H230.594Z" fill="#E0E0E0"/>
<path d="M114.328 15.75H112.633V58.0288H114.328V15.75Z" fill="#E0E0E0"/>
<path d="M92.3438 77.1139L113.479 44.3047L134.615 77.1139H92.3438Z" fill="#FAFAFA"/>
<path d="M186.333 288.019C267.716 288.019 333.689 284.167 333.689 279.416C333.689 274.664 267.716 270.812 186.333 270.812C104.95 270.812 38.9766 274.664 38.9766 279.416C38.9766 284.167 104.95 288.019 186.333 288.019Z" fill="#F5F5F5"/>
<path d="M263.493 274.881C263.493 274.797 263.493 274.721 263.432 274.638C263.372 274.554 263.364 274.387 263.326 274.265L263.197 273.908L263.06 273.597L249.639 243.896L247.282 238.675L245.428 234.578H204.236L204.943 238.675L205.847 243.896L210.559 271.111C210.559 271.21 210.559 271.301 210.597 271.4C210.605 271.494 210.605 271.588 210.597 271.681V271.75C210.597 271.841 210.597 271.932 210.597 272.031L210.514 272.274C210.496 272.377 210.471 272.479 210.438 272.578C210.422 272.649 210.399 272.717 210.369 272.783V272.844V272.897C210.333 272.978 210.293 273.057 210.248 273.133C210.204 273.223 210.154 273.31 210.096 273.391L210.05 273.46L209.906 273.642C209.841 273.724 209.773 273.803 209.7 273.878C209.575 274.009 209.437 274.128 209.29 274.235C209.173 274.322 209.049 274.399 208.918 274.463C208.835 274.517 208.745 274.56 208.652 274.592C208.558 274.634 208.462 274.67 208.363 274.699H208.325C208.237 274.726 208.149 274.749 208.059 274.767C207.836 274.813 207.61 274.836 207.383 274.835H189.272C189.099 274.834 188.927 274.86 188.763 274.911C188.653 274.949 188.546 274.995 188.443 275.048C188.198 275.182 187.987 275.372 187.828 275.603C187.766 275.697 187.712 275.796 187.668 275.899C187.576 276.116 187.53 276.348 187.531 276.583V278.529C187.53 278.764 187.576 278.997 187.668 279.213C187.712 279.316 187.766 279.416 187.828 279.509C187.987 279.74 188.198 279.93 188.443 280.064C188.546 280.117 188.653 280.163 188.763 280.201C188.927 280.253 189.099 280.278 189.272 280.277H261.783C262.16 280.278 262.529 280.164 262.84 279.95C262.943 279.884 263.038 279.805 263.121 279.715C263.208 279.628 263.287 279.534 263.356 279.433C263.423 279.335 263.479 279.231 263.524 279.122C263.621 278.88 263.67 278.622 263.668 278.362V276.34C263.662 275.849 263.603 275.36 263.493 274.881Z" fill="#263238"/>
<path opacity="0.2" d="M187.531 276.689V278.642C187.53 278.872 187.575 279.1 187.662 279.312C187.75 279.525 187.878 279.718 188.041 279.88C188.204 280.043 188.397 280.172 188.609 280.259C188.822 280.347 189.049 280.391 189.279 280.39H261.783C262.285 280.388 262.766 280.188 263.122 279.834C263.478 279.48 263.679 279 263.683 278.498V276.468C263.683 275.934 263.622 275.401 263.501 274.88C263.396 274.426 263.249 273.983 263.06 273.558L245.42 234.547H204.236L210.559 271.08C210.599 271.293 210.617 271.509 210.612 271.726C210.595 272.59 210.238 273.411 209.619 274.014C209.001 274.617 208.17 274.953 207.306 274.948H189.279C189.05 274.947 188.823 274.992 188.611 275.079C188.399 275.166 188.206 275.294 188.044 275.456C187.881 275.617 187.752 275.809 187.664 276.021C187.577 276.233 187.531 276.46 187.531 276.689Z" fill="white"/>
<path d="M265.387 273.565L247.755 234.547H245.422L263.054 273.565C263.467 274.477 263.682 275.467 263.685 276.468V278.49C263.685 278.994 263.484 279.477 263.128 279.834C262.772 280.19 262.289 280.39 261.785 280.39H264.118C264.367 280.39 264.614 280.341 264.844 280.245C265.074 280.15 265.283 280.01 265.459 279.833C265.635 279.657 265.774 279.447 265.868 279.217C265.963 278.986 266.011 278.739 266.01 278.49V276.468C266.01 275.468 265.798 274.478 265.387 273.565Z" fill="#263238"/>
<path opacity="0.3" d="M245.427 234.547H204.242L205.861 243.872H249.637L245.427 234.547Z" fill="black"/>
<path d="M326.608 105.25L316.728 218.49L315.527 232.216C315.351 233.957 314.543 235.572 313.256 236.757C311.969 237.942 310.292 238.614 308.543 238.646H132.8C131.978 238.659 131.161 238.497 130.406 238.171C129.651 237.845 128.973 237.362 128.419 236.754C127.865 236.145 127.446 235.426 127.192 234.644C126.937 233.862 126.851 233.034 126.941 232.216L128.142 218.49L138.022 105.25C138.198 103.511 139.006 101.896 140.294 100.713C141.581 99.529 143.258 98.8586 145.006 98.8285H320.718C322.1 98.8134 323.444 99.2811 324.518 100.151C324.664 100.268 324.801 100.395 324.928 100.531C325.328 100.925 325.664 101.379 325.924 101.876C326.108 102.208 326.254 102.56 326.357 102.925C326.588 103.677 326.673 104.466 326.608 105.25Z" fill="#263238"/>
<path d="M128.148 218.492L126.916 232.218C126.828 233.036 126.915 233.864 127.17 234.646C127.426 235.429 127.845 236.148 128.4 236.756C128.955 237.364 129.633 237.847 130.388 238.173C131.144 238.499 131.961 238.661 132.784 238.647H308.511C310.26 238.615 311.937 237.943 313.224 236.759C314.511 235.574 315.319 233.958 315.495 232.218L316.696 218.492H128.148Z" fill="#6553DF"/>
<path opacity="0.6" d="M128.148 218.492L126.916 232.218C126.828 233.036 126.915 233.864 127.17 234.646C127.426 235.429 127.845 236.148 128.4 236.756C128.955 237.364 129.633 237.847 130.388 238.173C131.144 238.499 131.961 238.661 132.784 238.647H308.511C310.26 238.615 311.937 237.943 313.224 236.759C314.511 235.574 315.319 233.958 315.495 232.218L316.696 218.492H128.148Z" fill="white"/>
<path d="M310.5 214.606H135.024C134.578 214.614 134.135 214.527 133.726 214.351C133.316 214.175 132.949 213.913 132.649 213.584C132.348 213.254 132.121 212.865 131.983 212.441C131.845 212.017 131.798 211.568 131.847 211.125L141.028 106.192C141.123 105.246 141.562 104.367 142.263 103.724C142.964 103.081 143.877 102.718 144.828 102.704H320.289C320.735 102.695 321.178 102.783 321.589 102.959C321.999 103.136 322.366 103.398 322.667 103.729C322.968 104.059 323.195 104.449 323.332 104.874C323.47 105.299 323.515 105.748 323.466 106.192L314.285 211.125C314.188 212.068 313.75 212.942 313.053 213.584C312.355 214.225 311.447 214.589 310.5 214.606Z" fill="#6553DF"/>
<path d="M324.627 98.8292H320.713C321.536 98.8146 322.352 98.9753 323.107 99.3006C323.863 99.626 324.54 100.109 325.094 100.716C325.649 101.324 326.067 102.042 326.322 102.824C326.577 103.606 326.663 104.434 326.573 105.251L315.492 232.217C315.316 233.957 314.508 235.573 313.221 236.758C311.934 237.942 310.257 238.614 308.508 238.646H312.391C314.141 238.615 315.819 237.943 317.107 236.758C318.396 235.574 319.205 233.958 319.383 232.217L330.487 105.251C330.578 104.433 330.493 103.606 330.239 102.823C329.984 102.041 329.566 101.321 329.011 100.713C328.457 100.106 327.779 99.6231 327.023 99.2982C326.267 98.9732 325.45 98.8133 324.627 98.8292Z" fill="#263238"/>
<g opacity="0.2">
<path d="M324.627 98.8292H320.713C321.536 98.8146 322.352 98.9753 323.107 99.3006C323.863 99.626 324.54 100.109 325.094 100.716C325.649 101.324 326.067 102.042 326.322 102.824C326.577 103.606 326.663 104.434 326.573 105.251L315.492 232.217C315.316 233.957 314.508 235.573 313.221 236.758C311.934 237.942 310.257 238.614 308.508 238.646H312.391C314.141 238.615 315.819 237.943 317.107 236.758C318.396 235.574 319.205 233.958 319.383 232.217L330.487 105.251C330.578 104.433 330.493 103.606 330.239 102.823C329.984 102.041 329.566 101.321 329.011 100.713C328.457 100.106 327.779 99.6231 327.023 99.2982C326.267 98.9732 325.45 98.8133 324.627 98.8292Z" fill="white"/>
</g>
<g opacity="0.1">
<path d="M200.732 102.703H193.984L170.203 214.606H176.952L200.732 102.703Z" fill="white"/>
<path d="M163.377 214.606L187.165 102.703H161.804L138.016 214.606H163.377Z" fill="white"/>
</g>
<path opacity="0.2" d="M251.151 276.707V278.561C251.151 279.046 250.959 279.51 250.617 279.854C250.275 280.197 249.812 280.391 249.327 280.393H189.287C188.823 280.393 188.379 280.209 188.051 279.881C187.723 279.553 187.539 279.108 187.539 278.645V276.699C187.539 276.236 187.723 275.791 188.051 275.463C188.379 275.135 188.823 274.951 189.287 274.951H207.322C207.549 274.951 207.776 274.928 207.998 274.883H249.335C249.817 274.885 250.279 275.078 250.62 275.42C250.96 275.762 251.151 276.224 251.151 276.707Z" fill="white"/>
<path opacity="0.2" d="M263.503 274.881H208.023C208.752 274.727 209.407 274.332 209.883 273.759C210.359 273.187 210.627 272.471 210.645 271.727H262.113L263.503 274.881Z" fill="black"/>
<path opacity="0.3" d="M315.99 121.18H231.539V218.475H315.99V121.18Z" fill="black"/>
<path d="M311.534 110.914H227.242V214.221H311.534V110.914Z" fill="white"/>
<path d="M311.534 110.914H227.242V117.024H311.534V110.914Z" fill="#263238"/>
<path opacity="0.1" d="M311.531 117.023H250.609V214.22H311.531V117.023Z" fill="black"/>
<path opacity="0.1" d="M270.732 119.352H253.617V139.142H270.732V119.352Z" fill="black"/>
<path opacity="0.1" d="M309.484 119.352H273.984V127.499H309.484V119.352Z" fill="black"/>
<path opacity="0.1" d="M309.484 130.992H273.984V174.935H309.484V130.992Z" fill="black"/>
<path opacity="0.1" d="M309.484 178.422H273.984V211.307H309.484V178.422Z" fill="black"/>
<path d="M273.989 146.703H250.422V154.273H273.989V146.703Z" fill="#6553DF"/>
<path d="M250.81 130.992H227.242V138.562H250.81V130.992Z" fill="#6553DF"/>
<path d="M309.484 185.633H273.984V189.562H309.484V185.633Z" fill="black"/>
<path d="M277.555 122.646L278.292 121.148L279.03 122.646L280.679 122.881L279.486 124.052L279.767 125.693L278.292 124.918L276.818 125.693L277.099 124.052L275.898 122.889L277.555 122.646Z" fill="#6553DF"/>
<path d="M284.274 122.646L285.011 121.148L285.756 122.646L287.405 122.881L286.212 124.052L286.493 125.693L285.019 124.918L283.537 125.693L283.818 124.052L282.625 122.889L284.274 122.646Z" fill="#6553DF"/>
<path d="M291.001 122.646L291.738 121.148L292.475 122.646L294.124 122.881L292.931 124.052L293.22 125.693L291.738 124.918L290.264 125.693L290.545 124.052L289.352 122.889L291.001 122.646Z" fill="#6553DF"/>
<path d="M297.72 122.646L298.457 121.148L299.202 122.646L300.851 122.881L299.658 124.052L299.939 125.693L298.464 124.918L296.99 125.693L297.264 124.052L296.07 122.889L297.72 122.646Z" fill="black"/>
<path d="M304.446 122.646L305.183 121.148L305.92 122.646L307.57 122.881L306.384 124.052L306.665 125.693L305.183 124.918L303.709 125.693L303.99 124.052L302.797 122.889L304.446 122.646Z" fill="black"/>
<path d="M290.477 134.867H276.516V135.627H290.477V134.867Z" fill="#263238"/>
<path d="M287.536 141.414H276.516V142.174H287.536V141.414Z" fill="#263238"/>
<path d="M287.536 147.133H276.516V147.893H287.536V147.133Z" fill="#263238"/>
<path d="M287.536 152.852H276.516V153.612H287.536V152.852Z" fill="#263238"/>
<path d="M287.536 158.562H276.516V159.322H287.536V158.562Z" fill="#263238"/>
<path d="M287.536 164.289H276.516V165.049H287.536V164.289Z" fill="#263238"/>
<path d="M287.536 170.008H276.516V170.768H287.536V170.008Z" fill="#263238"/>
<path d="M300.075 141.414H289.055V142.174H300.075V141.414Z" fill="#263238"/>
<path d="M300.075 147.133H289.055V147.893H300.075V147.133Z" fill="#263238"/>
<path d="M300.075 152.852H289.055V153.612H300.075V152.852Z" fill="#263238"/>
<path d="M300.075 158.562H289.055V159.322H300.075V158.562Z" fill="#263238"/>
<path d="M300.075 164.289H289.055V165.049H300.075V164.289Z" fill="#263238"/>
<path d="M300.075 170.008H289.055V170.768H300.075V170.008Z" fill="#263238"/>
<path d="M300.076 137.047H276.516V137.807H300.076V137.047Z" fill="#263238"/>
<path d="M300.076 182.188H276.516V182.947H300.076V182.188Z" fill="#263238"/>
<path d="M270.732 141.414H253.617V142.174H270.732V141.414Z" fill="#263238"/>
<path d="M270.732 158.062H253.617V158.822H270.732V158.062Z" fill="#263238"/>
<path d="M270.732 164.43H253.617V165.19H270.732V164.43Z" fill="#263238"/>
<path d="M270.732 170.797H253.617V171.557H270.732V170.797Z" fill="#263238"/>
<path d="M270.732 177.164H253.617V177.924H270.732V177.164Z" fill="#263238"/>
<path d="M270.732 183.531H253.617V184.291H270.732V183.531Z" fill="#263238"/>
<path d="M270.732 189.891H253.617V190.651H270.732V189.891Z" fill="#263238"/>
<path d="M270.732 196.266H253.617V197.026H270.732V196.266Z" fill="#263238"/>
<path d="M270.732 202.625H253.617V203.385H270.732V202.625Z" fill="#263238"/>
<path d="M262.175 143.867H253.617V144.627H262.175V143.867Z" fill="#263238"/>
<path d="M247.865 120.773H230.188V121.533H247.865V120.773Z" fill="#263238"/>
<path d="M247.865 125.68H230.188V126.44H247.865V125.68Z" fill="#263238"/>
<path d="M247.865 143.867H230.188V144.627H247.865V143.867Z" fill="#263238"/>
<path d="M253.648 139.04V136.631C259.006 134.716 264.851 134.654 270.247 136.456L270.764 136.631V139.04H253.648Z" fill="white"/>
<path d="M261.352 138.388C262.705 138.233 263.942 137.55 264.794 136.488C264.915 136.312 264.972 136.1 264.956 135.887C264.939 135.674 264.85 135.473 264.703 135.318C263.487 133.881 263.267 130.682 263.282 128.797L261.914 130.552L260.052 132.946C260.181 133.243 260.303 133.539 260.402 133.843C260.476 134.061 260.53 134.285 260.561 134.512C260.639 134.928 260.588 135.358 260.416 135.745C260.243 136.132 259.957 136.457 259.596 136.678C259.457 136.77 259.345 136.899 259.274 137.051C259.203 137.202 259.175 137.371 259.193 137.537C259.211 137.703 259.274 137.861 259.376 137.994C259.478 138.127 259.615 138.229 259.771 138.289C260.282 138.451 260.825 138.485 261.352 138.388Z" fill="#F7978D"/>
<path opacity="0.2" d="M260.055 132.944C260.184 133.241 260.305 133.537 260.404 133.841C260.479 134.058 260.532 134.282 260.564 134.51C261.027 134.286 261.424 133.947 261.717 133.525C262.01 133.103 262.189 132.612 262.236 132.101C262.213 131.805 262.159 131.512 262.076 131.227L260.055 132.944Z" fill="black"/>
<path d="M258.333 128.541C258.242 128.699 258.112 128.83 257.954 128.921C257.797 129.012 257.618 129.06 257.436 129.06C257.254 129.06 257.075 129.012 256.918 128.921C256.76 128.83 256.63 128.699 256.539 128.541C257.185 127.188 256.699 127.059 256.661 126.048C256.595 125.463 256.69 124.87 256.935 124.335C257.18 123.799 257.566 123.341 258.051 123.008H259.093C262.839 123.783 258.333 128.541 258.333 128.541Z" fill="#263238"/>
<path d="M264.361 125.305C264.245 124.834 264.038 124.39 263.75 123.999C263.463 123.608 263.102 123.277 262.687 123.026C262.272 122.775 261.811 122.608 261.332 122.535C260.852 122.461 260.363 122.483 259.892 122.599C256.981 123.237 255.765 127.235 255.856 129.796C255.871 130.535 256.107 131.252 256.533 131.856C256.81 132.246 257.162 132.578 257.568 132.832C257.974 133.086 258.426 133.257 258.898 133.336C259.371 133.415 259.854 133.401 260.32 133.293C260.787 133.185 261.228 132.986 261.617 132.707C263.304 131.537 263.593 129.918 264.323 127.205C264.498 126.585 264.512 125.931 264.361 125.305Z" fill="#F7978D"/>
<path d="M257.133 130.02C258.068 129.832 259.021 129.748 259.975 129.769C259.895 130.155 259.678 130.499 259.363 130.736C259.049 130.974 258.658 131.089 258.265 131.061C257.992 131.08 257.722 130.991 257.513 130.814C257.304 130.636 257.173 130.384 257.148 130.111C257.148 130.111 257.14 130.05 257.133 130.02Z" fill="#263238"/>
<path d="M258.726 130.502C258.309 130.483 257.9 130.612 257.57 130.867C257.772 131.003 258.012 131.069 258.254 131.057C258.669 131.079 259.077 130.949 259.402 130.692C259.203 130.556 258.966 130.489 258.726 130.502Z" fill="#FF5652"/>
<path d="M257.234 130.001C257.256 130.084 257.3 130.159 257.362 130.218C257.424 130.277 257.501 130.317 257.584 130.336C258.205 130.322 258.823 130.25 259.431 130.123C259.53 130.107 259.624 130.066 259.702 130.004C259.781 129.941 259.842 129.859 259.879 129.766C258.992 129.768 258.108 129.847 257.234 130.001Z" fill="white"/>
<path d="M263.358 130.793C263.358 130.793 262.149 128.057 262.248 127.168C262.273 126.638 262.455 126.128 262.772 125.702C263.089 125.277 263.526 124.956 264.026 124.781L265.045 124.994C269.476 126.826 263.358 130.793 263.358 130.793Z" fill="#263238"/>
<path d="M257.807 129.192C257.62 129.207 257.432 129.181 257.256 129.116C257.08 129.05 256.92 128.946 256.789 128.812C257.349 128.315 257.84 127.745 258.248 127.117L257.807 129.192Z" fill="#FF5652"/>
<path d="M264.299 127.876C263.6 127.77 262.855 128.636 262.551 129.259C262.247 129.883 262.445 130.627 263.182 130.46C263.768 130.301 264.281 129.944 264.634 129.449C265.082 128.811 264.991 127.975 264.299 127.876Z" fill="#F7978D"/>
<path d="M259.859 127.055C259.707 127.055 259.547 127.214 259.509 127.419C259.471 127.625 259.555 127.822 259.699 127.845C259.844 127.868 259.98 127.708 260.041 127.488C260.102 127.267 260.003 127.115 259.859 127.055Z" fill="#263238"/>
<path d="M257.362 126.5C257.218 126.5 257.058 126.629 257.012 126.857C256.967 127.085 257.05 127.283 257.195 127.306C257.339 127.328 257.499 127.169 257.544 126.941C257.59 126.713 257.506 126.523 257.362 126.5Z" fill="#263238"/>
<path d="M257.919 125.633C257.9 125.642 257.88 125.647 257.859 125.647C257.837 125.647 257.817 125.642 257.798 125.633C257.635 125.578 257.462 125.562 257.293 125.584C257.123 125.606 256.96 125.667 256.817 125.762C256.793 125.786 256.76 125.8 256.726 125.8C256.692 125.8 256.659 125.786 256.635 125.762C256.613 125.735 256.602 125.702 256.602 125.667C256.602 125.633 256.613 125.599 256.635 125.572C256.812 125.451 257.014 125.372 257.226 125.342C257.439 125.312 257.655 125.331 257.859 125.397C257.891 125.409 257.918 125.433 257.933 125.464C257.949 125.495 257.952 125.531 257.942 125.565C257.94 125.589 257.932 125.612 257.919 125.633Z" fill="#263238"/>
<path d="M260.633 126.727C260.587 126.725 260.544 126.706 260.512 126.674C260.418 126.532 260.294 126.413 260.147 126.326C260.001 126.24 259.837 126.187 259.668 126.172C259.65 126.173 259.633 126.171 259.616 126.165C259.6 126.159 259.585 126.15 259.572 126.137C259.559 126.125 259.549 126.111 259.542 126.095C259.535 126.078 259.531 126.061 259.531 126.043C259.533 126.01 259.547 125.978 259.571 125.954C259.595 125.93 259.627 125.916 259.66 125.914C259.874 125.926 260.081 125.987 260.267 126.093C260.453 126.198 260.612 126.345 260.732 126.522C260.755 126.548 260.768 126.582 260.768 126.617C260.768 126.652 260.755 126.686 260.732 126.712C260.718 126.721 260.701 126.728 260.684 126.73C260.667 126.733 260.65 126.732 260.633 126.727Z" fill="#263238"/>
<path d="M257.33 124.455C257.193 123.96 257.149 123.445 257.201 122.935C257.279 122.68 257.41 122.445 257.585 122.244C257.761 122.044 257.977 121.883 258.219 121.772C258.982 121.524 259.804 121.524 260.568 121.772C260.752 121.8 260.93 121.862 261.092 121.954C261.175 122 261.245 122.067 261.293 122.148C261.341 122.23 261.366 122.323 261.366 122.418C261.353 122.512 261.315 122.602 261.257 122.676C261.198 122.751 261.12 122.809 261.031 122.844C260.856 122.927 259.511 123.246 258.903 123.467C258.306 123.664 257.767 124.003 257.33 124.455Z" fill="#263238"/>
<path d="M265.899 122.979C266.39 123.439 266.731 124.036 266.877 124.692C267.024 125.348 266.969 126.033 266.72 126.658C266.507 127.098 266.271 127.527 266.013 127.942L264.129 126.65C263.27 126.192 262.602 125.443 262.244 124.537C262.05 124.061 261.695 123.667 261.241 123.426C260.787 123.184 260.262 123.109 259.759 123.215C259.5 123.268 259.143 123.321 258.999 123.078C258.854 122.835 259.265 122.318 259.553 122.098C260.686 121.095 262.776 120.555 265.899 122.979Z" fill="#263238"/>
<path opacity="0.2" d="M262.204 124.412C261.505 123.196 260.615 123.082 259.438 123.264C259.446 123.118 259.484 122.976 259.55 122.845C259.615 122.715 259.706 122.599 259.817 122.504C260.745 121.744 262.006 123.53 262.204 124.412Z" fill="black"/>
<path d="M258.919 123.065C258.828 123.165 258.763 123.285 258.729 123.415C258.641 123.754 258.622 124.107 258.674 124.453C258.726 124.799 258.849 125.131 259.033 125.429C258.73 125.094 258.513 124.689 258.402 124.251C258.31 123.982 258.261 123.7 258.258 123.415C258.263 123.13 258.378 122.858 258.577 122.655C258.676 122.559 258.8 122.494 258.935 122.467C259.069 122.44 259.209 122.453 259.337 122.503C259.489 122.579 259.747 122.868 259.565 123.005C259.383 123.141 259.162 122.822 258.919 123.065Z" fill="#263238"/>
<path opacity="0.3" d="M257.233 100.334V177.436H172.789V80.1406H252.794V100.334H257.233Z" fill="black"/>
<path d="M252.792 69.8672H168.5V173.174H252.792V69.8672Z" fill="white"/>
<path d="M252.784 69.8672H168.492V75.9776H252.784V69.8672Z" fill="#263238"/>
<path opacity="0.1" d="M252.789 75.9766H191.867V173.173H252.789V75.9766Z" fill="black"/>
<path opacity="0.1" d="M211.975 78.3047H194.867V98.0951H211.975V78.3047Z" fill="black"/>
<path opacity="0.1" d="M250.742 78.3047H215.242V86.4519H250.742V78.3047Z" fill="black"/>
<path opacity="0.1" d="M250.742 89.9453H215.242V133.889H250.742V89.9453Z" fill="black"/>
<path opacity="0.1" d="M250.742 137.375H215.242V170.26H250.742V137.375Z" fill="black"/>
<path d="M215.239 105.664H191.672V113.234H215.239V105.664Z" fill="#6553DF"/>
<path d="M192.06 89.9453H168.492V97.5149H192.06V89.9453Z" fill="#6553DF"/>
<path d="M250.742 144.586H215.242V148.515H250.742V144.586Z" fill="black"/>
<path d="M218.805 81.5988L219.543 80.1016L220.28 81.5988L221.929 81.842L220.736 83.0048L221.025 84.6464L219.543 83.8712L218.068 84.654L218.349 83.0048L217.156 81.842L218.805 81.5988Z" fill="#6553DF"/>
<path d="M225.532 81.5988L226.261 80.1016L227.006 81.5988L228.655 81.842L227.462 83.0048L227.743 84.6464L226.269 83.8712L224.795 84.654L225.076 83.0048L223.875 81.842L225.532 81.5988Z" fill="#6553DF"/>
<path d="M232.251 81.5988L232.988 80.1016L233.725 81.5988L235.382 81.842L234.189 83.0048L234.47 84.6464L232.988 83.8712L231.514 84.654L231.795 83.0048L230.602 81.842L232.251 81.5988Z" fill="#6553DF"/>
<path d="M238.977 81.5988L239.714 80.1016L240.452 81.5988L242.101 81.842L240.908 83.0048L241.196 84.6464L239.714 83.8712L238.24 84.654L238.521 83.0048L237.32 81.842L238.977 81.5988Z" fill="black"/>
<path d="M245.696 81.5988L246.433 80.1016L247.178 81.5988L248.827 81.842L247.634 83.0048L247.915 84.6464L246.441 83.8712L244.959 84.654L245.24 83.0048L244.047 81.842L245.696 81.5988Z" fill="black"/>
<path d="M231.727 93.8203H217.766V94.5803H231.727V93.8203Z" fill="#263238"/>
<path d="M228.786 100.375H217.766V101.135H228.786V100.375Z" fill="#263238"/>
<path d="M228.786 106.086H217.766V106.846H228.786V106.086Z" fill="#263238"/>
<path d="M228.786 111.805H217.766V112.565H228.786V111.805Z" fill="#263238"/>
<path d="M228.786 117.523H217.766V118.283H228.786V117.523Z" fill="#263238"/>
<path d="M228.786 123.242H217.766V124.002H228.786V123.242Z" fill="#263238"/>
<path d="M228.786 128.961H217.766V129.721H228.786V128.961Z" fill="#263238"/>
<path d="M241.325 100.375H230.305V101.135H241.325V100.375Z" fill="#263238"/>
<path d="M241.325 106.086H230.305V106.846H241.325V106.086Z" fill="#263238"/>
<path d="M241.325 111.805H230.305V112.565H241.325V111.805Z" fill="#263238"/>
<path d="M241.325 117.523H230.305V118.283H241.325V117.523Z" fill="#263238"/>
<path d="M241.325 123.242H230.305V124.002H241.325V123.242Z" fill="#263238"/>
<path d="M241.325 128.961H230.305V129.721H241.325V128.961Z" fill="#263238"/>
<path d="M241.326 96H217.766V96.76H241.326V96Z" fill="#263238"/>
<path d="M241.326 141.148H217.766V141.908H241.326V141.148Z" fill="#263238"/>
<path d="M211.982 100.375H194.867V101.135H211.982V100.375Z" fill="#263238"/>
<path d="M211.982 117.016H194.867V117.776H211.982V117.016Z" fill="#263238"/>
<path d="M211.982 123.383H194.867V124.143H211.982V123.383Z" fill="#263238"/>
<path d="M211.982 129.758H194.867V130.518H211.982V129.758Z" fill="#263238"/>
<path d="M211.982 136.117H194.867V136.877H211.982V136.117Z" fill="#263238"/>
<path d="M211.982 142.484H194.867V143.244H211.982V142.484Z" fill="#263238"/>
<path d="M211.982 148.852H194.867V149.612H211.982V148.852Z" fill="#263238"/>
<path d="M211.982 155.219H194.867V155.979H211.982V155.219Z" fill="#263238"/>
<path d="M211.982 161.586H194.867V162.346H211.982V161.586Z" fill="#263238"/>
<path d="M203.425 102.828H194.867V103.588H203.425V102.828Z" fill="#263238"/>
<path d="M189.115 79.7266H171.438V80.4866H189.115V79.7266Z" fill="#263238"/>
<path d="M189.115 84.6406H171.438V85.4006H189.115V84.6406Z" fill="#263238"/>
<path d="M189.115 102.828H171.438V103.588H189.115V102.828Z" fill="#263238"/>
<path d="M194.906 98.0246V95.6154C200.261 93.7004 206.103 93.6388 211.497 95.4406L212.014 95.6154V98.0246H194.906Z" fill="#263238"/>
<path d="M206.061 89.3594L204.26 90.7882L201.82 92.7338C201.959 93.0177 202.046 93.3238 202.079 93.6382C202.157 93.9772 202.11 94.3331 201.946 94.6403C201.783 94.9475 201.514 95.1854 201.189 95.3102C200.855 95.3938 200.429 96.967 202.443 97.1798C203.021 97.2791 203.612 97.2581 204.181 97.1181C204.75 96.9782 205.284 96.7223 205.749 96.3666C206.213 95.941 206.357 95.6902 206.084 95.0746C205.278 93.3418 205.605 91.1074 206.061 89.3594Z" fill="#DD8C6A"/>
<path opacity="0.2" d="M202.414 92.2565L203.995 90.8125C203.992 90.8707 203.992 90.9291 203.995 90.9873C204.015 91.2402 204.015 91.4944 203.995 91.7473C203.869 92.2228 203.63 92.6607 203.298 93.0235C202.965 93.3862 202.55 93.6628 202.087 93.8297V93.6473C202.049 93.3548 201.972 93.0686 201.859 92.7961V92.7505L202.414 92.2565Z" fill="black"/>
<path d="M201.162 88.0869C200.303 85.5105 200.774 84.1957 199.786 82.7669C199.194 82.3869 197.909 83.3825 198.335 85.4877C198.76 87.5929 201.162 88.0869 201.162 88.0869Z" fill="#263238"/>
<path d="M206.506 86.1995C206.225 88.9963 206.172 90.6379 204.697 91.9831C202.471 94.0123 199.073 92.5075 198.534 89.7031C198.04 87.1419 198.617 83.0075 201.414 82.1031C202.396 81.7788 203.466 81.8575 204.39 82.3222C205.313 82.7868 206.014 83.5992 206.339 84.5807C206.51 85.1022 206.567 85.6542 206.506 86.1995Z" fill="#DD8C6A"/>
<path d="M206.45 88.7106L205.234 88.779L204.999 86.917L203.874 86.0202L203.555 83.1094C203.555 83.1094 206.123 83.1094 207.111 83.1094C207.461 83.1094 208.51 84.2266 208.631 84.6294C208.775 85.2118 208.755 85.8228 208.572 86.3943C208.39 86.9658 208.053 87.4756 207.598 87.867C207.246 88.1874 206.861 88.4701 206.45 88.7106Z" fill="#263238"/>
<path d="M206.494 84.2654C205.779 84.6378 204.89 84.2274 204.123 84.0146C203.358 83.7761 202.582 83.5782 201.797 83.4218C201.109 83.2798 200.393 83.3933 199.783 83.741C199.488 83.9228 199.268 84.2058 199.166 84.5372C199.064 84.8686 199.086 85.2258 199.228 85.5422C198.799 85.3179 198.431 84.9921 198.157 84.5932C197.882 84.1943 197.709 83.7343 197.653 83.2533C197.597 82.7724 197.659 82.2849 197.834 81.8334C198.009 81.382 198.292 80.9802 198.658 80.663C199.359 80.1008 200.229 79.7903 201.128 79.7814C202.02 79.7767 202.91 79.871 203.781 80.0626C204.943 80.2678 206.615 80.2526 207.687 80.7466C208.759 81.2406 208.66 83.133 206.494 84.2654Z" fill="#263238"/>
<path d="M207.564 88.4073C207.39 89.0108 207 89.5298 206.47 89.8665C205.778 90.2921 205.178 89.5701 205.239 88.7797C205.299 87.9893 205.839 87.1077 206.591 87.0089C207.344 86.9101 207.769 87.6549 207.564 88.4073Z" fill="#DD8C6A"/>
<path d="M202.072 87.0745C202.072 87.3101 201.95 87.5001 201.798 87.5077C201.646 87.5153 201.532 87.3329 201.517 87.0973C201.502 86.8617 201.646 86.6641 201.798 86.6641C201.95 86.6641 202.072 86.8389 202.072 87.0745Z" fill="#263238"/>
<path d="M199.422 87.1606C199.422 87.3962 199.3 87.5938 199.148 87.5938C198.996 87.5938 198.867 87.4114 198.867 87.1834C198.867 86.9554 198.996 86.7578 199.148 86.7502C199.3 86.7426 199.422 86.925 199.422 87.1606Z" fill="#263238"/>
<path d="M200.273 87.3047C200.076 87.9372 199.795 88.5404 199.438 89.0983C199.581 89.1826 199.741 89.2339 199.907 89.2483C200.073 89.2628 200.239 89.2401 200.395 89.1819L200.273 87.3047Z" fill="#FF5652"/>
<path d="M200.639 90.5438C200.91 90.5441 201.179 90.4897 201.428 90.3839C201.677 90.2781 201.903 90.1231 202.091 89.9282C202.103 89.9141 202.109 89.8957 202.108 89.8772C202.106 89.8587 202.098 89.8415 202.083 89.8294C202.069 89.8173 202.051 89.8113 202.032 89.8127C202.014 89.8141 201.997 89.8229 201.985 89.837C201.778 90.0464 201.526 90.2059 201.248 90.3033C200.97 90.4008 200.673 90.4336 200.381 90.3994C200.372 90.3971 200.363 90.3968 200.354 90.3982C200.344 90.3997 200.336 90.4031 200.328 90.408C200.32 90.413 200.313 90.4195 200.308 90.4272C200.303 90.4348 200.299 90.4435 200.297 90.4526C200.295 90.4716 200.3 90.4908 200.311 90.5063C200.323 90.5218 200.339 90.5325 200.358 90.5362C200.452 90.5467 200.546 90.5493 200.639 90.5438Z" fill="#263238"/>
<path d="M202.584 86.2336C202.607 86.2394 202.63 86.2394 202.653 86.2336C202.666 86.2215 202.676 86.2068 202.683 86.1905C202.691 86.1741 202.694 86.1565 202.694 86.1386C202.694 86.1208 202.691 86.1031 202.683 86.0868C202.676 86.0704 202.666 86.0557 202.653 86.0436C202.522 85.8721 202.351 85.7358 202.155 85.6469C201.958 85.558 201.743 85.5194 201.528 85.5344C201.491 85.5383 201.457 85.5562 201.433 85.5845C201.409 85.6128 201.397 85.6493 201.399 85.6864C201.401 85.7044 201.406 85.7219 201.415 85.7378C201.423 85.7537 201.435 85.7677 201.449 85.779C201.463 85.7903 201.48 85.7987 201.497 85.8037C201.514 85.8086 201.533 85.8101 201.551 85.808C201.719 85.8006 201.887 85.8332 202.04 85.9032C202.193 85.9732 202.328 86.0787 202.432 86.2108C202.452 86.2304 202.477 86.2432 202.505 86.2473C202.532 86.2514 202.56 86.2466 202.584 86.2336Z" fill="#263238"/>
<path d="M199.407 85.6362C199.414 85.6139 199.414 85.5902 199.407 85.5678C199.405 85.5498 199.4 85.5324 199.391 85.5165C199.382 85.5006 199.371 85.4866 199.356 85.4753C199.342 85.464 199.326 85.4556 199.309 85.4506C199.291 85.4456 199.273 85.4441 199.255 85.4462C199.04 85.4567 198.831 85.5206 198.646 85.632C198.462 85.7435 198.308 85.899 198.199 86.0846C198.189 86.1005 198.183 86.1181 198.181 86.1364C198.178 86.1547 198.18 86.1732 198.185 86.191C198.19 86.2087 198.198 86.2253 198.21 86.2397C198.221 86.254 198.236 86.2659 198.252 86.2746C198.285 86.2909 198.324 86.2937 198.359 86.2823C198.394 86.271 198.424 86.2465 198.442 86.2138C198.529 86.0684 198.651 85.9471 198.797 85.8608C198.943 85.7745 199.108 85.7261 199.278 85.7198C199.305 85.7205 199.332 85.7128 199.355 85.6979C199.378 85.683 199.396 85.6615 199.407 85.6362Z" fill="#263238"/>
<path opacity="0.3" d="M221.834 121.414H137.383V218.709H221.834V121.414Z" fill="black"/>
<path d="M217.378 111.141H133.086V214.447H217.378V111.141Z" fill="white"/>
<path d="M217.378 111.141H133.086V117.251H217.378V111.141Z" fill="#263238"/>
<path opacity="0.1" d="M217.383 117.258H156.461V214.454H217.383V117.258Z" fill="black"/>
<path opacity="0.1" d="M176.569 119.586H159.461V139.376H176.569V119.586Z" fill="black"/>
<path opacity="0.1" d="M215.336 119.586H179.836V127.733H215.336V119.586Z" fill="black"/>
<path opacity="0.1" d="M215.336 131.219H179.836V175.162H215.336V131.219Z" fill="black"/>
<path opacity="0.1" d="M215.336 178.656H179.836V211.541H215.336V178.656Z" fill="black"/>
<path d="M179.833 146.938H156.266V154.507H179.833V146.938Z" fill="#6553DF"/>
<path d="M156.654 131.219H133.086V138.788H156.654V131.219Z" fill="#6553DF"/>
<path d="M215.336 185.859H179.836V189.789H215.336V185.859Z" fill="black"/>
<path d="M183.399 122.88L184.136 121.383L184.874 122.88L186.53 123.116L185.33 124.278L185.618 125.928L184.136 125.152L182.662 125.928L182.943 124.286L181.75 123.123L183.399 122.88Z" fill="#6553DF"/>
<path d="M190.126 122.88L190.863 121.383L191.6 122.88L193.249 123.116L192.056 124.278L192.337 125.928L190.863 125.152L189.388 125.928L189.67 124.286L188.469 123.123L190.126 122.88Z" fill="#6553DF"/>
<path d="M196.845 122.88L197.582 121.383L198.319 122.88L199.976 123.116L198.783 124.278L199.064 125.928L197.589 125.152L196.107 125.928L196.389 124.286L195.195 123.123L196.845 122.88Z" fill="#6553DF"/>
<path d="M203.571 122.88L204.308 121.383L205.045 122.88L206.695 123.116L205.501 124.278L205.783 125.928L204.308 125.152L202.834 125.928L203.115 124.286L201.922 123.123L203.571 122.88Z" fill="#6553DF"/>
<path d="M210.29 122.88L211.027 121.383L211.772 122.88L213.421 123.116L212.228 124.278L212.509 125.928L211.035 125.152L209.56 125.928L209.834 124.286L208.641 123.123L210.29 122.88Z" fill="black"/>
<path d="M196.321 135.102H182.359V135.862H196.321V135.102Z" fill="#263238"/>
<path d="M193.379 141.648H182.359V142.408H193.379V141.648Z" fill="#263238"/>
<path d="M193.379 147.367H182.359V148.127H193.379V147.367Z" fill="#263238"/>
<path d="M193.379 153.086H182.359V153.846H193.379V153.086Z" fill="#263238"/>
<path d="M193.379 158.797H182.359V159.557H193.379V158.797Z" fill="#263238"/>
<path d="M193.379 164.523H182.359V165.283H193.379V164.523Z" fill="#263238"/>
<path d="M193.379 170.234H182.359V170.994H193.379V170.234Z" fill="#263238"/>
<path d="M205.926 141.648H194.906V142.408H205.926V141.648Z" fill="#263238"/>
<path d="M205.926 147.367H194.906V148.127H205.926V147.367Z" fill="#263238"/>
<path d="M205.926 153.086H194.906V153.846H205.926V153.086Z" fill="#263238"/>
<path d="M205.926 158.797H194.906V159.557H205.926V158.797Z" fill="#263238"/>
<path d="M205.926 164.523H194.906V165.283H205.926V164.523Z" fill="#263238"/>
<path d="M205.926 170.234H194.906V170.994H205.926V170.234Z" fill="#263238"/>
<path d="M205.919 137.281H182.359V138.041H205.919V137.281Z" fill="#263238"/>
<path d="M205.919 182.422H182.359V183.182H205.919V182.422Z" fill="#263238"/>
<path d="M176.576 141.648H159.461V142.408H176.576V141.648Z" fill="#263238"/>
<path d="M176.576 158.297H159.461V159.057H176.576V158.297Z" fill="#263238"/>
<path d="M176.576 164.664H159.461V165.424H176.576V164.664Z" fill="#263238"/>
<path d="M176.576 171.031H159.461V171.791H176.576V171.031Z" fill="#263238"/>
<path d="M176.576 177.398H159.461V178.158H176.576V177.398Z" fill="#263238"/>
<path d="M176.576 183.758H159.461V184.518H176.576V183.758Z" fill="#263238"/>
<path d="M176.576 190.125H159.461V190.885H176.576V190.125Z" fill="#263238"/>
<path d="M176.576 196.5H159.461V197.26H176.576V196.5Z" fill="#263238"/>
<path d="M176.576 202.859H159.461V203.619H176.576V202.859Z" fill="#263238"/>
<path d="M168.019 144.102H159.461V144.862H168.019V144.102Z" fill="#263238"/>
<path d="M153.709 121.008H136.031V121.768H153.709V121.008Z" fill="#263238"/>
<path d="M153.709 125.914H136.031V126.674H153.709V125.914Z" fill="#263238"/>
<path d="M153.709 144.102H136.031V144.862H153.709V144.102Z" fill="#263238"/>
<path d="M159.461 139.378V136.961C164.819 135.054 170.662 134.992 176.059 136.786L176.576 136.961V139.378H159.461Z" fill="#6553DF"/>
<path d="M166.516 122.08C165.971 121.927 165.398 121.904 164.842 122.012C164.287 122.121 163.764 122.357 163.316 122.703C162.419 123.399 161.728 124.327 161.317 125.386C161.161 125.659 161.078 125.968 161.078 126.283C161.078 126.597 161.161 126.906 161.317 127.179C161.72 127.689 162.495 127.658 163.149 127.582C164.16 125.667 165.36 123.919 166.516 122.08Z" fill="#263238"/>
<path d="M165.916 133.627C166.403 134.797 166.676 136.105 165.156 137.153C164.843 137.37 164.613 137.686 164.503 138.05C164.343 138.643 164.548 139.312 166.745 138.628C169.922 137.64 170.134 135.717 170.134 135.717C168.782 134.919 168.614 131.628 168.736 129.789L165.916 133.627Z" fill="#FFB573"/>
<path opacity="0.2" d="M167.966 132.393C167.966 133.198 166.917 134.209 166.203 134.536C166.134 134.223 166.035 133.917 165.906 133.624L167.593 131.344C167.791 131.663 167.918 132.02 167.966 132.393Z" fill="black"/>
<path d="M170.501 125.372C170.35 124.871 170.101 124.406 169.77 124.002C169.438 123.597 169.03 123.263 168.57 123.016C168.109 122.77 167.604 122.617 167.083 122.566C166.563 122.515 166.038 122.567 165.538 122.719C162.566 123.601 161.738 127.887 162.08 130.57C162.468 133.572 165.941 134.773 168.38 132.721C170.014 131.353 170.151 130.114 170.615 127.211C170.718 126.597 170.679 125.968 170.501 125.372Z" fill="#FFB573"/>
<path d="M163.858 129.669C163.703 129.692 163.545 129.681 163.395 129.637C163.244 129.594 163.104 129.52 162.984 129.418C163.407 128.964 163.762 128.452 164.041 127.898L163.858 129.669Z" fill="#ED893E"/>
<path d="M166.091 130.089C166.103 130.075 166.109 130.057 166.109 130.039C166.109 130.021 166.103 130.004 166.091 129.99C166.085 129.983 166.077 129.978 166.068 129.974C166.06 129.971 166.051 129.969 166.042 129.969C166.032 129.969 166.023 129.971 166.015 129.974C166.006 129.978 165.999 129.983 165.992 129.99C165.79 130.208 165.54 130.374 165.261 130.476C164.982 130.578 164.683 130.612 164.389 130.575C164.37 130.576 164.353 130.584 164.339 130.596C164.325 130.609 164.316 130.625 164.313 130.643C164.312 130.661 164.318 130.679 164.329 130.692C164.34 130.706 164.356 130.716 164.373 130.719C164.487 130.727 164.601 130.727 164.715 130.719C165.239 130.697 165.732 130.47 166.091 130.089Z" fill="#263238"/>
<path d="M163.82 123.068C164.354 123.031 164.886 123.156 165.348 123.428C165.809 123.699 166.177 124.103 166.404 124.588C166.587 125.062 166.719 125.553 166.8 126.055C166.881 126.56 167.099 127.033 167.43 127.423C167.601 127.611 167.826 127.74 168.075 127.792C168.323 127.844 168.582 127.816 168.814 127.711C168.951 128.158 169.205 128.56 169.55 128.875C169.895 129.19 170.317 129.408 170.774 129.505C170.121 130.455 169.308 131.451 168.654 132.401C168.89 133.161 168.912 133.282 169.148 134.019C169.962 133.759 170.717 133.34 171.369 132.787C172.022 132.234 172.558 131.558 172.948 130.797C173.708 129.277 173.875 127.369 172.431 127.324C172.94 126.298 172.006 124.147 171.238 123.296C170.524 122.656 169.675 122.186 168.753 121.923C167.831 121.66 166.862 121.609 165.918 121.776C165.089 121.948 164.347 122.405 163.82 123.068Z" fill="#263238"/>
<path d="M171.305 129.263C171.331 129.01 171.256 128.757 171.096 128.56C170.937 128.362 170.706 128.235 170.454 128.206C169.694 128.145 169.17 129.019 169.018 129.65C168.866 130.281 169.246 130.973 169.96 130.729C170.495 130.542 170.935 130.152 171.184 129.643C171.251 129.526 171.292 129.396 171.305 129.263Z" fill="#FFB573"/>
<path d="M166.664 126.465C166.687 126.47 166.71 126.47 166.733 126.465C166.758 126.437 166.772 126.4 166.772 126.362C166.772 126.324 166.758 126.288 166.733 126.26C166.567 126.047 166.351 125.878 166.104 125.768C165.858 125.658 165.588 125.61 165.319 125.629C165.3 125.631 165.282 125.636 165.266 125.646C165.249 125.655 165.235 125.667 165.223 125.682C165.212 125.697 165.204 125.714 165.199 125.733C165.195 125.751 165.194 125.77 165.197 125.789C165.199 125.807 165.205 125.824 165.213 125.84C165.222 125.856 165.234 125.87 165.248 125.881C165.262 125.892 165.278 125.901 165.296 125.906C165.313 125.911 165.331 125.912 165.349 125.91C165.571 125.902 165.792 125.946 165.994 126.038C166.196 126.13 166.373 126.269 166.512 126.442C166.533 126.46 166.558 126.471 166.585 126.475C166.612 126.479 166.639 126.476 166.664 126.465Z" fill="#263238"/>
<path d="M162.26 126.617C162.283 126.611 162.304 126.598 162.32 126.579C162.456 126.404 162.632 126.263 162.833 126.168C163.033 126.073 163.254 126.026 163.476 126.032C163.495 126.034 163.514 126.033 163.532 126.027C163.55 126.022 163.567 126.013 163.582 126.001C163.597 125.989 163.609 125.974 163.619 125.957C163.628 125.94 163.633 125.922 163.635 125.903C163.636 125.864 163.622 125.827 163.597 125.797C163.572 125.768 163.537 125.749 163.498 125.743C163.229 125.733 162.961 125.787 162.717 125.901C162.472 126.014 162.258 126.185 162.092 126.397C162.067 126.42 162.051 126.451 162.048 126.484C162.044 126.518 162.053 126.552 162.073 126.579C162.093 126.606 162.122 126.626 162.155 126.633C162.188 126.64 162.223 126.634 162.252 126.617H162.26Z" fill="#263238"/>
<path d="M165.96 127.182C165.96 127.44 165.801 127.653 165.626 127.645C165.451 127.638 165.322 127.417 165.337 127.151C165.352 126.885 165.497 126.688 165.664 126.688C165.831 126.688 165.968 126.916 165.96 127.182Z" fill="#263238"/>
<path d="M163.32 127.401C163.32 127.652 163.168 127.85 163.001 127.842C162.833 127.834 162.719 127.629 162.727 127.371C162.735 127.112 162.879 126.922 163.046 126.93C163.213 126.938 163.335 127.12 163.32 127.401Z" fill="#263238"/>
<path d="M163.116 126.948L162.523 126.75C162.523 126.75 162.812 127.236 163.116 126.948Z" fill="#263238"/>
<path d="M165.74 126.713L165.117 126.5C165.117 126.5 165.421 127.009 165.74 126.713Z" fill="#263238"/>
<path d="M68.8824 156.004C63 156.004 63 150.966 63 150.966L112.97 97.2487L113.228 96.0859L116.094 98.7535C116.072 98.7937 116.046 98.8319 116.018 98.8675C115.858 99.1639 72.196 156.004 68.8824 156.004Z" fill="#263238"/>
<g opacity="0.5">
<path opacity="0.4" d="M144.121 84.9723C137.562 95.1107 126.58 102.893 119.672 99.2831C119.707 99.2496 119.733 99.2078 119.748 99.1615L115.948 97.0943C113.402 94.8143 111.965 91.4627 111.6 87.5259C111.023 81.4459 112.946 74.0891 117.141 67.2719C124.536 55.2487 136.589 49.9059 142.152 53.2271C143.062 53.7701 143.94 54.3638 144.782 55.0055H144.82C145.556 55.4893 146.255 56.0279 146.91 56.6167C147.22 56.9208 147.5 57.2543 147.746 57.6123C149.163 59.6782 149.969 62.1014 150.072 64.6043C150.588 70.5019 148.635 78.0183 144.121 84.9723Z" fill="white"/>
</g>
<path opacity="0.2" d="M150.08 64.4608L115.956 96.9128C113.41 94.6328 111.974 91.2812 111.602 87.3444V87.2836L147.732 57.4688C149.153 59.534 149.967 61.9564 150.08 64.4608Z" fill="white"/>
<path d="M146.718 86.0066C155.009 72.6154 153.976 56.9214 144.369 50.9782C134.763 45.035 120.27 51.0998 111.971 64.4834C103.892 77.5402 104.659 92.7478 113.559 99.0254C113.802 99.2154 114.053 99.3674 114.319 99.5346C115.357 100.18 116.473 100.691 117.64 101.055C127.011 104.064 139.323 97.9462 146.718 86.0066ZM118.902 98.5314C118.37 98.3845 117.859 98.1699 117.382 97.893C117.307 97.8626 117.236 97.8244 117.169 97.779L116.85 97.5738L116.759 97.513C116.302 97.2229 115.872 96.8923 115.474 96.525C109.577 91.1594 110.154 78.285 117.139 67.0902C124.579 55.0898 136.754 49.7774 141.884 52.8098C142.719 53.3075 143.526 53.8505 144.301 54.4362C144.698 54.7109 145.065 55.0267 145.395 55.3786C149.955 60.1438 148.549 71.863 141.709 82.9058C134.869 93.9486 125.21 100.371 118.902 98.5314Z" fill="#263238"/>
<g opacity="0.4">
<path opacity="0.4" d="M144.093 84.7753C137.526 94.9365 126.552 102.719 119.643 99.0937C119.679 99.0602 119.705 99.0184 119.719 98.9721L118.906 98.5237C125.199 100.371 134.957 93.8725 141.752 82.9209C148.546 71.9693 150.021 60.1817 145.43 55.4089C145.28 55.2449 145.12 55.0901 144.951 54.9453C145.643 55.4011 146.299 55.9092 146.912 56.4653C147.221 56.7629 147.499 57.0914 147.741 57.4457C149.149 59.5139 149.959 61.9309 150.081 64.4301C150.545 70.3125 148.599 77.8441 144.093 84.7753Z" fill="black"/>
</g>
<path d="M49.0183 203.626C49.3147 205.618 51.2983 206.849 53.1755 207.624C56.5322 209.015 60.1029 209.82 63.7319 210.003C66.4817 200.25 68.3987 190.281 69.4623 180.203C60.5019 185.766 47.4603 193.199 49.0183 203.626Z" fill="#263238"/>
<path opacity="0.2" d="M49.0183 203.626C49.3147 205.618 51.2983 206.849 53.1755 207.624C56.5322 209.015 60.1029 209.82 63.7319 210.003C66.4817 200.25 68.3987 190.281 69.4623 180.203C60.5019 185.766 47.4603 193.199 49.0183 203.626Z" fill="black"/>
<path d="M94.3948 83.2858C94.676 83.2402 94.98 83.5442 95.0636 83.9774C95.1472 84.4106 94.9876 84.821 94.6988 84.8666C94.41 84.9122 94.1136 84.6158 94.03 84.175C93.9464 83.7342 94.106 83.339 94.3948 83.2858Z" fill="#263238"/>
<path d="M95.1576 89.0651C95.5284 89.0927 95.9007 89.039 96.2486 88.9077C96.5965 88.7765 96.9115 88.5708 97.1716 88.3051C96.0923 87.3229 95.1492 86.2009 94.3672 84.9688L95.1576 89.0651Z" fill="#B74D3C"/>
<path d="M92.1522 82.0193C92.3608 81.7612 92.6286 81.5573 92.933 81.4249C93.2373 81.2926 93.5692 81.2358 93.9002 81.2593H93.9914C94.0606 81.2594 94.1272 81.2324 94.1768 81.1841C94.2265 81.1359 94.2554 81.0702 94.2574 81.0009C94.2584 80.966 94.2525 80.9312 94.2401 80.8985C94.2276 80.8659 94.2089 80.836 94.1849 80.8106C94.1609 80.7852 94.1321 80.7647 94.1002 80.7505C94.0683 80.7362 94.0339 80.7283 93.999 80.7273C93.5886 80.681 93.1731 80.7333 92.7871 80.8801C92.4011 81.0268 92.0557 81.2637 91.7798 81.5709C91.758 81.5929 91.7407 81.619 91.7289 81.6477C91.7172 81.6764 91.7112 81.7071 91.7114 81.7381C91.7093 81.7727 91.7143 81.8073 91.7258 81.8399C91.7374 81.8726 91.7555 81.9025 91.7789 81.928C91.8023 81.9536 91.8305 81.9741 91.862 81.9885C91.8935 82.0029 91.9276 82.0108 91.9622 82.0117C92.0226 82.0369 92.09 82.0396 92.1522 82.0193Z" fill="#263238"/>
<path d="M88.7141 108.464C81.2281 108.388 80.1641 104.291 80.1641 104.291C82.4441 102.163 82.6341 98.1657 82.2313 94.5938C82.8149 95.4513 83.5549 96.1913 84.4125 96.775C85.1945 97.3296 86.0844 97.7137 87.0245 97.9022C87.9646 98.0908 88.9338 98.0796 89.8693 97.8693C89.9019 97.8759 89.9355 97.8759 89.9681 97.8693C89.9456 97.9385 89.9303 98.0098 89.9225 98.0821C89.4133 100.932 89.7477 103.987 92.7269 104.922C92.7193 104.915 96.9601 108.547 88.7141 108.464Z" fill="#CB7A63"/>
<path d="M90.1959 96.7947C90.0994 97.1396 90.0233 97.4898 89.9679 97.8435C89.9353 97.8501 89.9017 97.8501 89.8691 97.8435C88.9337 98.0538 87.9645 98.065 87.0244 97.8764C86.0843 97.6879 85.1944 97.3038 84.4123 96.7491C83.5548 96.1655 82.8148 95.4255 82.2311 94.5679C82.1323 93.6635 81.9879 92.782 81.8359 91.9688L89.8919 96.5896L90.1959 96.7947Z" fill="#CB7A63"/>
<path d="M77.875 104.929C77.875 104.929 79.129 101.304 80.915 100.186C82.701 99.0693 90.5366 100.43 91.7526 100.946C92.9686 101.463 94.1542 104.306 94.1542 104.306L77.875 104.929Z" fill="#263238"/>
<path opacity="0.5" d="M77.875 104.929C77.875 104.929 79.129 101.304 80.915 100.186C82.701 99.0693 90.5366 100.43 91.7526 100.946C92.9686 101.463 94.1542 104.306 94.1542 104.306L77.875 104.929Z" fill="white"/>
<path d="M95.6861 90.7929C95.6367 92.0776 95.2621 93.3287 94.5975 94.4293C93.933 95.5298 93 96.4438 91.8861 97.0857H91.8405C91.2673 97.4371 90.6411 97.6938 89.9861 97.8457C89.9535 97.8522 89.9199 97.8522 89.8873 97.8457C88.9518 98.0559 87.9826 98.0671 87.0426 97.8786C86.1025 97.69 85.2125 97.3059 84.4305 96.7513C83.5729 96.1676 82.833 95.4276 82.2493 94.5701C80.8205 92.5333 80.2657 89.8353 79.2929 86.0353C78.9643 84.8066 78.9546 83.5144 79.2645 82.2808C79.5745 81.0473 80.194 79.9132 81.0643 78.9858C81.9347 78.0584 83.0272 77.3682 84.2386 76.9807C85.45 76.5931 86.7402 76.5209 87.9873 76.7709C93.6417 77.9261 95.9065 85.7389 95.6861 90.7929Z" fill="#CB7A63"/>
<path opacity="0.2" d="M91.8232 97.0922C91.2499 97.4437 90.6238 97.7004 89.9688 97.8522L90.2424 94.5234C90.2424 94.5234 91.428 97.0922 91.8232 97.0922Z" fill="black"/>
<path d="M77.8767 84.0794C77.1167 85.5994 75.4143 87.3246 74.6923 88.837C74.2259 89.6012 74.0033 90.4892 74.0539 91.383C74.1219 91.8476 74.3693 92.267 74.743 92.5511C75.1167 92.8353 75.5869 92.9617 76.0527 92.903C75.2927 93.9822 75.8551 95.7606 77.0179 96.4978C77.6185 96.8567 78.3244 96.9975 79.0166 96.8964C79.7089 96.7953 80.3451 96.4586 80.8179 95.943C81.5779 96.7638 82.1479 97.3718 83.3031 97.387C83.8681 97.3926 84.4284 97.2845 84.9506 97.0691C85.4729 96.8536 85.9465 96.5353 86.3431 96.133C86.8656 96.6905 87.5463 97.0746 88.2936 97.2336C89.0409 97.3926 89.819 97.3188 90.5231 97.0222C91.1898 96.706 91.7273 96.1701 92.0456 95.5045C92.3639 94.8388 92.4435 94.084 92.2711 93.3666C91.8572 92.1124 91.6643 90.7957 91.7011 89.4754C91.7011 89.4754 93.3351 87.0738 92.6663 85.6222L91.9519 81.0622C90.6773 80.0954 89.1041 79.606 87.5059 79.679C85.9127 79.7547 84.3444 80.1044 82.8699 80.7126C80.8103 81.5258 78.7659 82.2098 77.8767 84.0794Z" fill="#263238"/>
<path d="M90.3062 83.8037C91.8642 84.2977 92.6394 86.6385 92.6774 88.1129C92.723 89.7393 91.6134 90.7425 90.215 89.6329C89.1653 88.7698 88.4262 87.5876 88.1098 86.2661C87.7602 84.6853 88.7406 83.3401 90.3062 83.8037Z" fill="#CB7A63"/>
<path d="M75.5256 276.312C74.7656 276.274 74.0512 276.13 73.846 275.78C73.7896 275.687 73.765 275.578 73.776 275.47C73.787 275.362 73.8329 275.26 73.9068 275.18C73.9598 275.1 74.0292 275.032 74.1105 274.981C74.1917 274.93 74.2829 274.897 74.378 274.883C75.3736 274.671 77.3116 275.94 77.418 275.993C77.4403 276.009 77.4573 276.031 77.4668 276.057C77.4763 276.083 77.4778 276.111 77.4712 276.137C77.466 276.166 77.4512 276.193 77.4291 276.212C77.407 276.231 77.3789 276.243 77.3496 276.244C76.7447 276.32 76.1344 276.342 75.5256 276.312ZM74.7048 275.134C74.6165 275.123 74.5271 275.123 74.4388 275.134C74.3793 275.142 74.3222 275.162 74.2711 275.194C74.22 275.225 74.1761 275.267 74.1424 275.317C74.036 275.484 74.0588 275.56 74.1424 275.621C74.378 276.008 75.86 276.092 76.962 276.008C76.2849 275.572 75.528 275.275 74.7352 275.134H74.7048Z" fill="#6553DF"/>
<path d="M77.3164 276.231H77.2556C76.5792 275.873 75.3024 274.559 75.4772 273.89C75.4772 273.73 75.6444 273.548 76.032 273.525C76.1706 273.517 76.3093 273.538 76.4398 273.585C76.5704 273.632 76.6902 273.704 76.792 273.799C77.514 274.46 77.4836 276.033 77.4836 276.079C77.4803 276.103 77.4717 276.127 77.4586 276.148C77.4455 276.169 77.4281 276.186 77.4076 276.2C77.3822 276.222 77.3496 276.233 77.3164 276.231ZM76.108 273.806H76.0016C75.7508 273.806 75.7204 273.92 75.7128 273.951C75.614 274.346 76.4728 275.379 77.1492 275.858C77.1445 275.197 76.9318 274.553 76.5412 274.019C76.482 273.951 76.4098 273.896 76.3288 273.857C76.2479 273.818 76.1598 273.795 76.07 273.791L76.108 273.806Z" fill="#6553DF"/>
<path d="M84.4577 262.983L78.6361 262.672L77.9141 276.124L83.7661 276.435L84.4577 262.983Z" fill="#CB7A63"/>
<path d="M76.5536 275.821C72.3508 278.04 71.1196 278.101 66.4228 278.861C65.3968 279.028 65.8148 281.491 68.224 281.62C72.214 281.84 72.6472 281.673 76.0444 281.856C78.9552 282.015 82.2916 282.327 84.602 282.486C84.6725 282.498 84.7444 282.498 84.8148 282.486C85.0458 282.454 85.2548 282.333 85.3969 282.148C85.5391 281.963 85.603 281.73 85.5748 281.498L84.9136 276.247C84.8965 276.134 84.8412 276.03 84.7569 275.952C84.6726 275.875 84.5643 275.829 84.45 275.821L78.0432 275.479C77.525 275.457 77.0105 275.575 76.5536 275.821Z" fill="#263238"/>
<path opacity="0.2" d="M84.4651 262.991L84.0319 271.116L78.1875 270.804L78.6359 262.68L84.4651 262.991Z" fill="black"/>
<path d="M92.5581 145.682C92.5581 145.682 92.0641 184.495 90.7493 202.789C89.5181 219.828 85.7105 269.494 85.7105 269.494L75.8305 268.954C75.8305 268.954 73.7557 217.928 73.5505 200.554C73.3681 184.093 72.5625 144.938 72.5625 144.938L92.5581 145.682Z" fill="#6553DF"/>
<path d="M92.5581 145.682C92.5581 145.682 92.0641 184.495 90.7493 202.789C89.5181 219.828 85.7105 269.494 85.7105 269.494L75.8305 268.954C75.8305 268.954 73.7557 217.928 73.5505 200.554C73.3681 184.093 72.5625 144.938 72.5625 144.938L92.5581 145.682Z" fill="#263238"/>
<path opacity="0.6" d="M92.5581 145.682C92.5581 145.682 92.0641 184.495 90.7493 202.789C89.5181 219.828 85.7105 269.494 85.7105 269.494L75.8305 268.954C75.8305 268.954 73.7557 217.928 73.5505 200.554C73.3681 184.093 72.5625 144.938 72.5625 144.938L92.5581 145.682Z" fill="white"/>
<path d="M87.4991 266.109L86.8303 269.711L74.7995 269.065C74.7995 269.065 74.6019 264.969 74.6475 264.969L87.4991 266.109Z" fill="#263238"/>
<g opacity="0.5">
<path d="M87.4991 266.109L86.8303 269.711L74.7995 269.065C74.7995 269.065 74.6019 264.969 74.6475 264.969L87.4991 266.109Z" fill="white"/>
</g>
<path d="M135.726 275.225C135.657 274.465 135.688 273.743 135.999 273.462C136.081 273.389 136.184 273.344 136.292 273.331C136.401 273.319 136.511 273.341 136.607 273.393C136.691 273.433 136.765 273.489 136.827 273.559C136.888 273.628 136.935 273.709 136.964 273.796C137.322 274.723 136.364 276.905 136.318 277.011C136.308 277.038 136.289 277.061 136.264 277.077C136.24 277.092 136.21 277.098 136.182 277.095C136.154 277.093 136.127 277.082 136.105 277.064C136.083 277.047 136.068 277.023 136.06 276.996C135.899 276.416 135.787 275.824 135.726 275.225ZM136.774 274.169C136.782 274.08 136.782 273.991 136.774 273.903C136.759 273.847 136.731 273.795 136.693 273.752C136.655 273.708 136.607 273.674 136.554 273.652C136.372 273.576 136.288 273.652 136.25 273.69C135.9 274.001 136.03 275.468 136.288 276.532C136.603 275.783 136.776 274.981 136.797 274.169H136.774Z" fill="#6553DF"/>
<path d="M136.042 276.958C136.038 276.941 136.038 276.923 136.042 276.905C136.293 276.145 137.417 274.625 138.086 274.625C138.246 274.625 138.451 274.724 138.519 275.089C138.549 275.227 138.55 275.369 138.522 275.508C138.495 275.646 138.44 275.778 138.36 275.894C137.828 276.738 136.262 277.049 136.201 277.065C136.178 277.069 136.153 277.067 136.131 277.059C136.108 277.051 136.088 277.037 136.072 277.019C136.055 277.003 136.044 276.981 136.042 276.958ZM138.253 275.271V275.18C138.253 274.937 138.101 274.929 138.071 274.937C137.668 274.937 136.771 275.978 136.407 276.745C137.066 276.601 137.667 276.262 138.132 275.773C138.238 275.624 138.291 275.445 138.284 275.263L138.253 275.271Z" fill="#6553DF"/>
<path d="M131.765 263.812L126.148 264.839L130.488 278.024L136.15 276.991L131.765 263.812Z" fill="#CB7A63"/>
<path d="M137.452 276.083C139.155 277.732 140.052 278.576 144.642 279.488C145.653 279.685 144.984 282.14 142.575 282.193C138.592 282.284 140.774 282.049 137.376 282.125C134.473 282.186 131.137 282.398 128.826 282.489C128.748 282.501 128.669 282.501 128.591 282.489C128.482 282.466 128.379 282.421 128.287 282.358C128.196 282.294 128.118 282.213 128.059 282.118C127.999 282.024 127.959 281.919 127.941 281.809C127.923 281.699 127.927 281.587 127.952 281.479L129.123 276.235C129.147 276.119 129.21 276.016 129.301 275.941C129.392 275.866 129.506 275.825 129.624 275.824L136.008 275.68C136.264 275.647 136.523 275.666 136.771 275.735C137.019 275.804 137.251 275.922 137.452 276.083Z" fill="#263238"/>
<path opacity="0.2" d="M131.772 263.812L134.022 270.584L128.383 271.618L126.148 264.831L131.772 263.812Z" fill="black"/>
<path opacity="0.3" d="M92.391 171.203C91.631 184.351 90.9698 200.083 90.4302 208.831C90.4302 209.257 90.3694 209.69 90.3542 210.161C87.9222 196.283 84.2742 173.681 91.0002 171.348C91.4526 171.223 91.9226 171.174 92.391 171.203Z" fill="black"/>
<path d="M75.2422 147.482C75.2422 147.482 76.5494 161.002 78.6546 166.938C81.6338 175.336 85.3502 178.042 88.2078 183.065C93.2466 191.919 96.051 199.527 99.4482 206.572C110.088 228.612 124.817 267.425 124.817 267.425L135.457 266.665L97.7686 146.836L75.2422 147.482Z" fill="#263238"/>
<path opacity="0.6" d="M75.2422 147.482C75.2422 147.482 76.5494 161.002 78.6546 166.938C81.6338 175.336 85.3502 178.042 88.2078 183.065C93.2466 191.919 96.051 199.527 99.4482 206.572C110.088 228.612 124.817 267.425 124.817 267.425L135.457 266.665L97.7686 146.836L75.2422 147.482Z" fill="white"/>
<path d="M137.34 264.406L137.469 268.062L125.104 269.909C125.104 269.909 123.987 265.957 124.033 265.957L137.34 264.406Z" fill="#263238"/>
<g opacity="0.5">
<path d="M137.34 264.406L137.469 268.062L125.104 269.909C125.104 269.909 123.987 265.957 124.033 265.957L137.34 264.406Z" fill="white"/>
</g>
<path d="M78.4462 137.438C77.9294 138.73 76.7134 141.306 74.8514 142.826C74.6426 142.999 74.3916 143.112 74.1244 143.155C73.8572 143.197 73.5834 143.168 73.3314 143.07C73.3314 143.07 70.0558 141.048 69.7974 140.136C69.7863 140.081 69.7863 140.024 69.7974 139.969L70.6106 136.169L70.7094 136.131C71.3022 135.933 74.5094 134.953 75.8622 135.5L77.9826 136.351C78.0915 136.382 78.1921 136.437 78.2771 136.512C78.3621 136.587 78.4292 136.68 78.4736 136.784C78.5181 136.888 78.5387 137.001 78.5339 137.114C78.5292 137.227 78.4992 137.338 78.4462 137.438Z" fill="#CB7A63"/>
<path d="M73.1009 114.047L61.9821 124.877L70.7297 136.155L70.6309 136.193L69.8177 139.993C69.8067 140.048 69.8067 140.105 69.8177 140.16C69.2666 140.364 68.6716 140.419 68.0925 140.32C68.0925 140.32 51.5017 126.845 52.4365 124.52C53.3268 122.679 54.3425 120.901 55.4765 119.2L55.5905 119.025C57.0573 116.593 66.2837 102.784 73.2225 102.86C78.7097 102.905 78.4133 109.221 73.1009 114.047Z" fill="#6553DF"/>
<path opacity="0.5" d="M73.1027 114.047L61.9839 124.877L70.7315 136.155L70.6327 136.193L69.8195 139.993C69.8085 140.048 69.8085 140.105 69.8195 140.16C69.2684 140.364 68.6734 140.419 68.0943 140.32C68.0943 140.32 51.2983 128.791 52.4383 124.52C52.7575 123.296 54.2167 121.145 55.4783 119.2L55.5923 119.025C57.0591 116.593 66.2855 102.784 73.2243 102.86C78.7115 102.905 78.4151 109.221 73.1027 114.047Z" fill="black"/>
<path d="M69.8286 140.13C69.8175 140.075 69.8175 140.018 69.8286 139.963L70.6418 136.163L70.7406 136.125L71.0142 136.239C71.0142 136.239 71.8958 139.34 69.8286 140.13Z" fill="#263238"/>
<path d="M124.746 204.232C107.661 208.389 109.348 194.352 85.8642 203.472C78.9482 206.163 74.9278 199.216 71.1886 198.076C63.733 195.796 55.4414 196.495 48.875 200.698C53.6106 181.515 61.2589 163.171 71.5534 146.305C72.093 142.338 73.6738 133.947 69.3798 110.479C68.6198 106.169 73.0582 102.476 77.4282 102.248L80.187 102.043C84.3584 101.846 88.5377 101.889 92.7042 102.172C94.095 102.309 95.4478 102.521 96.6486 102.749C98.2079 103.041 99.6417 103.8 100.76 104.925C101.878 106.05 102.629 107.489 102.911 109.05C103.654 113.27 103.909 117.562 103.671 121.841C103.504 126.302 102.987 132.131 101.923 140.187C101.657 142.209 101.353 144.375 101.011 146.7C101.011 146.7 112.213 173.597 124.746 204.232Z" fill="#6553DF"/>
<path opacity="0.5" d="M124.746 204.232C107.661 208.389 109.348 194.352 85.8642 203.472C78.9482 206.163 74.9278 199.216 71.1886 198.076C63.733 195.796 55.4414 196.495 48.875 200.698C53.6106 181.515 61.2589 163.171 71.5534 146.305C72.093 142.338 73.6738 133.947 69.3798 110.479C68.6198 106.169 73.0582 102.476 77.4282 102.248L80.187 102.043C84.3584 101.846 88.5377 101.889 92.7042 102.172C94.095 102.309 95.4478 102.521 96.6486 102.749C98.2079 103.041 99.6417 103.8 100.76 104.925C101.878 106.05 102.629 107.489 102.911 109.05C103.654 113.27 103.909 117.562 103.671 121.841C103.504 126.302 102.987 132.131 101.923 140.187C101.657 142.209 101.353 144.375 101.011 146.7C101.011 146.7 112.213 173.597 124.746 204.232Z" fill="black"/>
<path opacity="0.2" d="M103.674 121.86C103.507 126.321 102.99 132.15 101.926 140.206C101.272 133.153 100.11 126.23 95.9297 112.086L103.53 114.51C103.682 116.859 103.704 119.359 103.674 121.86Z" fill="black"/>
<path d="M99.8946 91.1555C99.809 90.9263 99.6537 90.7298 99.4506 90.5935C99.2474 90.4572 99.0067 90.3879 98.7622 90.3955C97.1586 90.2663 96.3226 90.1447 94.8254 90.7375C94.7126 90.7752 94.6126 90.8436 94.5366 90.9351C94.494 91.0279 94.4732 91.1293 94.4758 91.2315C94.4758 92.1207 94.4226 93.0099 94.3922 93.8915C94.3533 94.0887 94.3807 94.2932 94.47 94.4732C94.5594 94.6533 94.7057 94.7988 94.8862 94.8871C95.707 95.4647 99.5906 97.4407 99.5906 97.4407C100.351 97.5243 101.992 96.0575 102.676 95.6699L99.8946 91.1555Z" fill="#CB7A63"/>
<path d="M98.5312 97.5361L102.894 95.1953C102.894 95.1953 114.202 109.635 114.871 110.798C120.191 120.169 112.88 119.918 110.805 118.626C106.04 115.67 106.504 111.399 104.634 107.659L98.5312 97.5361Z" fill="#6553DF"/>
<g opacity="0.5">
<path d="M98.5312 97.5361L102.894 95.1953C102.894 95.1953 114.202 109.635 114.871 110.798C120.191 120.169 112.88 119.918 110.805 118.626C106.04 115.67 106.504 111.399 104.634 107.659L98.5312 97.5361Z" fill="black"/>
</g>
<path d="M101.293 104.741C106.22 108.409 111.387 111.742 116.759 114.72L117.025 115.837C117.157 116.379 117.143 116.946 116.983 117.48C116.824 118.014 116.526 118.496 116.12 118.877C115.713 119.259 115.212 119.525 114.669 119.649C114.126 119.773 113.559 119.751 113.027 119.584L111.705 119.174C111.705 119.174 94.3922 114.439 94.0122 109.453C91.7094 106.603 95.9958 99.8927 101.293 104.741Z" fill="#6553DF"/>
<path opacity="0.5" d="M101.293 104.741C106.22 108.409 111.387 111.742 116.759 114.72L117.025 115.837C117.157 116.379 117.143 116.946 116.983 117.48C116.824 118.014 116.526 118.496 116.12 118.877C115.713 119.259 115.212 119.525 114.669 119.649C114.126 119.773 113.559 119.751 113.027 119.584L111.705 119.174C111.705 119.174 94.3922 114.439 94.0122 109.453C91.7094 106.603 95.9958 99.8927 101.293 104.741Z" fill="black"/>
<path d="M94.3079 79.8217L91.8911 80.3993L76.1819 84.1461C76.1426 84.0295 76.1121 83.9101 76.0907 83.7889C75.9194 83.0835 75.795 82.3675 75.7183 81.6457C75.6651 81.1441 75.6271 80.6425 75.6195 80.1257C75.5283 74.8057 78.1199 70.2457 82.2163 69.2805C86.3127 68.3153 90.6675 71.1729 92.9931 75.9761C93.1983 76.4017 93.3883 76.8577 93.5631 77.3137C93.8324 78.0043 94.0533 78.7128 94.2243 79.4341C94.2395 79.5937 94.2851 79.7153 94.3079 79.8217Z" fill="#263238"/>
<path opacity="0.5" d="M94.2382 79.8216L91.8214 80.4144L76.1122 84.1612C76.1122 84.0548 76.0514 83.9256 76.021 83.804C75.8522 83.0984 75.7303 82.3824 75.6562 81.6608L93.4782 77.3516C93.7475 78.0422 93.9684 78.7507 94.1395 79.472C94.2382 79.5936 94.2382 79.7152 94.2382 79.8216Z" fill="black"/>
<path d="M100.125 79.9402C100.178 80.1658 100.187 80.3999 100.149 80.6289C100.112 80.8578 100.029 81.077 99.9061 81.2737C99.783 81.4703 99.622 81.6405 99.4324 81.7743C99.2429 81.9081 99.0286 82.0028 98.8021 82.053L74.0261 87.9734C73.5736 88.0808 73.097 88.0042 72.7009 87.7606C72.3048 87.5169 72.0216 87.1261 71.9133 86.6738C71.855 86.4457 71.8438 86.2081 71.8804 85.9755C71.917 85.7429 72.0006 85.5202 72.1261 85.321C72.3745 84.9347 72.7649 84.6617 73.2129 84.561L98.0117 78.633C98.2363 78.5799 98.4691 78.5717 98.6969 78.6086C98.9247 78.6456 99.1429 78.7272 99.3391 78.8486C99.5354 78.97 99.7057 79.1289 99.8405 79.3162C99.9753 79.5035 100.072 79.7155 100.125 79.9402Z" fill="#263238"/>
</svg>
