<svg width="555" height="555" viewBox="0 0 555 555" fill="none" xmlns="http://www.w3.org/2000/svg">
<path d="M555 424.461H0V424.738H555V424.461Z" fill="#E0E0E0"/>
<path d="M421.059 434.695H382.875V434.973H421.059V434.695Z" fill="#E0E0E0"/>
<path d="M465.982 433.906H444.492V434.184H465.982V433.906Z" fill="#E0E0E0"/>
<path d="M274.544 434.562H246.039V434.84H274.544V434.562Z" fill="#E0E0E0"/>
<path d="M295.141 438.5H275.672V438.777H295.141V438.5Z" fill="#E0E0E0"/>
<path d="M160.585 431.75H101.766V432.027H160.585V431.75Z" fill="#E0E0E0"/>
<path d="M263.071 374.955H48.7411C47.062 374.952 45.4527 374.283 44.2665 373.095C43.0803 371.906 42.4141 370.296 42.4141 368.617V67.3295C42.4287 65.6601 43.1014 64.0638 44.286 62.8875C45.4707 61.7112 47.0716 61.0497 48.7411 61.0469H263.071C264.752 61.0469 266.364 61.7146 267.553 62.9033C268.741 64.0919 269.409 65.704 269.409 67.385V368.617C269.409 370.298 268.741 371.91 267.553 373.099C266.364 374.287 264.752 374.955 263.071 374.955ZM48.7411 61.2689C47.1356 61.2718 45.5969 61.9116 44.4627 63.0479C43.3286 64.1842 42.6916 65.724 42.6916 67.3295V368.617C42.6916 370.222 43.3286 371.762 44.4627 372.898C45.5969 374.035 47.1356 374.674 48.7411 374.677H263.071C264.677 374.674 266.217 374.035 267.353 372.899C268.489 371.763 269.129 370.223 269.132 368.617V67.3295C269.129 65.723 268.489 64.1832 267.353 63.0472C266.217 61.9113 264.677 61.2718 263.071 61.2689H48.7411Z" fill="#E0E0E0"/>
<path d="M503.171 374.955H288.83C287.15 374.952 285.54 374.283 284.352 373.095C283.164 371.907 282.495 370.297 282.492 368.617V67.3295C282.51 65.6591 283.185 64.0628 284.371 62.8868C285.558 61.7108 287.16 61.0497 288.83 61.0469H503.171C504.839 61.0527 506.437 61.7154 507.619 62.8914C508.801 64.0674 509.473 65.662 509.487 67.3295V368.617C509.487 370.294 508.822 371.903 507.639 373.091C506.455 374.279 504.848 374.949 503.171 374.955ZM288.83 61.2689C287.224 61.2718 285.684 61.9113 284.548 63.0472C283.412 64.1832 282.773 65.723 282.77 67.3295V368.617C282.773 370.223 283.412 371.763 284.548 372.899C285.684 374.035 287.224 374.674 288.83 374.677H503.171C504.778 374.674 506.318 374.035 507.454 372.899C508.589 371.763 509.229 370.223 509.232 368.617V67.3295C509.229 65.723 508.589 64.1832 507.454 63.0472C506.318 61.9113 504.778 61.2718 503.171 61.2689H288.83Z" fill="#E0E0E0"/>
<path d="M481.777 87.9844H314.5V231.796H481.777V87.9844Z" fill="#E0E0E0"/>
<path d="M485.488 87.9844H318.211V231.796H485.488V87.9844Z" fill="#F0F0F0"/>
<path d="M478.82 225.048V94.7344L324.886 94.7344V225.048H478.82Z" fill="#FAFAFA"/>
<path d="M429.625 225.048V94.7344H419.568V225.048H429.625Z" fill="#E0E0E0"/>
<path d="M376.727 225.048V94.7344H366.67V225.048H376.727Z" fill="#E0E0E0"/>
<path d="M433.164 229.327V89.7109H423.107V229.327H433.164Z" fill="#F0F0F0"/>
<path d="M380.25 229.335V89.7188H370.193V229.335H380.25Z" fill="#F0F0F0"/>
<path d="M478.82 225.041V94.7266H476.012V225.041H478.82Z" fill="#E0E0E0"/>
<path d="M196.845 201.565C196.845 201.565 176.488 166.5 204.738 138.539C204.738 138.539 212.108 143.345 211.997 149.806C211.886 156.266 204.094 157.897 205.77 163.292C207.446 168.687 214.783 173.959 209.966 178.421C205.148 182.884 210.743 186.835 210.421 192.296C210.099 197.758 196.845 201.565 196.845 201.565Z" fill="#E0E0E0"/>
<path d="M200.041 207.297C200.041 207.297 208.299 167.581 172.691 149.977C172.691 149.977 167.207 156.859 169.361 162.952C171.514 169.046 179.406 168.136 179.517 173.786C179.628 179.436 174.333 186.762 180.305 189.47C186.277 192.179 182.225 197.707 184.257 202.79C186.288 207.874 200.041 207.297 200.041 207.297Z" fill="#E6E6E6"/>
<path d="M181.914 197.211C181.914 197.211 182.269 231.499 195.978 231.499C209.686 231.499 210.03 197.211 210.03 197.211H181.914Z" fill="#F0F0F0"/>
<path d="M99.5547 218.602C99.5547 218.602 100.321 231.5 129.591 231.5C158.862 231.5 159.639 218.602 159.639 218.602H99.5547Z" fill="#E6E6E6"/>
<path d="M408.148 296.367H392.696C390.771 296.367 389.211 297.928 389.211 299.853V325.405C389.211 327.33 390.771 328.89 392.696 328.89H408.148C410.072 328.89 411.633 327.33 411.633 325.405V299.853C411.633 297.928 410.072 296.367 408.148 296.367Z" fill="#F0F0F0"/>
<path d="M449.126 307H438.725C437.431 307 436.383 308.049 436.383 309.342V326.547C436.383 327.841 437.431 328.889 438.725 328.889H449.126C450.419 328.889 451.468 327.841 451.468 326.547V309.342C451.468 308.049 450.419 307 449.126 307Z" fill="#E6E6E6"/>
<path d="M450.68 304.883H437.171C436.736 304.883 436.383 305.236 436.383 305.671V306.559C436.383 306.994 436.736 307.347 437.171 307.347H450.68C451.115 307.347 451.468 306.994 451.468 306.559V305.671C451.468 305.236 451.115 304.883 450.68 304.883Z" fill="#F0F0F0"/>
<path d="M353.445 310.797C353.445 310.797 354 328.89 375.19 328.89C396.38 328.89 396.946 310.797 396.946 310.797H353.445Z" fill="#E6E6E6"/>
<path d="M300.745 286.898H332.812V280.571H300.745V286.898Z" fill="#E0E0E0"/>
<path d="M492.242 280.586H332.812V286.913H492.242V280.586Z" fill="#F0F0F0"/>
<path d="M300.745 335.219H332.812V328.892H300.745V335.219Z" fill="#E0E0E0"/>
<path d="M492.242 328.891H332.812V335.218H492.242V328.891Z" fill="#F0F0F0"/>
<path d="M312.299 286.898H306.383V424.45H312.299V286.898Z" fill="#E0E0E0"/>
<path d="M338.729 286.898H332.812V424.45H338.729V286.898Z" fill="#F0F0F0"/>
<path d="M471.729 286.898H465.812V424.45H471.729V286.898Z" fill="#E0E0E0"/>
<path d="M492.244 286.898H486.328V424.45H492.244V286.898Z" fill="#F0F0F0"/>
<path d="M99.5596 239.547H69.2344V416.137H99.5596V239.547Z" fill="#E6E6E6"/>
<path d="M224.594 416.125H75.0547V424.461H224.594V416.125Z" fill="#E6E6E6"/>
<path d="M99.5562 416.125H230.414L230.414 239.535L99.5562 239.535L99.5562 416.125Z" fill="#F0F0F0"/>
<path d="M111.477 349.406H218.492V306.272H111.477V349.406Z" fill="#E6E6E6"/>
<path d="M111.477 400.398H218.492V357.264H111.477V400.398Z" fill="#E6E6E6"/>
<path d="M177 310.994H152.968C152.186 310.991 151.437 310.679 150.884 310.126C150.331 309.573 150.019 308.824 150.016 308.042C150.016 307.258 150.326 306.506 150.88 305.95C151.433 305.395 152.184 305.081 152.968 305.078H177C177.784 305.081 178.535 305.395 179.088 305.95C179.642 306.506 179.952 307.258 179.952 308.042C179.949 308.824 179.637 309.573 179.084 310.126C178.531 310.679 177.782 310.991 177 310.994Z" fill="#F0F0F0"/>
<path d="M111.477 298.398H218.492V255.264H111.477V298.398Z" fill="#E6E6E6"/>
<path d="M177 260.002H152.968C152.184 259.999 151.433 259.686 150.88 259.13C150.326 258.575 150.016 257.823 150.016 257.039C150.019 256.256 150.331 255.507 150.884 254.954C151.437 254.401 152.186 254.089 152.968 254.086H177C177.782 254.089 178.531 254.401 179.084 254.954C179.637 255.507 179.949 256.256 179.952 257.039C179.952 257.823 179.642 258.575 179.088 259.13C178.535 259.686 177.784 259.999 177 260.002Z" fill="#F0F0F0"/>
<path d="M177 361.987H152.968C152.186 361.984 151.437 361.672 150.884 361.119C150.331 360.565 150.019 359.816 150.016 359.034C150.016 358.25 150.326 357.498 150.88 356.942C151.433 356.387 152.184 356.073 152.968 356.07H177C177.784 356.073 178.535 356.387 179.088 356.942C179.642 357.498 179.952 358.25 179.952 359.034C179.949 359.816 179.637 360.565 179.084 361.119C178.531 361.672 177.782 361.984 177 361.987Z" fill="#F0F0F0"/>
<path d="M234.453 231.5H99.5547V239.547H234.453V231.5Z" fill="#E6E6E6"/>
<path d="M64.9893 239.531H99.5547V231.484H64.9893V239.531Z" fill="#E0E0E0"/>
<path d="M133.359 94.7344H84.2969V148.614H133.359V94.7344Z" fill="#E6E6E6"/>
<path d="M138.675 94.7344H87.9922V148.614H138.675V94.7344Z" fill="#F0F0F0"/>
<path d="M134.422 144.364V98.9766H92.2308V144.364H134.422Z" fill="#FAFAFA"/>
<path d="M124.195 133.364V109.977H102.462V133.364H124.195Z" fill="#F0F0F0"/>
<path d="M185.082 78.8281H147.875V118.799H185.082V78.8281Z" fill="#E6E6E6"/>
<path d="M189.033 78.8281H151.438V118.799H189.033V78.8281Z" fill="#F0F0F0"/>
<path d="M185.883 115.651V81.9844H154.592V115.651H185.883Z" fill="#FAFAFA"/>
<path d="M170.23 90.2969L161.672 105.126H178.788L170.23 90.2969Z" fill="#F0F0F0"/>
<path d="M277.499 474.591C396.361 474.591 492.717 468.966 492.717 462.026C492.717 455.087 396.361 449.461 277.499 449.461C158.638 449.461 62.2812 455.087 62.2812 462.026C62.2812 468.966 158.638 474.591 277.499 474.591Z" fill="#F5F5F5"/>
<path d="M465.979 161.859H357.088C351.344 161.859 346.688 166.516 346.688 172.26V201.875C346.688 207.619 351.344 212.276 357.088 212.276H465.979C471.723 212.276 476.38 207.619 476.38 201.875V172.26C476.38 166.516 471.723 161.859 465.979 161.859Z" fill="#6553DF"/>
<path d="M444.38 170.367H359.32C358.315 170.367 357.5 171.182 357.5 172.188V174.186C357.5 175.191 358.315 176.006 359.32 176.006H444.38C445.385 176.006 446.2 175.191 446.2 174.186V172.188C446.2 171.182 445.385 170.367 444.38 170.367Z" fill="#6553DF"/>
<path d="M417.44 183.953H359.32C358.315 183.953 357.5 184.768 357.5 185.774V187.772C357.5 188.777 358.315 189.592 359.32 189.592H417.44C418.445 189.592 419.26 188.777 419.26 187.772V185.774C419.26 184.768 418.445 183.953 417.44 183.953Z" fill="#6553DF"/>
<path d="M401.856 197.539H359.32C358.315 197.539 357.5 198.354 357.5 199.359V201.357C357.5 202.363 358.315 203.178 359.32 203.178H401.856C402.861 203.178 403.676 202.363 403.676 201.357V199.359C403.676 198.354 402.861 197.539 401.856 197.539Z" fill="#6553DF"/>
<path d="M454.567 197.539H412.031C411.026 197.539 410.211 198.354 410.211 199.359V201.357C410.211 202.363 411.026 203.178 412.031 203.178H454.567C455.572 203.178 456.387 202.363 456.387 201.357V199.359C456.387 198.354 455.572 197.539 454.567 197.539Z" fill="#6553DF"/>
<g opacity="0.5">
<path d="M444.38 170.367H359.32C358.315 170.367 357.5 171.182 357.5 172.188V174.186C357.5 175.191 358.315 176.006 359.32 176.006H444.38C445.385 176.006 446.2 175.191 446.2 174.186V172.188C446.2 171.182 445.385 170.367 444.38 170.367Z" fill="white"/>
<path d="M417.44 183.953H359.32C358.315 183.953 357.5 184.768 357.5 185.774V187.772C357.5 188.777 358.315 189.592 359.32 189.592H417.44C418.445 189.592 419.26 188.777 419.26 187.772V185.774C419.26 184.768 418.445 183.953 417.44 183.953Z" fill="white"/>
<path d="M401.856 197.539H359.32C358.315 197.539 357.5 198.354 357.5 199.359V201.357C357.5 202.363 358.315 203.178 359.32 203.178H401.856C402.861 203.178 403.676 202.363 403.676 201.357V199.359C403.676 198.354 402.861 197.539 401.856 197.539Z" fill="white"/>
<path d="M454.567 197.539H412.031C411.026 197.539 410.211 198.354 410.211 199.359V201.357C410.211 202.363 411.026 203.178 412.031 203.178H454.567C455.572 203.178 456.387 202.363 456.387 201.357V199.359C456.387 198.354 455.572 197.539 454.567 197.539Z" fill="white"/>
</g>
<path d="M378.756 150.109H255.158C246.735 150.109 239.906 156.938 239.906 165.361V208.784C239.906 217.207 246.735 224.035 255.158 224.035H378.756C387.179 224.035 394.008 217.207 394.008 208.784V165.361C394.008 156.938 387.179 150.109 378.756 150.109Z" fill="#6553DF"/>
<path d="M383.13 162.57H258.433C256.955 162.57 255.758 163.768 255.758 165.245V168.165C255.758 169.642 256.955 170.84 258.433 170.84H383.13C384.608 170.84 385.805 169.642 385.805 168.165V165.245C385.805 163.768 384.608 162.57 383.13 162.57Z" fill="#6553DF"/>
<path d="M343.625 182.5H258.433C256.955 182.5 255.758 183.698 255.758 185.175V188.094C255.758 189.572 256.955 190.769 258.433 190.769H343.625C345.103 190.769 346.301 189.572 346.301 188.094V185.175C346.301 183.698 345.103 182.5 343.625 182.5Z" fill="#6553DF"/>
<path d="M320.782 202.422H258.433C256.955 202.422 255.758 203.62 255.758 205.097V208.016C255.758 209.494 256.955 210.691 258.433 210.691H320.782C322.259 210.691 323.457 209.494 323.457 208.016V205.097C323.457 203.62 322.259 202.422 320.782 202.422Z" fill="#6553DF"/>
<path d="M387.67 202.422H335.722C334.245 202.422 333.047 203.62 333.047 205.097V208.016C333.047 209.494 334.245 210.691 335.722 210.691H387.67C389.147 210.691 390.345 209.494 390.345 208.016V205.097C390.345 203.62 389.147 202.422 387.67 202.422Z" fill="#6553DF"/>
<g opacity="0.5">
<path d="M383.13 162.57H258.433C256.955 162.57 255.758 163.768 255.758 165.245V168.165C255.758 169.642 256.955 170.84 258.433 170.84H383.13C384.608 170.84 385.805 169.642 385.805 168.165V165.245C385.805 163.768 384.608 162.57 383.13 162.57Z" fill="white"/>
<path d="M343.625 182.492H258.433C256.955 182.492 255.758 183.69 255.758 185.167V188.087C255.758 189.564 256.955 190.762 258.433 190.762H343.625C345.103 190.762 346.301 189.564 346.301 188.087V185.167C346.301 183.69 345.103 182.492 343.625 182.492Z" fill="white"/>
<path d="M320.782 202.422H258.433C256.955 202.422 255.758 203.62 255.758 205.097V208.016C255.758 209.494 256.955 210.691 258.433 210.691H320.782C322.259 210.691 323.457 209.494 323.457 208.016V205.097C323.457 203.62 322.259 202.422 320.782 202.422Z" fill="white"/>
<path d="M387.67 202.422H335.722C334.245 202.422 333.047 203.62 333.047 205.097V208.016C333.047 209.494 334.245 210.691 335.722 210.691H387.67C389.147 210.691 390.345 209.494 390.345 208.016V205.097C390.345 203.62 389.147 202.422 387.67 202.422Z" fill="white"/>
</g>
<path d="M301.905 237.43H242.376C238.441 237.43 235.25 240.62 235.25 244.556V333.733C235.25 337.669 238.441 340.859 242.376 340.859H301.905C305.841 340.859 309.032 337.669 309.032 333.733V244.556C309.032 240.62 305.841 237.43 301.905 237.43Z" fill="#6553DF"/>
<path opacity="0.4" d="M301.905 237.43H242.376C238.441 237.43 235.25 240.62 235.25 244.556V333.733C235.25 337.669 238.441 340.859 242.376 340.859H301.905C305.841 340.859 309.032 337.669 309.032 333.733V244.556C309.032 240.62 305.841 237.43 301.905 237.43Z" fill="black"/>
<path d="M299.178 248.219H245.099C244.375 248.219 243.789 248.805 243.789 249.529V251.493C243.789 252.217 244.375 252.803 245.099 252.803H299.178C299.901 252.803 300.488 252.217 300.488 251.493V249.529C300.488 248.805 299.901 248.219 299.178 248.219Z" fill="#FAFAFA"/>
<path d="M281.962 259.25H245.099C244.375 259.25 243.789 259.836 243.789 260.56V262.524C243.789 263.248 244.375 263.834 245.099 263.834H281.962C282.685 263.834 283.272 263.248 283.272 262.524V260.56C283.272 259.836 282.685 259.25 281.962 259.25Z" fill="#FAFAFA"/>
<path d="M299.178 270.297H245.099C244.375 270.297 243.789 270.883 243.789 271.607V273.571C243.789 274.295 244.375 274.881 245.099 274.881H299.178C299.901 274.881 300.488 274.295 300.488 273.571V271.607C300.488 270.883 299.901 270.297 299.178 270.297Z" fill="#FAFAFA"/>
<path d="M265.201 281.328H245.099C244.375 281.328 243.789 281.915 243.789 282.638V284.603C243.789 285.326 244.375 285.912 245.099 285.912H265.201C265.924 285.912 266.511 285.326 266.511 284.603V282.638C266.511 281.915 265.924 281.328 265.201 281.328Z" fill="#FAFAFA"/>
<path d="M293.326 281.328H273.224C272.5 281.328 271.914 281.915 271.914 282.638V284.603C271.914 285.326 272.5 285.912 273.224 285.912H293.326C294.049 285.912 294.636 285.326 294.636 284.603V282.638C294.636 281.915 294.049 281.328 293.326 281.328Z" fill="#FAFAFA"/>
<path d="M299.178 292.375H245.099C244.375 292.375 243.789 292.961 243.789 293.685V295.65C243.789 296.373 244.375 296.959 245.099 296.959H299.178C299.901 296.959 300.488 296.373 300.488 295.65V293.685C300.488 292.961 299.901 292.375 299.178 292.375Z" fill="#FAFAFA"/>
<path d="M299.178 303.406H245.099C244.375 303.406 243.789 303.993 243.789 304.716V306.681C243.789 307.404 244.375 307.991 245.099 307.991H299.178C299.901 307.991 300.488 307.404 300.488 306.681V304.716C300.488 303.993 299.901 303.406 299.178 303.406Z" fill="#FAFAFA"/>
<path d="M289.588 314.453H245.099C244.375 314.453 243.789 315.04 243.789 315.763V317.728C243.789 318.451 244.375 319.037 245.099 319.037H289.588C290.311 319.037 290.897 318.451 290.897 317.728V315.763C290.897 315.04 290.311 314.453 289.588 314.453Z" fill="#FAFAFA"/>
<path d="M265.856 325.484H245.099C244.375 325.484 243.789 326.071 243.789 326.794V328.759C243.789 329.482 244.375 330.069 245.099 330.069H265.856C266.579 330.069 267.166 329.482 267.166 328.759V326.794C267.166 326.071 266.579 325.484 265.856 325.484Z" fill="#FAFAFA"/>
<path d="M318.018 236.797H235.445L271.953 265.846L327.931 286.936V246.687C327.925 244.062 326.878 241.546 325.019 239.692C323.161 237.838 320.643 236.797 318.018 236.797Z" fill="#6553DF"/>
<path opacity="0.4" d="M318.018 236.797H235.445L271.953 265.846L327.931 286.936V246.687C327.925 244.062 326.878 241.546 325.019 239.692C323.161 237.838 320.643 236.797 318.018 236.797Z" fill="black"/>
<path d="M314.404 251.758H253.987C253.079 251.758 252.344 252.493 252.344 253.401V256.464C252.344 257.372 253.079 258.107 253.987 258.107H314.404C315.311 258.107 316.047 257.372 316.047 256.464V253.401C316.047 252.493 315.311 251.758 314.404 251.758Z" fill="#FAFAFA"/>
<path d="M460.812 315.431V257.355C460.812 252.905 457.205 249.297 452.754 249.297H351.91C347.46 249.297 343.852 252.905 343.852 257.355V315.431C343.852 319.881 347.46 323.489 351.91 323.489H452.754C457.205 323.489 460.812 319.881 460.812 315.431Z" fill="#6553DF"/>
<path d="M479.234 297.024V238.949C479.234 234.499 475.626 230.891 471.176 230.891H370.332C365.882 230.891 362.274 234.499 362.274 238.949V297.024C362.274 301.475 365.882 305.083 370.332 305.083H471.176C475.626 305.083 479.234 301.475 479.234 297.024Z" fill="#6553DF"/>
<path opacity="0.5" d="M479.234 297.024V238.949C479.234 234.499 475.626 230.891 471.176 230.891H370.332C365.882 230.891 362.274 234.499 362.274 238.949V297.024C362.274 301.475 365.882 305.083 370.332 305.083H471.176C475.626 305.083 479.234 301.475 479.234 297.024Z" fill="white"/>
<path d="M469 277.127V241.374C469 239.394 467.395 237.789 465.415 237.789H432.459C430.479 237.789 428.873 239.394 428.873 241.374V277.127C428.873 279.108 430.479 280.713 432.459 280.713H465.415C467.395 280.713 469 279.108 469 277.127Z" fill="#6553DF"/>
<path opacity="0.7" d="M469 277.127V241.374C469 239.394 467.395 237.789 465.415 237.789H432.459C430.479 237.789 428.873 239.394 428.873 241.374V277.127C428.873 279.108 430.479 280.713 432.459 280.713H465.415C467.395 280.713 469 279.108 469 277.127Z" fill="white"/>
<path d="M422.586 294.421V267.026C422.586 265.506 421.353 264.273 419.833 264.273H394.581C393.06 264.273 391.828 265.506 391.828 267.026V294.421C391.828 295.941 393.06 297.174 394.581 297.174H419.833C421.353 297.174 422.586 295.941 422.586 294.421Z" fill="#6553DF"/>
<path opacity="0.3" d="M422.586 294.421V267.026C422.586 265.506 421.353 264.273 419.833 264.273H394.581C393.06 264.273 391.828 265.506 391.828 267.026V294.421C391.828 295.941 393.06 297.174 394.581 297.174H419.833C421.353 297.174 422.586 295.941 422.586 294.421Z" fill="white"/>
<path d="M407.203 120.722V105.926C407.203 101.402 403.536 97.7344 399.011 97.7344L128.027 97.7344C123.503 97.7344 119.835 101.402 119.835 105.926V120.722C119.835 125.247 123.503 128.914 128.027 128.914L399.011 128.914C403.536 128.914 407.203 125.247 407.203 120.722Z" fill="#6553DF"/>
<path opacity="0.5" d="M407.203 120.722V105.926C407.203 101.402 403.536 97.7344 399.011 97.7344L128.027 97.7344C123.503 97.7344 119.835 101.402 119.835 105.926V120.722C119.835 125.247 123.503 128.914 128.027 128.914L399.011 128.914C403.536 128.914 407.203 125.247 407.203 120.722Z" fill="white"/>
<path d="M355.93 134.132V123.398H277.952V134.132H355.93Z" fill="#6553DF"/>
<path opacity="0.5" d="M355.93 134.132V123.398H277.952V134.132H355.93Z" fill="white"/>
<path d="M435.164 74.66V59.8637C435.164 55.3395 431.496 51.6719 426.972 51.6719L155.988 51.6719C151.464 51.6719 147.796 55.3395 147.796 59.8637V74.66C147.796 79.1842 151.464 82.8518 155.988 82.8518L426.972 82.8518C431.496 82.8518 435.164 79.1842 435.164 74.66Z" fill="#6553DF"/>
<path d="M144.698 215.624C143.721 217.844 142.644 220.242 141.701 222.584C140.757 224.926 139.78 227.335 138.926 229.732C137.172 234.406 135.766 239.203 134.719 244.084L134.397 245.86L134.286 246.526C134.286 246.715 134.286 246.959 134.219 247.181C134.177 248.262 134.199 249.344 134.286 250.423C134.497 252.765 134.874 255.273 135.396 257.782C136.328 262.81 137.516 267.994 138.726 273.1L133.032 275.32C130.377 270.481 128.117 265.436 126.272 260.235C125.3 257.528 124.513 254.757 123.918 251.943C123.585 250.386 123.377 248.805 123.297 247.215C123.297 246.771 123.297 246.349 123.297 245.872C123.297 245.394 123.297 244.861 123.375 244.551L123.597 242.331C123.928 239.472 124.436 236.636 125.117 233.839C125.739 231.064 126.538 228.367 127.337 225.703C128.136 223.039 129.135 220.419 130.19 217.844C130.712 216.556 131.3 215.28 131.811 214.003C132.321 212.727 132.921 211.506 133.631 210.141L144.698 215.624Z" fill="#E4897B"/>
<path d="M138.432 271.602L142.761 275.831L133.315 280.271C133.315 280.271 131.028 276.264 132.615 272.645L138.432 271.602Z" fill="#E4897B"/>
<path d="M146.252 282.122L138.271 285.385L133.32 280.224L142.755 275.828L146.252 282.122Z" fill="#E4897B"/>
<path opacity="0.4" d="M307.925 277.575C292.219 275.812 277.389 269.432 265.309 259.241C253.229 249.051 244.442 235.507 240.058 220.323C235.674 205.139 235.891 188.996 240.68 173.935C245.469 158.874 254.616 145.571 266.965 135.708C279.314 125.845 294.309 119.865 310.057 118.523C325.804 117.181 341.595 120.538 355.434 128.17C369.274 135.802 380.54 147.365 387.808 161.399C395.077 175.432 398.021 191.306 396.269 207.013C395.106 217.448 391.897 227.552 386.826 236.747C381.756 245.942 374.923 254.047 366.719 260.6C358.514 267.154 349.099 272.026 339.011 274.938C328.923 277.851 318.359 278.747 307.925 277.575Z" fill="#FAFAFA"/>
<path opacity="0.4" d="M366.07 135.183L244.525 232.297C244.014 231.187 243.515 230.077 243.049 228.967C240.002 221.719 238.052 214.057 237.266 206.234L342.249 122.352C350.869 125.227 358.927 129.568 366.07 135.183Z" fill="#FAFAFA"/>
<path opacity="0.4" d="M394.121 177.727L279.846 269.024C268.99 263.365 259.582 255.283 252.352 245.403L377.127 145.703C385.17 154.935 390.984 165.891 394.121 177.727Z" fill="#FAFAFA"/>
<path d="M226.875 167.61L225.82 167.255C227.647 161.866 229.942 156.647 232.68 151.659L233.646 152.192C230.944 157.124 228.678 162.283 226.875 167.61ZM240.35 141.703L239.451 141.048C248.573 128.713 260.512 118.738 274.272 111.955L274.771 112.954C261.168 119.667 249.366 129.536 240.35 141.736V141.703ZM361.995 114.474C358.368 112.529 354.615 110.827 350.762 109.379L351.161 108.336C355.053 109.817 358.842 111.553 362.506 113.531L361.995 114.474Z" fill="#6553DF"/>
<path opacity="0.3" d="M226.875 167.61L225.82 167.255C227.647 161.866 229.942 156.647 232.68 151.659L233.646 152.192C230.944 157.124 228.678 162.283 226.875 167.61ZM240.35 141.703L239.451 141.048C248.573 128.713 260.512 118.738 274.272 111.955L274.771 112.954C261.168 119.667 249.366 129.536 240.35 141.736V141.703ZM361.995 114.474C358.368 112.529 354.615 110.827 350.762 109.379L351.161 108.336C355.053 109.817 358.842 111.553 362.506 113.531L361.995 114.474Z" fill="black"/>
<path d="M399.457 157.328C389.179 136.011 371.092 119.466 348.945 111.124C326.798 102.782 302.291 103.283 280.503 112.522C258.715 121.761 241.318 139.029 231.919 160.748C222.519 182.467 221.838 206.971 230.016 229.178C222.601 231.776 215.275 234.562 207.993 237.437C197.493 241.603 187.088 245.954 176.78 250.49C166.479 255.052 156.223 259.703 146.066 264.565C140.972 266.952 135.943 269.471 130.871 271.913C128.232 273.047 125.841 274.688 123.833 276.742C122.747 277.879 121.79 279.134 120.98 280.482C119.993 282.078 119.245 283.809 118.76 285.622C117.925 288.888 118.286 292.346 119.779 295.369C121.271 298.392 123.796 300.782 126.897 302.105C128.619 302.827 130.435 303.298 132.291 303.504C133.859 303.681 135.441 303.681 137.009 303.504C139.857 303.158 142.61 302.257 145.112 300.851C150.14 298.309 155.202 295.856 160.197 293.247C170.187 288.153 180.177 282.836 190.045 277.441C199.913 272.046 209.792 266.397 219.426 260.602C226.086 256.573 232.813 252.455 239.406 248.148C252.067 268.136 271.933 282.486 294.886 288.225C317.839 293.965 342.121 290.654 362.699 278.978C383.278 267.303 398.576 248.158 405.423 225.51C412.27 202.863 410.142 178.449 399.479 157.328H399.457ZM348.997 263.366C336.097 269.734 321.599 272.133 307.336 270.261C293.072 268.389 279.685 262.329 268.865 252.849C258.045 243.368 250.28 230.893 246.55 216.999C242.821 203.105 243.295 188.418 247.912 174.793C252.53 161.169 261.083 149.22 272.492 140.457C283.9 131.693 297.651 126.51 312.005 125.561C326.359 124.612 340.672 127.941 353.135 135.127C365.597 142.313 375.649 153.032 382.019 165.93C386.25 174.496 388.751 183.812 389.381 193.344C390.011 202.877 388.757 212.441 385.691 221.489C382.624 230.537 377.805 238.892 371.509 246.078C365.213 253.263 357.563 259.138 348.997 263.366Z" fill="#6553DF"/>
<path opacity="0.3" d="M399.457 157.328C389.179 136.011 371.092 119.466 348.945 111.124C326.798 102.782 302.291 103.283 280.503 112.522C258.715 121.761 241.318 139.029 231.919 160.748C222.519 182.467 221.838 206.971 230.016 229.178C222.601 231.776 215.275 234.562 207.993 237.437C197.493 241.603 187.088 245.954 176.78 250.49C166.479 255.052 156.223 259.703 146.066 264.565C140.972 266.952 135.943 269.471 130.871 271.913C128.232 273.047 125.841 274.688 123.833 276.742C122.747 277.879 121.79 279.134 120.98 280.482C119.993 282.078 119.245 283.809 118.76 285.622C117.925 288.888 118.286 292.346 119.779 295.369C121.271 298.392 123.796 300.782 126.897 302.105C128.619 302.827 130.435 303.298 132.291 303.504C133.859 303.681 135.441 303.681 137.009 303.504C139.857 303.158 142.61 302.257 145.112 300.851C150.14 298.309 155.202 295.856 160.197 293.247C170.187 288.153 180.177 282.836 190.045 277.441C199.913 272.046 209.792 266.397 219.426 260.602C226.086 256.573 232.813 252.455 239.406 248.148C252.067 268.136 271.933 282.486 294.886 288.225C317.839 293.965 342.121 290.654 362.699 278.978C383.278 267.303 398.576 248.158 405.423 225.51C412.27 202.863 410.142 178.449 399.479 157.328H399.457ZM348.997 263.366C336.097 269.734 321.599 272.133 307.336 270.261C293.072 268.389 279.685 262.329 268.865 252.849C258.045 243.368 250.28 230.893 246.55 216.999C242.821 203.105 243.295 188.418 247.912 174.793C252.53 161.169 261.083 149.22 272.492 140.457C283.9 131.693 297.651 126.51 312.005 125.561C326.359 124.612 340.672 127.941 353.135 135.127C365.597 142.313 375.649 153.032 382.019 165.93C386.25 174.496 388.751 183.812 389.381 193.344C390.011 202.877 388.757 212.441 385.691 221.489C382.624 230.537 377.805 238.892 371.509 246.078C365.213 253.263 357.563 259.138 348.997 263.366Z" fill="black"/>
<path d="M175.383 175.985C175.383 176.639 175.727 177.172 176.16 177.172C176.593 177.172 176.937 176.639 176.937 175.985C176.937 175.33 176.593 174.797 176.16 174.797C175.727 174.797 175.383 175.374 175.383 175.985Z" fill="#263238"/>
<path d="M175.695 177.172C176.481 179.182 177.538 181.076 178.837 182.8C178.388 183.121 177.874 183.34 177.331 183.442C176.788 183.543 176.23 183.525 175.695 183.388V177.172Z" fill="#DE5753"/>
<path d="M173.087 172.332C173.025 172.332 172.964 172.318 172.908 172.292C172.852 172.265 172.803 172.225 172.765 172.177C172.707 172.092 172.684 171.989 172.701 171.887C172.717 171.786 172.772 171.695 172.854 171.633C173.343 171.262 173.914 171.015 174.519 170.913C175.124 170.81 175.744 170.856 176.328 171.045C176.38 171.059 176.429 171.084 176.471 171.119C176.513 171.153 176.548 171.196 176.572 171.244C176.597 171.293 176.611 171.346 176.614 171.4C176.617 171.454 176.608 171.508 176.588 171.559C176.569 171.61 176.539 171.656 176.501 171.694C176.462 171.733 176.416 171.763 176.366 171.782C176.315 171.802 176.261 171.81 176.206 171.808C176.152 171.805 176.099 171.791 176.051 171.766C175.587 171.624 175.096 171.595 174.619 171.682C174.142 171.769 173.692 171.969 173.309 172.266C173.243 172.309 173.166 172.333 173.087 172.332Z" fill="#263238"/>
<path d="M152.96 180.93C154.07 186.89 155.291 197.824 151.117 201.809C151.117 201.809 152.749 207.858 163.838 207.858C176.048 207.858 169.654 201.809 169.654 201.809C162.994 200.21 163.183 195.282 164.337 190.642L152.96 180.93Z" fill="#E4897B"/>
<path d="M146.133 204.947C147.454 202.893 145.234 197.909 145.234 197.909C145.234 197.909 164.859 192.97 172.884 200.551C174.549 202.116 172.707 204.425 172.707 204.425L146.133 204.947Z" fill="#6553DF"/>
<path opacity="0.1" d="M146.133 204.947C147.454 202.893 145.234 197.909 145.234 197.909C145.234 197.909 164.859 192.97 172.884 200.551C174.549 202.116 172.707 204.425 172.707 204.425L146.133 204.947Z" fill="black"/>
<path d="M113.668 431.417C112.635 431.417 110.982 429.697 110.493 429.053C110.472 429.022 110.461 428.985 110.461 428.948C110.461 428.91 110.472 428.873 110.493 428.842C110.511 428.811 110.537 428.785 110.568 428.768C110.6 428.75 110.635 428.741 110.671 428.742C110.793 428.742 113.512 428.986 114.256 429.952C114.337 430.054 114.395 430.172 114.425 430.299C114.456 430.425 114.459 430.557 114.434 430.685C114.424 430.85 114.363 431.008 114.26 431.137C114.156 431.267 114.016 431.361 113.856 431.406L113.668 431.417ZM111.093 429.197C111.903 430.13 113.202 431.184 113.757 431.051C113.757 431.051 113.979 430.996 114.045 430.64C114.06 430.566 114.057 430.49 114.038 430.417C114.019 430.344 113.983 430.276 113.934 430.219C113.112 429.596 112.122 429.232 111.093 429.175V429.197Z" fill="#6553DF"/>
<path d="M111.216 429.181C111.017 429.201 110.816 429.201 110.617 429.181C110.582 429.178 110.548 429.165 110.52 429.143C110.493 429.122 110.472 429.092 110.461 429.059C110.446 429.028 110.438 428.994 110.438 428.959C110.438 428.924 110.446 428.89 110.461 428.859C110.539 428.792 112.171 427.094 113.403 427.094C113.55 427.091 113.697 427.119 113.832 427.176C113.968 427.233 114.09 427.319 114.191 427.427C114.301 427.52 114.377 427.647 114.405 427.788C114.433 427.929 114.413 428.076 114.346 428.204C114.024 428.826 112.326 429.181 111.216 429.181ZM111.072 428.792C112.182 428.792 113.791 428.448 114.058 427.96C114.058 427.96 114.135 427.816 113.958 427.638C113.893 427.568 113.814 427.512 113.726 427.476C113.638 427.44 113.542 427.423 113.447 427.427C112.537 427.636 111.71 428.111 111.072 428.792Z" fill="#6553DF"/>
<path d="M186.913 456.621C186.072 456.615 185.233 456.537 184.405 456.388C184.364 456.38 184.327 456.358 184.3 456.325C184.274 456.293 184.26 456.252 184.26 456.21C184.254 456.172 184.259 456.132 184.275 456.097C184.291 456.061 184.317 456.031 184.349 456.01C184.471 455.944 187.313 454.312 188.678 454.689C188.805 454.718 188.924 454.772 189.029 454.848C189.134 454.925 189.222 455.022 189.289 455.133C189.376 455.257 189.422 455.404 189.422 455.555C189.422 455.706 189.376 455.854 189.289 455.977C188.967 456.476 187.957 456.621 186.913 456.621ZM185.037 456.099C186.547 456.321 188.612 456.31 188.989 455.777C189.044 455.711 189.089 455.588 188.989 455.355C188.904 455.217 188.769 455.118 188.612 455.078C187.746 454.856 186.025 455.588 185.037 456.099Z" fill="#6553DF"/>
<path d="M184.451 456.394C184.415 456.404 184.376 456.404 184.34 456.394C184.309 456.374 184.285 456.345 184.271 456.311C184.257 456.278 184.254 456.24 184.262 456.205C184.337 455.049 184.781 453.948 185.528 453.064C185.679 452.933 185.856 452.837 186.047 452.781C186.239 452.726 186.44 452.712 186.638 452.742C187.17 452.742 187.326 453.063 187.359 453.274C187.503 454.196 185.561 455.961 184.573 456.405L184.451 456.394ZM186.438 453.064C186.194 453.062 185.957 453.148 185.772 453.308C185.144 454.009 184.755 454.891 184.662 455.827C185.661 455.217 186.993 453.84 186.882 453.285C186.882 453.285 186.882 453.097 186.504 453.064H186.438Z" fill="#6553DF"/>
<path d="M175.484 456.194H183.643L184.453 437.312H176.295L175.484 456.194Z" fill="#E4897B"/>
<path d="M102.828 423.783L109.644 428.245L124.695 415.536L117.869 411.062L102.828 423.783Z" fill="#E4897B"/>
<path d="M110.768 427.824L103.687 422.018C103.562 421.916 103.405 421.859 103.243 421.859C103.081 421.859 102.924 421.916 102.799 422.018L96.96 426.603C96.819 426.715 96.7051 426.858 96.6268 427.02C96.5485 427.182 96.5078 427.36 96.5078 427.541C96.5078 427.721 96.5485 427.899 96.6268 428.061C96.7051 428.224 96.819 428.366 96.96 428.479C99.4686 430.465 100.79 431.309 103.909 433.862C105.829 435.427 110.569 440.222 113.244 442.387C115.919 444.551 118.372 442.22 117.484 441.099C113.499 436.049 111.934 431.731 111.479 429.056C111.4 428.572 111.148 428.134 110.768 427.824Z" fill="#263238"/>
<path d="M183.586 455.25H174.706C174.544 455.251 174.387 455.306 174.26 455.406C174.134 455.507 174.044 455.647 174.007 455.805L172.397 463.053C172.357 463.229 172.357 463.411 172.398 463.587C172.438 463.763 172.518 463.927 172.632 464.067C172.745 464.207 172.889 464.32 173.052 464.396C173.215 464.472 173.394 464.51 173.574 464.507C176.782 464.452 181.422 464.263 185.462 464.263C190.18 464.263 194.264 464.518 199.792 464.518C203.122 464.518 204.077 461.133 202.667 460.833C196.296 459.435 191.079 459.29 185.573 455.883C184.982 455.492 184.294 455.272 183.586 455.25Z" fill="#263238"/>
<path d="M135.045 204.234C127.975 207.564 123.945 229.875 123.945 229.875L141.228 236.769C143.758 230.591 145.803 224.227 147.344 217.732C149.72 207.453 142.283 200.793 135.045 204.234Z" fill="#263238"/>
<path d="M144.215 216.813C139.941 221.142 137.988 229.623 137.133 235.139L141.273 236.793C143.731 230.791 145.735 224.614 147.267 218.312C146.901 215.959 145.991 215.015 144.215 216.813Z" fill="#203048"/>
<path d="M182.2 204.083C182.2 204.083 190.88 213.895 182.688 274.568H139.076C138.777 267.908 142.984 235.218 136.523 203.672C141.343 202.738 146.219 202.122 151.12 201.83C157.294 201.463 163.483 201.463 169.657 201.83C173.89 202.256 178.083 203.009 182.2 204.083Z" fill="#263238"/>
<path d="M186.183 227.634L178.835 214.969C177.416 220.878 176.837 226.958 177.114 233.028C177.314 237.38 181.299 253.497 184.884 255.85C185.836 246.476 186.269 237.056 186.183 227.634Z" fill="#203048"/>
<path d="M187.199 212.75C188.309 218.145 189.419 223.672 190.607 229.089C191.795 234.506 193.027 239.945 194.459 245.195C194.825 246.494 195.169 247.826 195.569 249.069L195.868 250.024L196.013 250.501V250.446C195.935 250.346 195.846 250.335 195.913 250.446C196.369 250.944 196.952 251.308 197.6 251.5C198.649 251.891 199.73 252.191 200.83 252.399C206.078 253.231 211.392 253.577 216.703 253.432L217.758 259.47C216.27 259.947 214.883 260.291 213.418 260.635C211.952 260.979 210.509 261.268 209.033 261.49C205.979 261.999 202.882 262.207 199.787 262.112C198.066 262.065 196.355 261.842 194.681 261.446C192.551 260.98 190.55 260.051 188.82 258.726C187.69 257.814 186.757 256.681 186.078 255.396C185.901 255.063 185.745 254.686 185.601 254.364L185.401 253.842L184.99 252.732C184.424 251.323 183.958 249.935 183.448 248.548C181.572 242.997 180.007 237.392 178.63 231.798C177.254 226.203 176.066 220.62 175.078 214.881L187.199 212.75Z" fill="#E4897B"/>
<path d="M171.31 210.032C169.012 217.48 178.325 239.691 178.325 239.691L196.873 235.029C196.873 235.029 196.163 223.485 191.934 214.328C185.562 200.52 174.063 201.097 171.31 210.032Z" fill="#263238"/>
<path d="M216.548 253.428L225.783 253.195L221.343 262.808C221.343 262.808 217.58 263.307 214.494 258.235L211.242 254.35L214.983 253.606C215.498 253.498 216.022 253.438 216.548 253.428Z" fill="#E4897B"/>
<path d="M231.611 254.982L226.328 262.952L221.344 262.808L225.784 253.195L231.611 254.982Z" fill="#E4897B"/>
<path d="M184.447 437.312L184.026 447.047H175.867L176.289 437.312H184.447Z" fill="#CE6F64"/>
<path d="M117.876 411.062L124.703 415.536L116.933 422.085L110.117 417.623L117.876 411.062Z" fill="#CE6F64"/>
<path d="M153.471 174.578C153.959 182.648 153.837 187.41 157.911 191.55C164.038 197.799 174.017 194.103 175.948 186C177.691 178.74 176.603 166.752 168.7 163.533C166.956 162.83 165.062 162.58 163.195 162.809C161.329 163.038 159.551 163.737 158.029 164.841C156.506 165.945 155.289 167.418 154.492 169.121C153.695 170.824 153.343 172.702 153.471 174.578Z" fill="#E4897B"/>
<path d="M143.965 173.16C145.975 180.519 150.703 189 156.819 189.543C164.412 190.209 167.842 182.362 168.841 174.259C173.392 171.14 171.005 167.71 175.567 167.277C181.428 166.722 179.552 155.999 171.838 154.279C171.838 154.279 174.424 159.107 168.996 156.665C163.834 154.212 158.099 153.218 152.413 153.79C152.413 153.79 159.339 157.254 152.568 158.796C145.797 160.339 143.777 164.513 146.896 167.033C146.896 167.044 142.645 168.32 143.965 173.16Z" fill="#263238"/>
<path d="M164.212 175.921C164.361 177.927 165.168 179.827 166.509 181.327C168.285 183.292 170.139 182.071 170.45 179.684C170.738 177.542 170.15 173.934 167.974 172.846C165.799 171.759 164.067 173.501 164.212 175.921Z" fill="#E4897B"/>
<path d="M167.213 274.566C167.213 274.566 175.16 332.119 168.9 355.185C158.977 391.704 121.037 422.529 121.037 422.529L108.172 414.093C108.172 414.093 140.484 388.063 144.436 357.483C147.988 330.032 139.074 296.832 139.074 274.555L167.213 274.566Z" fill="#6553DF"/>
<path opacity="0.1" d="M167.213 274.566C167.213 274.566 175.16 332.119 168.9 355.185C158.977 391.704 121.037 422.529 121.037 422.529L108.172 414.093C108.172 414.093 140.484 388.063 144.436 357.483C147.988 330.032 139.074 296.832 139.074 274.555L167.213 274.566Z" fill="black"/>
<path d="M170.499 307.465C168.383 305.041 166.054 302.812 163.539 300.805C164.893 319.486 166.003 347.158 164.771 366.816C166.428 363.048 167.808 359.164 168.9 355.195C171.953 343.928 171.631 324.47 170.499 307.465Z" fill="#6553DF"/>
<path opacity="0.3" d="M170.499 307.465C168.383 305.041 166.054 302.812 163.539 300.805C164.893 319.486 166.003 347.158 164.771 366.816C166.428 363.048 167.808 359.164 168.9 355.195C171.953 343.928 171.631 324.47 170.499 307.465Z" fill="black"/>
<path d="M126.216 419.651C126.272 419.651 121.232 422.981 121.232 422.981L107.18 413.768L111.62 410.094L126.216 419.651Z" fill="#6553DF"/>
<path opacity="0.3" d="M126.216 419.651C126.272 419.651 121.232 422.981 121.232 422.981L107.18 413.768L111.62 410.094L126.216 419.651Z" fill="black"/>
<path d="M182.687 274.562C182.687 274.562 194.964 326.622 195.829 351.497C196.806 379.38 187.071 445.158 187.071 445.158H173.252C173.252 445.158 171.554 378.869 170.943 353.472C170.266 325.778 154.016 274.562 154.016 274.562H182.687Z" fill="#6553DF"/>
<path opacity="0.1" d="M182.687 274.562C182.687 274.562 194.964 326.622 195.829 351.497C196.806 379.38 187.071 445.158 187.071 445.158H173.252C173.252 445.158 171.554 378.869 170.943 353.472C170.266 325.778 154.016 274.562 154.016 274.562H182.687Z" fill="black"/>
<path d="M189.725 439.664C189.792 439.664 188.948 445.392 188.948 445.392H172.143L171.688 440.275L189.725 439.664Z" fill="#6553DF"/>
<path opacity="0.3" d="M189.725 439.664C189.792 439.664 188.948 445.392 188.948 445.392H172.143L171.688 440.275L189.725 439.664Z" fill="black"/>
<path d="M395.16 224.539C396.104 225.427 396.847 226.182 397.624 227.025C398.401 227.869 399.134 228.69 399.844 229.545C401.287 231.243 402.642 233.031 403.951 234.829C406.567 238.436 408.894 242.244 410.911 246.217L411.322 247.028C411.522 247.42 411.689 247.828 411.821 248.249C412.089 249.061 412.253 249.904 412.31 250.757C412.382 252.262 412.175 253.768 411.699 255.197C410.888 257.572 409.684 259.793 408.136 261.768C405.347 265.351 402.057 268.513 398.368 271.159L395.604 267.984C396.903 266.464 398.257 264.832 399.467 263.2C400.698 261.619 401.811 259.95 402.797 258.205C403.718 256.683 404.399 255.028 404.817 253.299C404.961 252.681 404.987 252.041 404.895 251.412C404.855 251.201 404.788 250.996 404.695 250.802C404.654 250.717 404.605 250.635 404.551 250.557L404.196 249.958C402.055 246.468 399.732 243.092 397.236 239.846C396.004 238.214 394.683 236.649 393.351 235.106C392.696 234.329 392.019 233.574 391.342 232.82C390.665 232.065 389.932 231.31 389.344 230.722L395.16 224.539Z" fill="#E4897B"/>
<path d="M396.667 267.057L388.375 265.703L392.715 272.963C392.715 272.963 398.054 272.774 399.575 269.633L396.667 267.057Z" fill="#E4897B"/>
<path d="M382.25 269.055L386.202 274.949L392.717 272.963L388.377 265.703L382.25 269.055Z" fill="#E4897B"/>
<path d="M396.271 456.519C395.707 456.567 395.144 456.414 394.683 456.086C394.544 455.954 394.442 455.789 394.385 455.606C394.329 455.423 394.321 455.229 394.361 455.042C394.369 454.923 394.41 454.808 394.478 454.711C394.547 454.613 394.641 454.536 394.75 454.487C395.716 454.054 398.246 455.675 398.535 455.864C398.568 455.884 398.593 455.914 398.607 455.951C398.622 455.987 398.623 456.026 398.613 456.063C398.609 456.101 398.592 456.137 398.566 456.165C398.54 456.193 398.506 456.212 398.469 456.219C397.75 456.401 397.012 456.502 396.271 456.519ZM395.161 454.798C395.08 454.786 394.997 454.786 394.916 454.798C394.868 454.821 394.826 454.857 394.797 454.902C394.767 454.947 394.751 454.999 394.75 455.053C394.721 455.177 394.724 455.307 394.759 455.429C394.794 455.552 394.859 455.663 394.95 455.753C395.372 456.13 396.459 456.186 397.914 455.897C397.081 455.347 396.144 454.973 395.161 454.798Z" fill="#6553DF"/>
<path d="M398.486 456.212H398.386C397.598 455.757 396.077 453.992 396.266 453.026C396.302 452.874 396.386 452.738 396.506 452.637C396.627 452.537 396.776 452.479 396.932 452.471C397.082 452.45 397.235 452.462 397.379 452.508C397.523 452.555 397.655 452.633 397.765 452.738C398.675 453.537 398.686 455.934 398.686 456.068C398.684 456.101 398.674 456.134 398.656 456.163C398.639 456.192 398.615 456.216 398.586 456.234L398.486 456.212ZM397.065 452.882H396.976C396.732 452.882 396.677 453.015 396.655 453.115C396.544 453.681 397.487 455.035 398.275 455.668C398.295 454.737 398.027 453.822 397.509 453.048C397.443 452.986 397.364 452.939 397.278 452.911C397.191 452.882 397.1 452.872 397.01 452.882H397.065Z" fill="#6553DF"/>
<path d="M358.437 456.521C357.728 456.588 357.018 456.408 356.428 456.01C356.295 455.892 356.192 455.744 356.128 455.577C356.065 455.411 356.042 455.232 356.062 455.055C356.069 454.947 356.103 454.843 356.161 454.752C356.22 454.661 356.3 454.586 356.395 454.534C357.427 453.957 360.735 455.644 361.112 455.855C361.147 455.877 361.174 455.909 361.192 455.946C361.21 455.983 361.217 456.025 361.212 456.066C361.206 456.104 361.187 456.14 361.159 456.168C361.131 456.196 361.096 456.215 361.057 456.221C360.195 456.404 359.318 456.504 358.437 456.521ZM356.961 454.8C356.834 454.792 356.707 454.819 356.594 454.878C356.555 454.897 356.521 454.927 356.497 454.964C356.474 455.001 356.461 455.045 356.461 455.089C356.444 455.204 356.456 455.322 356.494 455.432C356.533 455.543 356.598 455.642 356.683 455.721C357.194 456.177 358.559 456.254 360.402 455.943C359.327 455.371 358.164 454.985 356.961 454.8Z" fill="#6553DF"/>
<path d="M361.028 456.21H360.939C359.951 455.766 357.986 453.99 358.142 453.024C358.142 452.802 358.341 452.525 358.885 452.469C359.084 452.448 359.285 452.467 359.476 452.527C359.667 452.586 359.843 452.683 359.995 452.813C361.039 453.679 361.238 455.921 361.238 456.021C361.243 456.055 361.238 456.09 361.224 456.121C361.21 456.152 361.189 456.179 361.161 456.199C361.119 456.217 361.072 456.221 361.028 456.21ZM359.041 452.88H358.919C358.563 452.88 358.541 453.058 358.53 453.102C358.441 453.668 359.773 455.078 360.75 455.688C360.654 454.74 360.266 453.844 359.64 453.124C359.472 452.981 359.261 452.895 359.041 452.88Z" fill="#6553DF"/>
<path d="M374.148 199.023C373.826 204.041 372.961 214.23 376.812 217.05C376.812 217.05 376.113 222.189 367.022 223.388C357.032 224.687 361.594 219.048 361.594 219.048C366.889 217.028 366.212 212.998 364.769 209.313L374.148 199.023Z" fill="#E4897B"/>
<path d="M353.464 190.151C353.41 190.151 353.355 190.139 353.305 190.116C353.256 190.093 353.211 190.06 353.176 190.018C352.858 189.642 352.457 189.345 352.004 189.152C351.551 188.959 351.059 188.876 350.567 188.908C350.515 188.918 350.462 188.916 350.411 188.904C350.359 188.893 350.311 188.871 350.268 188.839C350.226 188.808 350.19 188.769 350.163 188.723C350.136 188.678 350.119 188.627 350.112 188.575C350.1 188.471 350.129 188.365 350.193 188.282C350.258 188.199 350.352 188.145 350.456 188.131C351.083 188.078 351.713 188.178 352.293 188.421C352.873 188.665 353.385 189.045 353.786 189.53C353.834 189.588 353.865 189.658 353.875 189.732C353.885 189.807 353.874 189.883 353.842 189.951C353.811 190.02 353.761 190.078 353.698 190.119C353.635 190.16 353.562 190.183 353.487 190.185L353.464 190.151Z" fill="#263238"/>
<path d="M351.739 195.07C351.345 196.662 350.737 198.193 349.93 199.621C350.3 199.821 350.71 199.936 351.13 199.959C351.55 199.982 351.97 199.912 352.361 199.755L351.739 195.07Z" fill="#DE5753"/>
<path d="M352.18 193.846C352.269 194.512 351.991 195.089 351.558 195.156C351.126 195.222 350.693 194.712 350.615 194.046C350.537 193.38 350.804 192.802 351.237 192.747C351.669 192.691 352.102 193.135 352.18 193.846Z" fill="#263238"/>
<path d="M351.435 192.763L349.781 192.508C349.781 192.508 350.758 193.651 351.435 192.763Z" fill="#263238"/>
<path d="M370.177 456.032H361.852L361.297 436.773H369.622L370.177 456.032Z" fill="#E4897B"/>
<path d="M407.969 456.032H399.644L396.969 436.773H405.294L407.969 456.032Z" fill="#E4897B"/>
<path d="M399.132 455.102H408.478C408.638 455.1 408.792 455.157 408.913 455.261C409.033 455.365 409.112 455.51 409.133 455.668L410.243 463.071C410.263 463.258 410.244 463.447 410.186 463.626C410.129 463.804 410.034 463.969 409.908 464.108C409.782 464.247 409.628 464.359 409.457 464.434C409.285 464.51 409.099 464.549 408.911 464.548C405.659 464.492 404.083 464.303 399.976 464.303C397.445 464.303 393.749 464.559 390.263 464.559C386.778 464.559 386.589 461.107 388.043 460.796C394.559 459.397 395.591 457.466 397.778 455.612C398.16 455.295 398.636 455.116 399.132 455.102Z" fill="#263238"/>
<path d="M361.573 455.102H370.908C371.069 455.1 371.225 455.156 371.347 455.26C371.47 455.364 371.55 455.509 371.574 455.668L372.684 463.071C372.705 463.258 372.685 463.447 372.628 463.626C372.57 463.804 372.475 463.969 372.349 464.108C372.224 464.247 372.07 464.359 371.898 464.434C371.726 464.51 371.54 464.549 371.352 464.548C368.1 464.492 366.524 464.304 362.417 464.304C359.886 464.304 354.647 464.559 351.162 464.559C347.676 464.559 347.487 461.107 348.942 460.796C355.457 459.397 358.021 457.466 360.219 455.612C360.601 455.296 361.078 455.116 361.573 455.102Z" fill="#263238"/>
<path d="M361.297 436.773L361.585 446.708H369.91L369.622 436.773H361.297Z" fill="#CE6F64"/>
<path d="M405.294 436.773H396.969L398.356 446.708H406.67L405.294 436.773Z" fill="#CE6F64"/>
<path d="M374.257 188.631C374.823 196.868 375.234 200.342 371.66 205.082C366.276 212.197 356.042 211.098 353.023 203.195C350.303 196.079 349.837 183.814 357.407 179.507C359.072 178.553 360.954 178.04 362.873 178.016C364.793 177.993 366.686 178.461 368.374 179.375C370.062 180.289 371.488 181.619 372.518 183.239C373.547 184.859 374.146 186.715 374.257 188.631Z" fill="#E4897B"/>
<path d="M379.052 196.28C383.669 198.856 387.099 192.506 387.099 192.506C387.099 192.506 378.819 193.406 379.562 188.477C380.539 181.939 375.855 173.992 364.111 175.013C363.456 175.068 362.835 175.146 362.224 175.246C360.995 174.663 359.604 174.513 358.279 174.819C356.953 175.125 355.77 175.87 354.92 176.933C351.59 177.211 347.095 181.184 350.147 186.435C350.362 185.832 350.694 185.277 351.124 184.803C351.379 187.878 354.066 192.762 357.418 193.084C358.139 197.291 355.342 202.163 356.308 206.559C357.74 212.897 368.429 214.329 368.429 214.329C368.06 213.538 367.923 212.658 368.033 211.792C368.143 210.926 368.496 210.108 369.051 209.434C376.31 212.764 381.094 209.512 381.094 209.512C376.144 207.669 377.642 204.383 377.642 204.383C379.351 205.142 381.288 205.209 383.046 204.569C384.803 203.93 386.244 202.634 387.066 200.954C385.422 201.032 383.79 200.632 382.368 199.803C380.945 198.973 379.794 197.75 379.052 196.28Z" fill="#263238"/>
<path d="M360.319 194.353C360.338 195.143 360.201 195.93 359.915 196.667C359.63 197.404 359.201 198.078 358.654 198.649C357.188 200.169 355.39 199.104 354.902 197.161C354.469 195.407 354.713 192.51 356.622 191.711C357.043 191.546 357.497 191.489 357.945 191.544C358.393 191.599 358.821 191.766 359.188 192.028C359.555 192.291 359.851 192.641 360.048 193.047C360.246 193.453 360.339 193.902 360.319 194.353Z" fill="#E4897B"/>
<path d="M367.234 271.083C367.234 271.083 369.343 325.872 374.361 358.04C378.401 384.036 396.35 444.776 396.35 444.776H407.694C407.694 444.776 398.337 386.112 396.283 360.416C391.088 295.381 404.575 281.417 391.843 267.875L367.234 271.083Z" fill="#263238"/>
<path d="M376.711 288.412C376.711 288.412 371.583 287.524 368.586 297.292C369.696 315.795 371.594 340.349 374.358 358.042C374.968 361.982 375.901 366.733 377.044 371.939C374.88 340.682 376.711 288.412 376.711 288.412Z" fill="#161F33"/>
<path d="M358.388 272.24C358.388 272.24 349.041 332.857 349.585 358.221C350.151 384.606 359.82 444.801 359.82 444.801H371.064C371.064 444.801 369.288 386.171 370.276 360.263C371.386 332.014 382.919 269.055 382.919 269.055L358.388 272.24Z" fill="#263238"/>
<path d="M409.332 445.312H394.247L393.07 440.25L409.221 440.361L409.332 445.312Z" fill="#6553DF"/>
<path opacity="0.2" d="M409.332 445.312H394.247L393.07 440.25L409.221 440.361L409.332 445.312Z" fill="black"/>
<path d="M391.275 217.063C395.615 217.485 402.208 229.817 402.208 229.817L391.253 238.219C391.253 238.219 382.184 230.261 383.261 225.787C384.382 221.136 387.112 216.674 391.275 217.063Z" fill="#6553DF"/>
<path opacity="0.1" d="M391.275 217.063C395.615 217.485 402.208 229.817 402.208 229.817L391.253 238.219C391.253 238.219 382.184 230.261 383.261 225.787C384.382 221.136 387.112 216.674 391.275 217.063Z" fill="black"/>
<path d="M387.998 222.364C386.891 222.066 385.746 221.938 384.601 221.986C384.018 223.2 383.568 224.473 383.258 225.783C382.148 230.223 391.25 238.215 391.25 238.215L392.06 237.593L387.998 222.364Z" fill="#6553DF"/>
<path opacity="0.3" d="M387.998 222.364C386.891 222.066 385.746 221.938 384.601 221.986C384.018 223.2 383.568 224.473 383.258 225.783C382.148 230.223 391.25 238.215 391.25 238.215L392.06 237.593L387.998 222.364Z" fill="black"/>
<path d="M354.667 234.213C351.503 242.216 348.173 250.352 345.52 258.378C345.343 258.888 345.199 259.377 345.043 259.876L344.666 261.108C344.563 261.471 344.563 261.855 344.666 262.218C345.292 263.606 346.286 264.796 347.541 265.659C350.859 268.04 354.475 269.977 358.297 271.42L357.298 275.505C352.597 274.885 348.051 273.402 343.889 271.131C341.327 269.763 339.241 267.65 337.906 265.071C337.139 263.422 336.873 261.585 337.14 259.787C337.165 259.567 337.202 259.348 337.251 259.132L337.362 258.666L337.551 257.823C337.684 257.256 337.817 256.713 337.961 256.158C339.071 251.718 340.492 247.5 341.991 243.315C343.489 239.13 345.054 235.001 346.819 230.883L354.667 234.213Z" fill="#E4897B"/>
<path d="M347.933 222.979C347.933 222.979 344.181 224.877 358.389 272.241L391.888 267.867C389.535 254.303 388.425 245.9 391.278 217.063C386.474 216.719 381.652 216.719 376.848 217.063C371.734 217.36 366.648 218.028 361.63 219.061C355.203 220.493 347.933 222.979 347.933 222.979Z" fill="#6553DF"/>
<path opacity="0.1" d="M347.933 222.979C347.933 222.979 344.181 224.877 358.389 272.241L391.888 267.867C389.535 254.303 388.425 245.9 391.278 217.063C386.474 216.719 381.652 216.719 376.848 217.063C371.734 217.36 366.648 218.028 361.63 219.061C355.203 220.493 347.933 222.979 347.933 222.979Z" fill="black"/>
<path d="M392.131 265.832L394.051 268.619C394.196 268.841 393.952 269.107 393.574 269.162L358.443 273.758C358.143 273.758 357.865 273.68 357.821 273.491L357.133 270.528C357.077 270.328 357.322 270.117 357.655 270.073L391.576 265.633C391.678 265.616 391.782 265.626 391.879 265.661C391.976 265.696 392.063 265.755 392.131 265.832Z" fill="#6553DF"/>
<path opacity="0.2" d="M392.131 265.832L394.051 268.619C394.196 268.841 393.952 269.107 393.574 269.162L358.443 273.758C358.143 273.758 357.865 273.68 357.821 273.491L357.133 270.528C357.077 270.328 357.322 270.117 357.655 270.073L391.576 265.633C391.678 265.616 391.782 265.626 391.879 265.661C391.976 265.696 392.063 265.755 392.131 265.832Z" fill="black"/>
<path d="M388.065 270.22L388.975 270.098C389.153 270.098 389.275 269.965 389.253 269.854L388.321 266.013C388.285 265.948 388.228 265.896 388.16 265.868C388.091 265.84 388.014 265.836 387.943 265.858L387.033 265.969C386.844 265.969 386.722 266.102 386.755 266.224L387.688 270.054C387.71 270.176 387.888 270.242 388.065 270.22Z" fill="#263238"/>
<path d="M366.041 273.062L366.952 272.94C367.129 272.94 367.262 272.807 367.229 272.696L366.297 268.855C366.26 268.79 366.204 268.739 366.136 268.709C366.068 268.679 365.992 268.672 365.919 268.689L365.009 268.811C364.832 268.811 364.698 268.944 364.732 269.055L365.664 272.895C365.686 273.062 365.864 273.129 366.041 273.062Z" fill="#263238"/>
<path d="M349.492 239.051C350.413 243.336 351.712 248.764 353.61 255.635L354.021 238.219L349.492 239.051Z" fill="#6553DF"/>
<path opacity="0.3" d="M349.492 239.051C350.413 243.336 351.712 248.764 353.61 255.635L354.021 238.219L349.492 239.051Z" fill="black"/>
<path d="M347.926 222.973C343.764 224.649 340.156 238.891 340.156 238.891L354.475 245.862C354.475 245.862 361.391 228.446 358.294 225.049C355.197 221.652 352.721 221.053 347.926 222.973Z" fill="#6553DF"/>
<path opacity="0.1" d="M347.926 222.973C343.764 224.649 340.156 238.891 340.156 238.891L354.475 245.862C354.475 245.862 361.391 228.446 358.294 225.049C355.197 221.652 352.721 221.053 347.926 222.973Z" fill="black"/>
<path d="M372.98 445.312H357.895L356.719 440.25L373.513 440.361L372.98 445.312Z" fill="#6553DF"/>
<path opacity="0.2" d="M372.98 445.312H357.895L356.719 440.25L373.513 440.361L372.98 445.312Z" fill="black"/>
<path d="M358.529 270.04L357.319 269.54C357.021 269.419 356.697 269.379 356.379 269.424C356.061 269.469 355.761 269.597 355.508 269.795C355.256 269.994 355.06 270.255 354.941 270.554C354.823 270.852 354.785 271.176 354.832 271.494L355.709 277.277C355.751 277.567 355.857 277.843 356.019 278.087C356.181 278.33 356.395 278.535 356.646 278.685C356.896 278.836 357.177 278.93 357.468 278.959C357.759 278.988 358.053 278.952 358.329 278.853C358.769 278.693 359.181 278.465 359.55 278.176C359.951 277.843 360.269 277.421 360.477 276.943C360.685 276.464 360.778 275.944 360.749 275.423L360.626 273.026C360.605 272.378 360.396 271.75 360.023 271.22C359.65 270.689 359.131 270.279 358.529 270.04Z" fill="#E4897B"/>
</svg>
