<svg width="16" height="16" viewBox="0 0 16 16" fill="none" xmlns="http://www.w3.org/2000/svg">
<path d="M7.9974 6.66927L7.06406 5.73594L8.11406 4.66927H5.33073V3.33594H8.11406L7.0474 2.26927L7.9974 1.33594L10.6641 4.0026L7.9974 6.66927ZM4.66406 14.6693C4.2974 14.6693 3.98351 14.5387 3.7224 14.2776C3.46128 14.0165 3.33073 13.7026 3.33073 13.3359C3.33073 12.9693 3.46128 12.6554 3.7224 12.3943C3.98351 12.1332 4.2974 12.0026 4.66406 12.0026C5.03073 12.0026 5.34462 12.1332 5.60573 12.3943C5.86684 12.6554 5.9974 12.9693 5.9974 13.3359C5.9974 13.7026 5.86684 14.0165 5.60573 14.2776C5.34462 14.5387 5.03073 14.6693 4.66406 14.6693ZM11.3307 14.6693C10.9641 14.6693 10.6502 14.5387 10.3891 14.2776C10.128 14.0165 9.9974 13.7026 9.9974 13.3359C9.9974 12.9693 10.128 12.6554 10.3891 12.3943C10.6502 12.1332 10.9641 12.0026 11.3307 12.0026C11.6974 12.0026 12.0113 12.1332 12.2724 12.3943C12.5335 12.6554 12.6641 12.9693 12.6641 13.3359C12.6641 13.7026 12.5335 14.0165 12.2724 14.2776C12.0113 14.5387 11.6974 14.6693 11.3307 14.6693ZM0.664062 2.66927V1.33594H2.8474L5.68073 7.33594H10.3474L12.9474 2.66927H14.4641L11.5307 7.96927C11.4085 8.19149 11.2446 8.36371 11.0391 8.48594C10.8335 8.60816 10.6085 8.66927 10.3641 8.66927H5.3974L4.66406 10.0026H12.6641V11.3359H4.66406C4.16406 11.3359 3.78351 11.1193 3.5224 10.6859C3.26128 10.2526 3.25295 9.81371 3.4974 9.36927L4.3974 7.73594L1.9974 2.66927H0.664062Z" fill="#FBEFD9"/>
</svg>
