<svg width="16" height="16" viewBox="0 0 16 16" fill="none" xmlns="http://www.w3.org/2000/svg">
<path d="M2.66927 14.0026C2.3026 14.0026 1.98872 13.872 1.7276 13.6109C1.46649 13.3498 1.33594 13.0359 1.33594 12.6693V5.33594C1.33594 4.96927 1.46649 4.65538 1.7276 4.39427C1.98872 4.13316 2.3026 4.0026 2.66927 4.0026H5.33594V2.66927C5.33594 2.3026 5.46649 1.98872 5.7276 1.7276C5.98872 1.46649 6.3026 1.33594 6.66927 1.33594H9.33594C9.7026 1.33594 10.0165 1.46649 10.2776 1.7276C10.5387 1.98872 10.6693 2.3026 10.6693 2.66927V4.0026H13.3359C13.7026 4.0026 14.0165 4.13316 14.2776 4.39427C14.5387 4.65538 14.6693 4.96927 14.6693 5.33594V12.6693C14.6693 13.0359 14.5387 13.3498 14.2776 13.6109C14.0165 13.872 13.7026 14.0026 13.3359 14.0026H2.66927ZM2.66927 12.6693H13.3359V5.33594H2.66927V12.6693ZM6.66927 4.0026H9.33594V2.66927H6.66927V4.0026Z" fill="#FBEFD9"/>
</svg>
